<svg width="749" height="711" viewBox="0 0 749 711" fill="none" xmlns="http://www.w3.org/2000/svg">
<rect x="2.5" y="2.5" width="744" height="706" stroke="#7D8597" stroke-opacity="0.1" stroke-width="5"/>
<path d="M592.265 499.886V510.628H134V499.886H592.265Z" fill="black"/>
<path d="M134 457.396V231.232H205.592C221.551 231.232 233.93 234.756 242.73 241.805C251.53 248.751 257.682 258.2 261.187 270.152C264.692 282.002 266.445 295.333 266.445 310.145V379.557C266.445 394.573 264.58 407.955 260.852 419.702C257.197 431.45 250.97 440.694 242.171 447.436C233.371 454.076 221.215 457.396 205.704 457.396H134ZM167.223 422.001H202.795C210.626 422.001 216.741 420.724 221.141 418.17C225.54 415.514 228.635 411.479 230.425 406.065C232.289 400.651 233.222 393.756 233.222 385.379V304.169C233.222 295.997 232.289 289.152 230.425 283.636C228.561 278.018 225.391 273.778 220.917 270.918C216.517 268.058 210.476 266.628 202.795 266.628H167.223V422.001Z" fill="black"/>
<path d="M296.433 457.396V231.232H359.97C375.407 231.232 385.13 231.003 393.777 234.83C399.843 237.515 404.453 240.663 409.792 250.871C415.13 261.078 418.474 277.098 418.474 290.685C418.474 303.045 416.586 312.602 412.703 319.407C409.422 326.864 402.027 333.99 391.35 337.878L392.321 333.018C399.115 334.962 404.939 336.009 412.703 342.253C419.498 347.716 423.38 353.919 426.292 362.182C429.204 370.445 429.204 378.881 429.204 389.402C429.204 413.102 425.321 428.736 414.645 441.899C403.968 455.061 388.533 457.396 368.024 457.396H296.433ZM329.035 422.614H361.739C370.39 422.614 375.863 423.424 380.188 421.483C384.588 419.543 389.859 415.232 391.35 409.818C392.842 404.301 392.41 398.097 392.41 387.678C392.41 380.119 392.589 373.273 391.47 367.654C390.426 361.934 385.527 356.835 380.172 355.147C374.818 353.46 373.506 353.222 365.228 353.222H329.035V422.614ZM329.656 317.627H363.997C370.485 317.627 374.226 317.627 376.605 316.435C378.983 315.244 381.945 312.862 383.145 308.693C384.346 304.524 384.335 299.355 384.335 292.613C384.335 287.848 384.488 281.316 383.145 277.128C381.803 272.94 378.624 269.624 374.821 268.194C371.018 266.662 365.377 266.408 357.845 266.408H329.656V317.627Z" fill="black"/>
<path d="M460.263 231.232H493.263L565.573 391.347L559.75 393.777L559.75 194.71H591.779V457.396H559.153L487.925 299.964L493.263 297.457L493.263 456.967H460.263V231.232Z" fill="black"/>
<path d="M576.25 133L615 206.428H535.763L576.25 133Z" fill="black"/>
<path d="M134 536.697H142.194V553.966H160.832V536.697H169.026V577.285H160.832V560.373H142.194V577.285H134V536.697Z" fill="black"/>
<path d="M273.422 536.697H282.166L290.893 564.876L298.658 536.697H307.401L295.045 577.285H286.655L273.422 536.697Z" fill="black"/>
<path d="M412.994 577.285L426.356 536.697H433.329L446.857 577.285H438.196L427.748 541.591H432.323L421.517 577.285H412.994ZM420.72 569.558L422.342 563.233H437.564L439.131 569.558H420.72Z" fill="black"/>
<path d="M575.292 578C571.681 578 568.748 577.652 566.493 576.955C564.257 576.24 562.543 575.25 561.351 573.985C560.16 572.72 559.344 571.235 558.904 569.53C558.464 567.825 558.244 565.974 558.244 563.976V550.419C558.244 548.365 558.455 546.468 558.877 544.726C559.317 542.966 560.123 541.436 561.297 540.134C562.488 538.832 564.211 537.824 566.466 537.109C568.72 536.376 571.662 536.009 575.292 536.009C578.756 536.009 581.542 536.367 583.65 537.082C585.777 537.778 587.39 538.768 588.49 540.052C589.589 541.335 590.332 542.847 590.717 544.589C591.102 546.312 591.294 548.2 591.294 550.254V550.749L583.293 551.684V549.621C583.293 547.715 583.055 546.248 582.578 545.221C582.101 544.176 581.286 543.452 580.131 543.049C578.976 542.627 577.363 542.416 575.292 542.416C573.275 542.416 571.607 542.618 570.288 543.021C568.986 543.406 568.015 544.112 567.373 545.139C566.731 546.147 566.411 547.586 566.411 549.456V564.801C566.411 566.652 566.731 568.073 567.373 569.063C568.015 570.034 568.986 570.704 570.288 571.07C571.607 571.419 573.285 571.593 575.319 571.593C577.391 571.593 579.004 571.419 580.158 571.07C581.313 570.704 582.12 570.025 582.578 569.035C583.055 568.027 583.293 566.56 583.293 564.635V563.343H591.294V564.086C591.294 566.084 591.111 567.926 590.744 569.613C590.378 571.299 589.654 572.775 588.572 574.04C587.491 575.287 585.887 576.258 583.76 576.955C581.634 577.652 578.811 578 575.292 578Z" fill="black"/>
</svg>
