<svg width="32" height="32" viewBox="0 0 32 32" fill="none" xmlns="http://www.w3.org/2000/svg">
<rect width="32" height="32" fill="white"/>
<path d="M11.6167 17.3786V25.1774L14.7171 25.5918V26.4058H6.24054V25.5918L8.66896 25.1774V7.03132L6.04199 6.63178V5.81836H14.8851C17.451 5.81836 19.3449 6.25327 20.5667 7.12311C21.7885 7.99347 22.3995 9.39005 22.3995 11.3144C22.3995 12.6858 22.0278 13.8731 21.2845 14.8763C20.5413 15.8687 19.5128 16.5596 18.1994 16.9488L23.7435 25.1774L25.9581 25.5918V26.4058H21.0554L15.2975 17.3786H11.6167ZM19.3601 11.5292C19.3601 9.96343 18.9783 8.85305 18.2146 8.19811C17.4612 7.53291 16.1324 7.20006 14.2284 7.20006H11.6167V15.9969H14.32C16.1426 15.9969 17.4357 15.6589 18.1994 14.9835C18.9732 14.2978 19.3601 13.1463 19.3601 11.5292Z" fill="#1B3345"/>
</svg>
