<svg width="16" height="16" viewBox="0 0 16 16" fill="none" xmlns="http://www.w3.org/2000/svg">
<rect width="16" height="16" fill="#1B3345"/>
<path d="M5.80834 8.68931V12.5887L7.35856 12.7959V13.2029H3.12027V12.7959L4.33448 12.5887V3.51566L3.021 3.31589V2.90918H7.44255C8.72548 2.90918 9.67243 3.12664 10.2834 3.56156C10.8943 3.99673 11.1997 4.69502 11.1997 5.65718C11.1997 6.3429 11.0139 6.93655 10.6423 7.43814C10.2706 7.93435 9.75641 8.27978 9.09969 8.47441L11.8717 12.5887L12.979 12.7959V13.2029H10.5277L7.64873 8.68931H5.80834ZM9.68006 5.76462C9.68006 4.98172 9.48915 4.42653 9.10732 4.09905C8.73058 3.76645 8.06621 3.60003 7.11418 3.60003H5.80834V7.99846H7.16C8.07128 7.99846 8.71785 7.82947 9.09969 7.49174C9.4866 7.14888 9.68006 6.57317 9.68006 5.76462Z" fill="white"/>
</svg>
