<svg width="4954" height="3002" viewBox="0 0 4954 3002" fill="none" xmlns="http://www.w3.org/2000/svg">
<path d="M416.19 2910.9L425.62 2901.83L435.149 2892.98L444.873 2884.56L454.875 2876.77L465.224 2869.76L475.969 2863.63L487.136 2858.44L498.731 2854.21L510.733 2850.9L523.101 2848.4L535.771 2846.58L548.666 2845.26L561.692 2844.23L574.753 2843.28L587.746 2842.19L600.576 2840.72L613.153 2838.69L625.405 2835.93L637.275 2832.32L648.728 2827.78L659.753 2822.27L670.362 2815.84L680.589 2808.55L690.49 2800.53L700.139 2791.95L709.624 2783L719.042 2773.91L728.494 2764.88L738.078 2756.16L747.886 2747.93L757.997 2740.38L768.473 2733.65L779.357 2727.83L790.668 2722.97L802.402 2719.05L814.531 2716.02L827.008 2713.77L839.762 2712.13L852.712 2710.94L865.761 2709.96L878.81 2708.99L891.759 2707.79L904.514 2706.16L916.99 2703.9L929.12 2700.87L940.854 2696.96L952.164 2692.09L963.048 2686.27L973.524 2679.54L983.635 2671.99L993.443 2663.77L1003.03 2655.04L1012.48 2646.02L1021.9 2636.92L1031.38 2627.97L1041.03 2619.39L1050.93 2611.38L1061.16 2604.09L1071.77 2597.65L1082.79 2592.15L1094.25 2587.61L1106.12 2583.99L1118.37 2581.23L1130.95 2579.21L1143.78 2577.74L1156.77 2576.64L1169.83 2575.69L1182.86 2574.67L1195.75 2573.35L1208.42 2571.53L1220.79 2569.03L1232.79 2565.71L1244.39 2561.48L1255.55 2556.3L1266.3 2550.17L1276.65 2543.15L1286.65 2535.36L1296.37 2526.95L1305.9 2518.1L1315.33 2509.03L1324.76 2499.95L1334.29 2491.11L1344.01 2482.69L1354.02 2474.9L1364.36 2467.88L1375.11 2461.75L1386.28 2456.57L1397.87 2452.34L1409.87 2449.03L1422.24 2446.53L1434.91 2444.71L1447.81 2443.39L1460.83 2442.36L1473.89 2441.41L1486.89 2440.32L1499.72 2438.85L1512.29 2436.82L1524.55 2434.06L1536.42 2430.45L1547.87 2425.91L1558.89 2420.4L1569.5 2413.97L1579.73 2406.68L1589.63 2398.66L1599.28 2390.08L1608.76 2381.13L1618.18 2372.04L1627.63 2363.01L1637.22 2354.29L1647.03 2346.06L1657.14 2338.51L1667.61 2331.78L1678.5 2325.96L1689.81 2321.1L1701.54 2317.18L1713.67 2314.15L1726.15 2311.9L1738.9 2310.26L1751.85 2309.07L1764.9 2308.09L1777.95 2307.12L1790.9 2305.92L1803.65 2304.29L1816.13 2302.03L1828.26 2299L1839.99 2295.09L1851.31 2290.22L1862.19 2284.4L1872.66 2277.67L1882.78 2270.12L1892.58 2261.9L1902.17 2253.17L1911.62 2244.15L1921.04 2235.05L1930.52 2226.1L1940.17 2217.52L1950.07 2209.5L1960.3 2202.22L1970.91 2195.78L1981.93 2190.28L1993.39 2185.73L2005.26 2182.12L2017.51 2179.36L2030.09 2177.34L2042.92 2175.87L2055.91 2174.77L2068.97 2173.82L2082 2172.8L2094.89 2171.48L2107.56 2169.66L2119.93 2167.16L2131.93 2163.84L2143.53 2159.61L2154.69 2154.43L2165.44 2148.3L2175.79 2141.28L2185.79 2133.49L2195.51 2125.08L2205.04 2116.23L2214.47 2107.16L2223.9 2098.08L2233.43 2089.24L2243.15 2080.82L2253.16 2073.03L2263.51 2066.01L2274.25 2059.88L2285.42 2054.7L2297.01 2050.47L2309.01 2047.16L2321.38 2044.66L2334.05 2042.84L2346.95 2041.52L2359.97 2040.49L2373.03 2039.54L2386.03 2038.44L2398.86 2036.98L2411.43 2034.95L2423.69 2032.19L2435.56 2028.58L2447.01 2024.04L2458.03 2018.53L2468.64 2012.1L2478.87 2004.81L2488.77 1996.79L2498.42 1988.21L2507.9 1979.26L2517.32 1970.17L2526.77 1961.14L2536.36 1952.42L2546.17 1944.19L2556.28 1936.64L2566.75 1929.91L2577.64 1924.09L2588.95 1919.23L2600.68 1915.31L2612.81 1912.28L2625.29 1910.03L2638.04 1908.39L2650.99 1907.2L2664.04 1906.22L2677.09 1905.25L2690.04 1904.05L2702.79 1902.42L2715.27 1900.16L2727.4 1897.13L2739.13 1893.21L2750.45 1888.35L2761.33 1882.53L2771.81 1875.8L2781.92 1868.25L2791.72 1860.03L2801.31 1851.3L2810.76 1842.28L2820.18 1833.18L2829.66 1824.23L2839.31 1815.65L2849.21 1807.63L2859.44 1800.35L2870.05 1793.91L2881.07 1788.41L2892.53 1783.86L2904.4 1780.25L2916.65 1777.49L2929.23 1775.47L2942.06 1774L2955.05 1772.9L2968.11 1771.95L2981.14 1770.93L2994.03 1769.61L3006.7 1767.79L3019.07 1765.29L3031.07 1761.97L3042.67 1757.74L3053.83 1752.56L3064.58 1746.43L3074.93 1739.41L3084.93 1731.62L3094.65 1723.21L3104.18 1714.36L3113.61 1705.29L3123.04 1696.21L3132.57 1687.37L3142.29 1678.95L3152.3 1671.16L3162.65 1664.14L3173.39 1658.01L3184.56 1652.83L3196.15 1648.6L3208.15 1645.29L3220.52 1642.79L3233.19 1640.97L3246.09 1639.65L3259.11 1638.62L3272.17 1637.67L3285.17 1636.57L3298 1635.11L3310.57 1633.08L3322.83 1630.32L3334.7 1626.71L3346.15 1622.17L3357.18 1616.66L3367.78 1610.23L3378.01 1602.94L3387.91 1594.92L3397.56 1586.34L3407.05 1577.39L3416.46 1568.3L3425.92 1559.27L3435.5 1550.55L3445.31 1542.32L3455.42 1534.77L3465.89 1528.04L3476.78 1522.22L3488.09 1517.36L3499.82 1513.44L3511.95 1510.41L3524.43 1508.16L3537.18 1506.52L3550.13 1505.33L3563.18 1504.35L3576.23 1503.38L3589.18 1502.18L3601.94 1500.55L3614.41 1498.29L3626.54 1495.26L3638.28 1491.34L3649.59 1486.48L3660.47 1480.66L3670.95 1473.93L3681.06 1466.38L3690.87 1458.16L3700.45 1449.43L3709.9 1440.41L3719.32 1431.31L3728.8 1422.36L3738.45 1413.78L3748.35 1405.76L3758.58 1398.48L3769.19 1392.04L3780.21 1386.54L3791.67 1381.99L3803.54 1378.38L3815.79 1375.62L3828.37 1373.6L3841.2 1372.13L3854.19 1371.03L3867.25 1370.08L3880.28 1369.06L3893.17 1367.74L3905.84 1365.92L3918.21 1363.42L3930.21 1360.1L3941.81 1355.87L3952.97 1350.69L3963.72 1344.56L3974.07 1337.54L3984.07 1329.75L3993.79 1321.34L4003.32 1312.49L4012.75 1303.42L4022.18 1294.34L4031.71 1285.5L4041.44 1277.08L4051.44 1269.29L4061.79 1262.27L4072.53 1256.14L4083.7 1250.96L4095.29 1246.73L4107.3 1243.42L4119.66 1240.92L4132.33 1239.1L4145.23 1237.78L4158.25 1236.75L4171.32 1235.8L4184.31 1234.7L4197.14 1233.24L4209.72 1231.21L4221.97 1228.45L4233.84 1224.84L4245.29 1220.3L4256.32 1214.79L4266.92 1208.36L4277.15 1201.07L4287.05 1193.05L4296.7 1184.47L4306.19 1175.52L4315.6 1166.42L4325.06 1157.4L4334.64 1148.68L4344.45 1140.45L4354.56 1132.9L4365.04 1126.17L4375.92 1120.35L4387.23 1115.49L4398.96 1111.57L4411.09 1108.54L4423.57 1106.29L4436.32 1104.65L4449.27 1103.46L4462.32 1102.48L4475.37 1101.51L4488.32 1100.31L4501.08 1098.68L4513.55 1096.42L4525.68 1093.39L4537.42 1089.47L4548.73 1084.61L4559.61 1078.79L4570.09 1072.06L4580.2 1064.51L4590.01 1056.29L4599.59 1047.56L4609.04 1038.54L4618.46 1029.44L4627.94 1020.49L4637.59 1011.91L4647.49 1003.89L4657.72 996.605L4668.33 990.171L4679.36 984.668L4690.81 980.124L4702.68 976.512L4714.93 973.754L4727.51 971.725L4740.34 970.259L4753.33 969.16L4766.39 968.212L4779.42 967.187L4792.31 965.867L4804.98 964.046L4817.35 961.547L4829.35 958.231L4840.95 954.003L4852.12 948.82L4862.86 942.689L4873.21 935.674L4883.21 927.882L4892.93 919.468L4902.46 910.619" stroke="#D81F05" stroke-opacity="0.03" stroke-width="36" stroke-miterlimit="10" stroke-linecap="round" stroke-linejoin="round"/>
<path d="M285.616 2618.75L295.046 2609.68L304.575 2600.83L314.299 2592.41L324.301 2584.62L334.65 2577.61L345.394 2571.48L356.562 2566.29L368.157 2562.07L380.159 2558.75L392.527 2556.25L405.197 2554.43L418.092 2553.11L431.118 2552.09L444.179 2551.14L457.172 2550.04L470.001 2548.57L482.579 2546.54L494.831 2543.79L506.701 2540.17L518.154 2535.63L529.179 2530.13L539.788 2523.69L550.014 2516.4L559.915 2508.39L569.565 2499.8L579.05 2490.86L588.468 2481.76L597.92 2472.74L607.504 2464.01L617.312 2455.78L627.423 2448.24L637.899 2441.51L648.783 2435.69L660.093 2430.82L671.827 2426.91L683.957 2423.88L696.434 2421.62L709.188 2419.99L722.137 2418.79L735.186 2417.82L748.236 2416.84L761.185 2415.64L773.939 2414.01L786.416 2411.76L798.545 2408.72L810.279 2404.81L821.59 2399.94L832.474 2394.13L842.95 2387.4L853.061 2379.85L862.869 2371.62L872.453 2362.9L881.905 2353.87L891.323 2344.77L900.808 2335.83L910.458 2327.25L920.358 2319.23L930.585 2311.94L941.194 2305.5L952.219 2300L963.672 2295.46L975.542 2291.85L987.794 2289.09L1000.37 2287.06L1013.2 2285.59L1026.19 2284.49L1039.25 2283.55L1052.28 2282.52L1065.18 2281.2L1077.85 2279.38L1090.21 2276.88L1102.22 2273.56L1113.81 2269.34L1124.98 2264.15L1135.72 2258.02L1146.07 2251.01L1156.07 2243.22L1165.8 2234.8L1175.33 2225.95L1184.76 2216.88L1194.19 2207.81L1203.72 2198.96L1213.44 2190.54L1223.44 2182.75L1233.79 2175.74L1244.53 2169.61L1255.7 2164.42L1267.3 2160.2L1279.3 2156.88L1291.67 2154.38L1304.34 2152.56L1317.23 2151.24L1330.26 2150.22L1343.32 2149.27L1356.31 2148.17L1369.14 2146.7L1381.72 2144.67L1393.97 2141.92L1405.84 2138.3L1417.29 2133.76L1428.32 2128.26L1438.93 2121.82L1449.15 2114.53L1459.06 2106.52L1468.71 2097.93L1478.19 2088.99L1487.61 2079.89L1497.06 2070.87L1506.64 2062.14L1516.45 2053.91L1526.56 2046.37L1537.04 2039.63L1547.92 2033.82L1559.23 2028.95L1570.97 2025.04L1583.1 2022.01L1595.57 2019.75L1608.33 2018.12L1621.28 2016.92L1634.33 2015.95L1647.38 2014.97L1660.33 2013.77L1673.08 2012.14L1685.56 2009.88L1697.69 2006.85L1709.42 2002.94L1720.73 1998.07L1731.61 1992.26L1742.09 1985.52L1752.2 1977.98L1762.01 1969.75L1771.59 1961.02L1781.05 1952L1790.46 1942.9L1799.95 1933.96L1809.6 1925.38L1819.5 1917.36L1829.73 1910.07L1840.33 1903.63L1851.36 1898.13L1862.81 1893.59L1874.68 1889.98L1886.93 1887.22L1899.51 1885.19L1912.34 1883.72L1925.33 1882.62L1938.4 1881.67L1951.42 1880.65L1964.32 1879.33L1976.99 1877.51L1989.35 1875.01L2001.36 1871.69L2012.95 1867.47L2024.12 1862.28L2034.86 1856.15L2045.21 1849.14L2055.21 1841.35L2064.94 1832.93L2074.47 1824.08L2083.9 1815.01L2093.33 1805.94L2102.86 1797.09L2112.58 1788.67L2122.58 1780.88L2132.93 1773.87L2143.68 1767.74L2154.84 1762.55L2166.44 1758.33L2178.44 1755.01L2190.81 1752.51L2203.48 1750.69L2216.37 1749.37L2229.4 1748.35L2242.46 1747.4L2255.45 1746.3L2268.28 1744.83L2280.86 1742.8L2293.11 1740.04L2304.98 1736.43L2316.44 1731.89L2327.46 1726.39L2338.07 1719.95L2348.3 1712.66L2358.2 1704.64L2367.85 1696.06L2377.33 1687.12L2386.75 1678.02L2396.2 1669L2405.78 1660.27L2415.59 1652.04L2425.7 1644.5L2436.18 1637.76L2447.06 1631.95L2458.37 1627.08L2470.11 1623.17L2482.24 1620.14L2494.71 1617.88L2507.47 1616.25L2520.42 1615.05L2533.47 1614.07L2546.52 1613.1L2559.47 1611.9L2572.22 1610.27L2584.7 1608.01L2596.83 1604.98L2608.56 1601.07L2619.87 1596.2L2630.76 1590.39L2641.23 1583.65L2651.34 1576.11L2661.15 1567.88L2670.73 1559.15L2680.19 1550.13L2689.6 1541.03L2699.09 1532.09L2708.74 1523.5L2718.64 1515.49L2728.87 1508.2L2739.47 1501.76L2750.5 1496.26L2761.95 1491.72L2773.82 1488.1L2786.08 1485.35L2798.65 1483.32L2811.48 1481.85L2824.48 1480.75L2837.54 1479.8L2850.56 1478.78L2863.46 1477.46L2876.13 1475.64L2888.49 1473.14L2900.5 1469.82L2912.09 1465.6L2923.26 1460.41L2934 1454.28L2944.35 1447.27L2954.36 1439.48L2964.08 1431.06L2973.61 1422.21L2983.04 1413.14L2992.47 1404.07L3002 1395.22L3011.72 1386.8L3021.72 1379.01L3032.07 1372L3042.82 1365.87L3053.98 1360.68L3065.58 1356.46L3077.58 1353.14L3089.95 1350.64L3102.62 1348.82L3115.51 1347.5L3128.54 1346.47L3141.6 1345.53L3154.59 1344.43L3167.42 1342.96L3180 1340.93L3192.25 1338.17L3204.12 1334.56L3215.58 1330.02L3226.6 1324.52L3237.21 1318.08L3247.44 1310.79L3257.34 1302.77L3266.99 1294.19L3276.47 1285.25L3285.89 1276.15L3295.34 1267.12L3304.93 1258.4L3314.73 1250.17L3324.84 1242.62L3335.32 1235.89L3346.2 1230.08L3357.52 1225.21L3369.25 1221.3L3381.38 1218.26L3393.86 1216.01L3406.61 1214.38L3419.56 1213.18L3432.61 1212.2L3445.66 1211.23L3458.61 1210.03L3471.36 1208.4L3483.84 1206.14L3495.97 1203.11L3507.7 1199.2L3519.01 1194.33L3529.9 1188.51L3540.37 1181.78L3550.48 1174.24L3560.29 1166.01L3569.87 1157.28L3579.33 1148.26L3588.74 1139.16L3598.23 1130.22L3607.88 1121.63L3617.78 1113.62L3628.01 1106.33L3638.62 1099.89L3649.64 1094.39L3661.09 1089.85L3672.96 1086.23L3685.22 1083.48L3697.79 1081.45L3710.62 1079.98L3723.62 1078.88L3736.68 1077.93L3749.7 1076.91L3762.6 1075.59L3775.27 1073.77L3787.64 1071.27L3799.64 1067.95L3811.23 1063.73L3822.4 1058.54L3833.14 1052.41L3843.49 1045.4L3853.5 1037.61L3863.22 1029.19L3872.75 1020.34L3882.18 1011.27L3891.61 1002.2L3901.14 993.348L3910.86 984.934L3920.86 977.143L3931.21 970.127L3941.96 963.997L3953.12 958.813L3964.72 954.585L3976.72 951.269L3989.09 948.77L4001.76 946.949L4014.65 945.629L4027.68 944.605L4040.74 943.656L4053.73 942.557L4066.56 941.091L4079.14 939.062L4091.39 936.304L4103.26 932.692L4114.72 928.148L4125.74 922.645L4136.35 916.211L4146.58 908.922L4156.48 900.904L4166.13 892.323L4175.61 883.375L4185.03 874.277L4194.48 865.255L4204.07 856.528L4213.87 848.302L4223.98 840.755L4234.46 834.024L4245.34 828.205L4256.66 823.342L4268.39 819.425L4280.52 816.395L4293 814.139L4305.75 812.506L4318.7 811.308L4331.75 810.334L4344.8 809.36L4357.75 808.163L4370.5 806.53L4382.98 804.274L4395.11 801.243L4406.84 797.327L4418.15 792.463L4429.04 786.645L4439.51 779.914L4449.62 772.366L4459.43 764.141L4469.02 755.414L4478.47 746.391L4487.89 737.294L4497.37 728.346L4507.02 719.764L4516.92 711.747L4527.15 704.458L4537.76 698.023L4548.78 692.521L4560.23 687.976L4572.1 684.364L4584.36 681.606L4596.93 679.577L4609.76 678.112L4622.76 677.013L4635.82 676.064L4648.84 675.04L4661.74 673.72L4674.41 671.899L4686.78 669.4L4698.78 666.084L4710.37 661.856L4721.54 656.672L4732.29 650.542L4742.63 643.526L4752.64 635.735L4762.36 627.321L4771.89 618.472" stroke="#D81F05" stroke-opacity="0.03" stroke-width="36" stroke-miterlimit="10" stroke-linecap="round" stroke-linejoin="round"/>
<path d="M155.04 2326.6L164.469 2317.53L173.999 2308.68L183.723 2300.27L193.725 2292.48L204.074 2285.46L214.818 2279.33L225.986 2274.15L237.581 2269.92L249.583 2266.6L261.95 2264.1L274.621 2262.28L287.515 2260.96L300.542 2259.94L313.602 2258.99L326.596 2257.89L339.425 2256.42L352.003 2254.4L364.255 2251.64L376.125 2248.03L387.578 2243.48L398.603 2237.98L409.212 2231.54L419.438 2224.26L429.339 2216.24L438.988 2207.66L448.473 2198.71L457.892 2189.61L467.343 2180.59L476.928 2171.86L486.736 2163.64L496.847 2156.09L507.323 2149.36L518.206 2143.54L529.517 2138.68L541.251 2134.76L553.381 2131.73L565.857 2129.47L578.612 2127.84L591.561 2126.64L604.61 2125.67L617.659 2124.69L630.609 2123.5L643.363 2121.86L655.84 2119.61L667.969 2116.58L679.703 2112.66L691.014 2107.8L701.898 2101.98L712.374 2095.25L722.485 2087.7L732.293 2079.47L741.877 2070.75L751.329 2061.73L760.747 2052.63L770.232 2043.68L779.881 2035.1L789.782 2027.08L800.009 2019.79L810.618 2013.36L821.643 2007.85L833.096 2003.31L844.966 1999.7L857.218 1996.94L869.795 1994.91L882.625 1993.45L895.618 1992.35L908.679 1991.4L921.705 1990.37L934.6 1989.05L947.27 1987.23L959.638 1984.73L971.64 1981.42L983.235 1977.19L994.402 1972.01L1005.15 1965.88L1015.5 1958.86L1025.5 1951.07L1035.22 1942.65L1044.75 1933.81L1054.18 1924.73L1063.61 1915.66L1073.14 1906.81L1082.86 1898.4L1092.87 1890.61L1103.21 1883.59L1113.96 1877.46L1125.13 1872.28L1136.72 1868.05L1148.72 1864.73L1161.09 1862.23L1173.76 1860.41L1186.66 1859.09L1199.68 1858.07L1212.74 1857.12L1225.74 1856.02L1238.57 1854.55L1251.14 1852.53L1263.4 1849.77L1275.27 1846.16L1286.72 1841.61L1297.74 1836.11L1308.35 1829.67L1318.58 1822.39L1328.48 1814.37L1338.13 1805.79L1347.61 1796.84L1357.03 1787.74L1366.48 1778.72L1376.07 1769.99L1385.88 1761.77L1395.99 1754.22L1406.46 1747.49L1417.35 1741.67L1428.66 1736.81L1440.39 1732.89L1452.52 1729.86L1465 1727.6L1477.75 1725.97L1490.7 1724.77L1503.75 1723.8L1516.8 1722.82L1529.75 1721.63L1542.5 1719.99L1554.98 1717.74L1567.11 1714.71L1578.84 1710.79L1590.15 1705.93L1601.04 1700.11L1611.51 1693.38L1621.63 1685.83L1631.43 1677.6L1641.02 1668.88L1650.47 1659.85L1659.89 1650.76L1669.37 1641.81L1679.02 1633.23L1688.92 1625.21L1699.15 1617.92L1709.76 1611.49L1720.78 1605.98L1732.24 1601.44L1744.11 1597.83L1756.36 1595.07L1768.94 1593.04L1781.77 1591.58L1794.76 1590.48L1807.82 1589.53L1820.85 1588.5L1833.74 1587.18L1846.41 1585.36L1858.78 1582.86L1870.78 1579.55L1882.38 1575.32L1893.54 1570.14L1904.29 1564.01L1914.64 1556.99L1924.64 1549.2L1934.36 1540.78L1943.89 1531.94L1953.32 1522.86L1962.75 1513.79L1972.28 1504.94L1982 1496.53L1992.01 1488.74L2002.35 1481.72L2013.1 1475.59L2024.27 1470.41L2035.86 1466.18L2047.86 1462.86L2060.23 1460.36L2072.9 1458.54L2085.8 1457.22L2098.82 1456.2L2111.88 1455.25L2124.88 1454.15L2137.71 1452.68L2150.28 1450.66L2162.54 1447.9L2174.41 1444.29L2185.86 1439.74L2196.88 1434.24L2207.49 1427.8L2217.72 1420.52L2227.62 1412.5L2237.27 1403.92L2246.75 1394.97L2256.17 1385.87L2265.62 1376.85L2275.21 1368.12L2285.02 1359.9L2295.13 1352.35L2305.6 1345.62L2316.49 1339.8L2327.8 1334.94L2339.53 1331.02L2351.66 1327.99L2364.14 1325.73L2376.89 1324.1L2389.84 1322.9L2402.89 1321.93L2415.94 1320.95L2428.89 1319.76L2441.64 1318.12L2454.12 1315.87L2466.25 1312.84L2477.98 1308.92L2489.3 1304.06L2500.18 1298.24L2510.66 1291.51L2520.77 1283.96L2530.57 1275.73L2540.16 1267.01L2549.61 1257.98L2559.03 1248.89L2568.51 1239.94L2578.16 1231.36L2588.06 1223.34L2598.29 1216.05L2608.9 1209.62L2619.92 1204.11L2631.38 1199.57L2643.25 1195.96L2655.5 1193.2L2668.08 1191.17L2680.91 1189.7L2693.9 1188.61L2706.96 1187.66L2719.99 1186.63L2732.88 1185.31L2745.55 1183.49L2757.92 1180.99L2769.92 1177.68L2781.52 1173.45L2792.68 1168.27L2803.43 1162.14L2813.78 1155.12L2823.78 1147.33L2833.5 1138.91L2843.03 1130.07L2852.46 1120.99L2861.89 1111.92L2871.42 1103.07L2881.14 1094.66L2891.15 1086.87L2901.5 1079.85L2912.24 1073.72L2923.41 1068.54L2935 1064.31L2947 1060.99L2959.37 1058.49L2972.04 1056.67L2984.94 1055.35L2997.96 1054.33L3011.02 1053.38L3024.02 1052.28L3036.85 1050.81L3049.42 1048.79L3061.68 1046.03L3073.55 1042.42L3085 1037.87L3096.02 1032.37L3106.63 1025.93L3116.86 1018.64L3126.76 1010.63L3136.41 1002.05L3145.9 993.098L3155.31 984L3164.77 974.977L3174.35 966.251L3184.16 958.025L3194.27 950.477L3204.74 943.747L3215.63 937.928L3226.94 933.065L3238.67 929.148L3250.8 926.117L3263.28 923.862L3276.03 922.229L3288.98 921.031L3302.03 920.057L3315.08 919.083L3328.03 917.885L3340.78 916.252L3353.26 913.997L3365.39 910.966L3377.12 907.05L3388.44 902.186L3399.32 896.367L3409.8 889.637L3419.91 882.089L3429.71 873.863L3439.3 865.137L3448.75 856.114L3458.17 847.016L3467.65 838.068L3477.3 829.487L3487.2 821.47L3497.43 814.181L3508.04 807.746L3519.06 802.243L3530.52 797.699L3542.39 794.087L3554.64 791.329L3567.22 789.3L3580.05 787.835L3593.04 786.736L3606.1 785.787L3619.13 784.763L3632.02 783.443L3644.69 781.621L3657.06 779.123L3669.06 775.806L3680.66 771.578L3691.82 766.395L3702.57 760.265L3712.92 753.249L3722.92 745.458L3732.64 737.044L3742.17 728.195L3751.6 719.122L3761.03 710.049L3770.56 701.2L3780.28 692.786L3790.29 684.995L3800.64 677.979L3811.38 671.849L3822.55 666.666L3834.14 662.438L3846.15 659.122L3858.51 656.623L3871.18 654.801L3884.08 653.481L3897.1 652.457L3910.16 651.508L3923.16 650.409L3935.99 648.944L3948.56 646.915L3960.82 644.157L3972.69 640.545L3984.14 636.001L3995.17 630.498L4005.77 624.063L4016 616.775L4025.9 608.757L4035.55 600.176L4045.04 591.228L4054.45 582.13L4063.91 573.107L4073.49 564.381L4083.3 556.155L4093.41 548.607L4103.88 541.877L4114.77 536.058L4126.08 531.195L4137.81 527.278L4149.94 524.247L4162.42 521.992L4175.17 520.359L4188.12 519.161L4201.17 518.187L4214.22 517.213L4227.17 516.015L4239.93 514.382L4252.4 512.127L4264.53 509.096L4276.27 505.179L4287.58 500.316L4298.46 494.497L4308.94 487.767L4319.05 480.219L4328.86 471.993L4338.44 463.267L4347.89 454.244L4357.31 445.146L4366.79 436.198L4376.44 427.617L4386.34 419.599L4396.57 412.31L4407.18 405.876L4418.2 400.373L4429.66 395.829L4441.53 392.217L4453.78 389.459L4466.36 387.43L4479.19 385.964L4492.18 384.866L4505.24 383.917L4518.27 382.893L4531.16 381.572L4543.83 379.751L4556.2 377.252L4568.2 373.936L4579.8 369.708L4590.96 364.525L4601.71 358.395L4612.06 351.379L4622.06 343.587L4631.78 335.173L4641.31 326.325" stroke="#D81F05" stroke-opacity="0.03" stroke-width="36" stroke-miterlimit="10" stroke-linecap="round" stroke-linejoin="round"/>
<path d="M448.835 2983.94L458.264 2974.86L467.794 2966.01L477.518 2957.6L487.52 2949.81L497.868 2942.79L508.613 2936.66L519.781 2931.48L531.376 2927.25L543.378 2923.93L555.745 2921.44L568.416 2919.61L581.31 2918.29L594.337 2917.27L607.397 2916.32L620.391 2915.22L633.22 2913.76L645.798 2911.73L658.049 2908.97L669.919 2905.36L681.373 2900.81L692.398 2895.31L703.006 2888.88L713.233 2881.59L723.134 2873.57L732.783 2864.99L742.268 2856.04L751.687 2846.94L761.138 2837.92L770.722 2829.19L780.531 2820.97L790.641 2813.42L801.118 2806.69L812.001 2800.87L823.312 2796.01L835.046 2792.09L847.176 2789.06L859.652 2786.8L872.407 2785.17L885.356 2783.97L898.405 2783L911.454 2782.03L924.403 2780.83L937.158 2779.2L949.634 2776.94L961.764 2773.91L973.498 2769.99L984.809 2765.13L995.693 2759.31L1006.17 2752.58L1016.28 2745.03L1026.09 2736.81L1035.67 2728.08L1045.12 2719.06L1054.54 2709.96L1064.03 2701.01L1073.68 2692.43L1083.58 2684.41L1093.8 2677.12L1104.41 2670.69L1115.44 2665.19L1126.89 2660.64L1138.76 2657.03L1151.01 2654.27L1163.59 2652.24L1176.42 2650.78L1189.41 2649.68L1202.47 2648.73L1215.5 2647.71L1228.39 2646.39L1241.07 2644.56L1253.43 2642.07L1265.43 2638.75L1277.03 2634.52L1288.2 2629.34L1298.94 2623.21L1309.29 2616.19L1319.29 2608.4L1329.02 2599.99L1338.55 2591.14L1347.98 2582.06L1357.4 2572.99L1366.93 2564.14L1376.66 2555.73L1386.66 2547.94L1397.01 2540.92L1407.75 2534.79L1418.92 2529.61L1430.52 2525.38L1442.52 2522.06L1454.89 2519.57L1467.56 2517.74L1480.45 2516.42L1493.48 2515.4L1506.54 2514.45L1519.53 2513.35L1532.36 2511.89L1544.94 2509.86L1557.19 2507.1L1569.06 2503.49L1580.51 2498.94L1591.54 2493.44L1602.15 2487.01L1612.37 2479.72L1622.27 2471.7L1631.92 2463.12L1641.41 2454.17L1650.83 2445.07L1660.28 2436.05L1669.86 2427.32L1679.67 2419.1L1689.78 2411.55L1700.26 2404.82L1711.14 2399L1722.45 2394.14L1734.19 2390.22L1746.32 2387.19L1758.79 2384.93L1771.55 2383.3L1784.5 2382.1L1797.55 2381.13L1810.59 2380.16L1823.54 2378.96L1836.3 2377.33L1848.77 2375.07L1860.9 2372.04L1872.64 2368.12L1883.95 2363.26L1894.83 2357.44L1905.31 2350.71L1915.42 2343.16L1925.23 2334.94L1934.81 2326.21L1944.26 2317.19L1953.68 2308.09L1963.17 2299.14L1972.82 2290.56L1982.72 2282.54L1992.94 2275.25L2003.55 2268.82L2014.58 2263.32L2026.03 2258.77L2037.9 2255.16L2050.15 2252.4L2062.73 2250.37L2075.56 2248.91L2088.55 2247.81L2101.61 2246.86L2114.64 2245.84L2127.54 2244.52L2140.21 2242.69L2152.57 2240.2L2164.58 2236.88L2176.17 2232.65L2187.34 2227.47L2198.08 2221.34L2208.43 2214.32L2218.43 2206.53L2228.16 2198.12L2237.69 2189.27L2247.12 2180.19L2256.55 2171.12L2266.07 2162.27L2275.8 2153.86L2285.8 2146.07L2296.15 2139.05L2306.89 2132.92L2318.06 2127.74L2329.66 2123.51L2341.66 2120.19L2354.03 2117.7L2366.7 2115.87L2379.59 2114.55L2392.62 2113.53L2405.68 2112.58L2418.67 2111.48L2431.5 2110.02L2444.08 2107.99L2456.33 2105.23L2468.2 2101.62L2479.65 2097.07L2490.68 2091.57L2501.29 2085.14L2511.51 2077.85L2521.42 2069.83L2531.06 2061.25L2540.55 2052.3L2549.97 2043.2L2559.42 2034.18L2569 2025.45L2578.81 2017.23L2588.92 2009.68L2599.4 2002.95L2610.28 1997.13L2621.59 1992.27L2633.33 1988.35L2645.46 1985.32L2657.93 1983.06L2670.69 1981.43L2683.64 1980.23L2696.69 1979.26L2709.74 1978.29L2722.68 1977.09L2735.44 1975.45L2747.92 1973.2L2760.05 1970.17L2771.78 1966.25L2783.09 1961.39L2793.97 1955.57L2804.45 1948.84L2814.56 1941.29L2824.37 1933.07L2833.95 1924.34L2843.4 1915.32L2852.82 1906.22L2862.31 1897.27L2871.96 1888.69L2881.86 1880.67L2892.09 1873.38L2902.69 1866.95L2913.72 1861.45L2925.17 1856.9L2937.04 1853.29L2949.29 1850.53L2961.87 1848.5L2974.7 1847.04L2987.69 1845.94L3000.75 1844.99L3013.78 1843.97L3026.68 1842.64L3039.35 1840.82L3051.71 1838.32L3063.72 1835.01L3075.31 1830.78L3086.48 1825.6L3097.22 1819.47L3107.57 1812.45L3117.57 1804.66L3127.3 1796.25L3136.83 1787.4L3146.26 1778.32L3155.69 1769.25L3165.22 1760.4L3174.94 1751.99L3184.94 1744.2L3195.29 1737.18L3206.03 1731.05L3217.2 1725.87L3228.8 1721.64L3240.8 1718.32L3253.17 1715.82L3265.84 1714L3278.73 1712.68L3291.76 1711.66L3304.82 1710.71L3317.81 1709.61L3330.64 1708.15L3343.22 1706.12L3355.47 1703.36L3367.34 1699.75L3378.79 1695.2L3389.82 1689.7L3400.43 1683.27L3410.65 1675.98L3420.56 1667.96L3430.2 1659.38L3439.69 1650.43L3449.11 1641.33L3458.56 1632.31L3468.14 1623.58L3477.95 1615.36L3488.06 1607.81L3498.54 1601.08L3509.42 1595.26L3520.73 1590.4L3532.47 1586.48L3544.6 1583.45L3557.07 1581.19L3569.83 1579.56L3582.78 1578.36L3595.83 1577.39L3608.88 1576.42L3621.83 1575.22L3634.58 1573.58L3647.06 1571.33L3659.19 1568.3L3670.92 1564.38L3682.23 1559.52L3693.11 1553.7L3703.59 1546.97L3713.7 1539.42L3723.51 1531.2L3733.09 1522.47L3742.55 1513.45L3751.96 1504.35L3761.45 1495.4L3771.1 1486.82L3781 1478.8L3791.23 1471.51L3801.83 1465.08L3812.86 1459.58L3824.31 1455.03L3836.18 1451.42L3848.43 1448.66L3861.01 1446.63L3873.84 1445.17L3886.83 1444.07L3899.9 1443.12L3912.92 1442.09L3925.82 1440.77L3938.49 1438.95L3950.85 1436.45L3962.86 1433.14L3974.45 1428.91L3985.62 1423.73L3996.36 1417.6L4006.71 1410.58L4016.71 1402.79L4026.44 1394.38L4035.97 1385.53L4045.4 1376.45L4054.83 1367.38L4064.36 1358.53L4074.08 1350.12L4084.08 1342.33L4094.43 1335.31L4105.18 1329.18L4116.34 1324L4127.94 1319.77L4139.94 1316.45L4152.31 1313.95L4164.98 1312.13L4177.87 1310.81L4190.9 1309.79L4203.96 1308.84L4216.95 1307.74L4229.78 1306.28L4242.36 1304.25L4254.61 1301.49L4266.48 1297.88L4277.94 1293.33L4288.96 1287.83L4299.57 1281.4L4309.8 1274.11L4319.7 1266.09L4329.35 1257.51L4338.83 1248.56L4348.25 1239.46L4357.7 1230.44L4367.28 1221.71L4377.09 1213.49L4387.2 1205.94L4397.68 1199.21L4408.56 1193.39L4419.87 1188.53L4431.61 1184.61L4443.74 1181.58L4456.21 1179.32L4468.97 1177.69L4481.92 1176.49L4494.97 1175.52L4508.02 1174.54L4520.97 1173.35L4533.72 1171.71L4546.2 1169.46L4558.33 1166.43L4570.06 1162.51L4581.37 1157.65L4592.25 1151.83L4602.73 1145.1L4612.84 1137.55L4622.65 1129.33L4632.23 1120.6L4641.69 1111.58L4651.1 1102.48L4660.59 1093.53L4670.24 1084.95L4680.14 1076.93L4690.37 1069.64L4700.97 1063.21L4712 1057.71L4723.45 1053.16L4735.32 1049.55L4747.57 1046.79L4760.15 1044.76L4772.98 1043.3L4785.98 1042.2L4799.04 1041.25L4812.06 1040.22L4824.96 1038.9L4837.63 1037.08L4849.99 1034.58L4862 1031.27L4873.59 1027.04L4884.76 1021.86L4895.5 1015.73L4905.85 1008.71L4915.85 1000.92L4925.58 992.506L4935.11 983.657" stroke="#D81F05" stroke-opacity="0.03" stroke-width="36" stroke-miterlimit="10" stroke-linecap="round" stroke-linejoin="round"/>
<path d="M318.259 2691.79L327.688 2682.71L337.218 2673.87L346.941 2665.45L356.944 2657.66L367.292 2650.64L378.037 2644.51L389.205 2639.33L400.799 2635.1L412.802 2631.79L425.169 2629.29L437.84 2627.47L450.734 2626.15L463.761 2625.12L476.821 2624.17L489.815 2623.08L502.644 2621.61L515.221 2619.58L527.473 2616.82L539.343 2613.21L550.797 2608.67L561.822 2603.16L572.43 2596.73L582.657 2589.44L592.558 2581.42L602.207 2572.84L611.692 2563.89L621.11 2554.8L630.562 2545.77L640.146 2537.05L649.954 2528.82L660.065 2521.27L670.542 2514.54L681.425 2508.72L692.736 2503.86L704.47 2499.94L716.6 2496.91L729.076 2494.66L741.831 2493.02L754.78 2491.83L767.829 2490.85L780.878 2489.88L793.827 2488.68L806.582 2487.05L819.058 2484.79L831.188 2481.76L842.922 2477.84L854.233 2472.98L865.117 2467.16L875.593 2460.43L885.704 2452.88L895.512 2444.66L905.096 2435.93L914.548 2426.91L923.966 2417.81L933.451 2408.86L943.1 2400.28L953.001 2392.26L963.228 2384.98L973.836 2378.54L984.861 2373.04L996.315 2368.49L1008.18 2364.88L1020.44 2362.12L1033.01 2360.1L1045.84 2358.63L1058.84 2357.53L1071.9 2356.58L1084.92 2355.56L1097.82 2354.24L1110.49 2352.42L1122.86 2349.92L1134.86 2346.6L1146.45 2342.37L1157.62 2337.19L1168.37 2331.06L1178.71 2324.04L1188.72 2316.25L1198.44 2307.84L1207.97 2298.99L1217.4 2289.92L1226.83 2280.84L1236.36 2272L1246.08 2263.58L1256.08 2255.79L1266.43 2248.77L1277.18 2242.64L1288.35 2237.46L1299.94 2233.23L1311.94 2229.92L1324.31 2227.42L1336.98 2225.6L1349.87 2224.28L1362.9 2223.25L1375.96 2222.3L1388.96 2221.2L1401.78 2219.74L1414.36 2217.71L1426.61 2214.95L1438.48 2211.34L1449.94 2206.8L1460.96 2201.29L1471.57 2194.86L1481.8 2187.57L1491.7 2179.55L1501.35 2170.97L1510.83 2162.02L1520.25 2152.93L1529.7 2143.9L1539.29 2135.18L1549.09 2126.95L1559.21 2119.4L1569.68 2112.67L1580.57 2106.85L1591.88 2101.99L1603.61 2098.07L1615.74 2095.04L1628.22 2092.79L1640.97 2091.15L1653.92 2089.96L1666.97 2088.98L1680.02 2088.01L1692.97 2086.81L1705.72 2085.18L1718.2 2082.92L1730.33 2079.89L1742.06 2075.97L1753.37 2071.11L1764.26 2065.29L1774.73 2058.56L1784.84 2051.01L1794.65 2042.79L1804.24 2034.06L1813.69 2025.04L1823.11 2015.94L1832.59 2006.99L1842.24 1998.41L1852.14 1990.39L1862.37 1983.11L1872.98 1976.67L1884 1971.17L1895.46 1966.62L1907.33 1963.01L1919.58 1960.25L1932.15 1958.23L1944.98 1956.76L1957.98 1955.66L1971.04 1954.71L1984.06 1953.69L1996.96 1952.37L2009.63 1950.55L2022 1948.05L2034 1944.73L2045.59 1940.5L2056.76 1935.32L2067.51 1929.19L2077.86 1922.17L2087.86 1914.38L2097.58 1905.97L2107.11 1897.12L2116.54 1888.05L2125.97 1878.97L2135.5 1870.13L2145.22 1861.71L2155.22 1853.92L2165.57 1846.9L2176.32 1840.77L2187.49 1835.59L2199.08 1831.36L2211.08 1828.05L2223.45 1825.55L2236.12 1823.73L2249.02 1822.41L2262.04 1821.38L2275.1 1820.43L2288.1 1819.33L2300.92 1817.87L2313.5 1815.84L2325.75 1813.08L2337.62 1809.47L2349.08 1804.93L2360.1 1799.42L2370.71 1792.99L2380.94 1785.7L2390.84 1777.68L2400.49 1769.1L2409.97 1760.15L2419.39 1751.05L2428.84 1742.03L2438.43 1733.31L2448.24 1725.08L2458.35 1717.53L2468.82 1710.8L2479.71 1704.98L2491.02 1700.12L2502.75 1696.2L2514.88 1693.17L2527.36 1690.92L2540.11 1689.28L2553.06 1688.09L2566.11 1687.11L2579.16 1686.14L2592.11 1684.94L2604.86 1683.31L2617.34 1681.05L2629.47 1678.02L2641.2 1674.1L2652.51 1669.24L2663.4 1663.42L2673.87 1656.69L2683.98 1649.14L2693.79 1640.92L2703.38 1632.19L2712.83 1623.17L2722.25 1614.07L2731.73 1605.12L2741.38 1596.54L2751.28 1588.52L2761.51 1581.24L2772.12 1574.8L2783.14 1569.3L2794.6 1564.75L2806.47 1561.14L2818.72 1558.38L2831.3 1556.36L2844.12 1554.89L2857.12 1553.79L2870.18 1552.84L2883.21 1551.82L2896.1 1550.5L2908.77 1548.68L2921.14 1546.18L2933.14 1542.86L2944.73 1538.63L2955.9 1533.45L2966.65 1527.32L2977 1520.3L2987 1512.51L2996.72 1504.1L3006.25 1495.25L3015.68 1486.18L3025.11 1477.1L3034.64 1468.26L3044.36 1459.84L3054.37 1452.05L3064.71 1445.03L3075.46 1438.9L3086.63 1433.72L3098.22 1429.49L3110.22 1426.18L3122.59 1423.68L3135.26 1421.86L3148.16 1420.54L3161.18 1419.51L3174.24 1418.56L3187.24 1417.46L3200.07 1416L3212.64 1413.97L3224.89 1411.21L3236.76 1407.6L3248.22 1403.06L3259.24 1397.55L3269.85 1391.12L3280.08 1383.83L3289.98 1375.81L3299.63 1367.23L3309.11 1358.28L3318.53 1349.18L3327.98 1340.16L3337.57 1331.44L3347.38 1323.21L3357.49 1315.66L3367.96 1308.93L3378.85 1303.11L3390.16 1298.25L3401.89 1294.33L3414.02 1291.3L3426.5 1289.05L3439.25 1287.41L3452.2 1286.22L3465.25 1285.24L3478.3 1284.27L3491.25 1283.07L3504 1281.44L3516.48 1279.18L3528.61 1276.15L3540.34 1272.23L3551.65 1267.37L3562.54 1261.55L3573.01 1254.82L3583.13 1247.27L3592.93 1239.05L3602.52 1230.32L3611.97 1221.3L3621.39 1212.2L3630.87 1203.25L3640.52 1194.67L3650.42 1186.65L3660.65 1179.37L3671.26 1172.93L3682.28 1167.43L3693.74 1162.88L3705.61 1159.27L3717.86 1156.51L3730.44 1154.48L3743.27 1153.02L3756.26 1151.92L3769.32 1150.97L3782.35 1149.95L3795.24 1148.63L3807.91 1146.81L3820.28 1144.31L3832.28 1140.99L3843.88 1136.76L3855.04 1131.58L3865.79 1125.45L3876.14 1118.43L3886.14 1110.64L3895.86 1102.23L3905.39 1093.38L3914.82 1084.31L3924.25 1075.23L3933.78 1066.38L3943.5 1057.97L3953.51 1050.18L3963.85 1043.16L3974.6 1037.03L3985.77 1031.85L3997.36 1027.62L4009.36 1024.31L4021.73 1021.81L4034.4 1019.99L4047.3 1018.67L4060.32 1017.64L4073.38 1016.69L4086.38 1015.59L4099.21 1014.13L4111.78 1012.1L4124.04 1009.34L4135.91 1005.73L4147.36 1001.19L4158.38 995.683L4168.99 989.248L4179.22 981.959L4189.12 973.941L4198.77 965.36L4208.25 956.412L4217.67 947.314L4227.12 938.292L4236.71 929.565L4246.52 921.34L4256.63 913.792L4267.1 907.061L4277.99 901.242L4289.3 896.379L4301.03 892.462L4313.16 889.432L4325.64 887.176L4338.39 885.543L4351.34 884.345L4364.39 883.371L4377.44 882.397L4390.39 881.2L4403.14 879.567L4415.62 877.311L4427.75 874.28L4439.48 870.364L4450.8 865.501L4461.68 859.682L4472.15 852.951L4482.27 845.403L4492.07 837.178L4501.66 828.451L4511.11 819.429L4520.53 810.331L4530.01 801.383L4539.66 792.802L4549.56 784.784L4559.79 777.495L4570.4 771.06L4581.42 765.558L4592.88 761.014L4604.75 757.402L4617 754.644L4629.58 752.615L4642.41 751.149L4655.4 750.05L4668.46 749.101L4681.49 748.077L4694.38 746.757L4707.05 744.936L4719.42 742.437L4731.42 739.121L4743.02 734.893L4754.18 729.709L4764.93 723.579L4775.28 716.563L4785.28 708.772L4795 700.358L4804.53 691.509" stroke="#D81F05" stroke-opacity="0.03" stroke-width="36" stroke-miterlimit="10" stroke-linecap="round" stroke-linejoin="round"/>
<path d="M187.685 2399.64L197.114 2390.57L206.643 2381.72L216.367 2373.3L226.369 2365.51L236.718 2358.5L247.463 2352.37L258.63 2347.18L270.225 2342.96L282.227 2339.64L294.595 2337.14L307.265 2335.32L320.16 2334L333.187 2332.98L346.247 2332.03L359.24 2330.93L372.07 2329.46L384.647 2327.43L396.899 2324.68L408.769 2321.06L420.223 2316.52L431.248 2311.02L441.856 2304.58L452.083 2297.29L461.984 2289.27L471.633 2280.69L481.118 2271.75L490.536 2262.65L499.988 2253.63L509.572 2244.9L519.38 2236.67L529.491 2229.13L539.967 2222.39L550.851 2216.58L562.162 2211.71L573.896 2207.8L586.026 2204.77L598.502 2202.51L611.257 2200.88L624.206 2199.68L637.255 2198.71L650.304 2197.73L663.253 2196.53L676.008 2194.9L688.484 2192.64L700.614 2189.61L712.348 2185.7L723.659 2180.83L734.542 2175.02L745.019 2168.28L755.13 2160.74L764.938 2152.51L774.522 2143.78L783.973 2134.76L793.392 2125.66L802.877 2116.72L812.526 2108.14L822.427 2100.12L832.654 2092.83L843.262 2086.39L854.287 2080.89L865.741 2076.35L877.611 2072.74L889.862 2069.98L902.44 2067.95L915.269 2066.48L928.263 2065.38L941.323 2064.43L954.35 2063.41L967.244 2062.09L979.915 2060.27L992.282 2057.77L1004.28 2054.45L1015.88 2050.23L1027.05 2045.04L1037.79 2038.91L1048.14 2031.9L1058.14 2024.11L1067.87 2015.69L1077.4 2006.84L1086.83 1997.77L1096.25 1988.7L1105.78 1979.85L1115.51 1971.43L1125.51 1963.64L1135.86 1956.63L1146.6 1950.5L1157.77 1945.31L1169.37 1941.09L1181.37 1937.77L1193.74 1935.27L1206.41 1933.45L1219.3 1932.13L1232.33 1931.11L1245.39 1930.16L1258.38 1929.06L1271.21 1927.59L1283.79 1925.56L1296.04 1922.8L1307.91 1919.19L1319.36 1914.65L1330.39 1909.15L1341 1902.71L1351.22 1895.42L1361.12 1887.4L1370.77 1878.82L1380.26 1869.88L1389.68 1860.78L1399.13 1851.76L1408.71 1843.03L1418.52 1834.8L1428.63 1827.26L1439.11 1820.52L1449.99 1814.71L1461.3 1809.84L1473.04 1805.93L1485.17 1802.89L1497.64 1800.64L1510.4 1799.01L1523.35 1797.81L1536.4 1796.83L1549.44 1795.86L1562.39 1794.66L1575.15 1793.03L1587.62 1790.77L1599.75 1787.74L1611.49 1783.83L1622.8 1778.96L1633.68 1773.15L1644.16 1766.41L1654.27 1758.87L1664.08 1750.64L1673.66 1741.91L1683.11 1732.89L1692.53 1723.79L1702.02 1714.85L1711.67 1706.26L1721.57 1698.25L1731.79 1690.96L1742.4 1684.52L1753.43 1679.02L1764.88 1674.48L1776.75 1670.86L1789 1668.11L1801.58 1666.08L1814.41 1664.61L1827.4 1663.51L1840.46 1662.56L1853.49 1661.54L1866.38 1660.22L1879.06 1658.4L1891.42 1655.9L1903.43 1652.58L1915.02 1648.36L1926.19 1643.17L1936.93 1637.04L1947.28 1630.03L1957.28 1622.24L1967.01 1613.82L1976.54 1604.97L1985.97 1595.9L1995.4 1586.83L2004.92 1577.98L2014.65 1569.56L2024.65 1561.77L2035 1554.76L2045.74 1548.63L2056.91 1543.44L2068.51 1539.22L2080.51 1535.9L2092.88 1533.4L2105.55 1531.58L2118.44 1530.26L2131.47 1529.23L2144.53 1528.29L2157.52 1527.19L2170.35 1525.72L2182.93 1523.69L2195.18 1520.93L2207.05 1517.32L2218.5 1512.78L2229.53 1507.28L2240.14 1500.84L2250.36 1493.55L2260.26 1485.53L2269.91 1476.95L2279.4 1468.01L2288.82 1458.91L2298.27 1449.88L2307.85 1441.16L2317.66 1432.93L2327.77 1425.38L2338.25 1418.65L2349.13 1412.84L2360.44 1407.97L2372.18 1404.06L2384.31 1401.02L2396.78 1398.77L2409.54 1397.14L2422.49 1395.94L2435.54 1394.96L2448.59 1393.99L2461.53 1392.79L2474.29 1391.16L2486.77 1388.9L2498.89 1385.87L2510.63 1381.96L2521.94 1377.09L2532.82 1371.27L2543.3 1364.54L2553.41 1357L2563.22 1348.77L2572.8 1340.04L2582.25 1331.02L2591.67 1321.92L2601.16 1312.98L2610.81 1304.39L2620.71 1296.38L2630.93 1289.09L2641.54 1282.65L2652.57 1277.15L2664.02 1272.61L2675.89 1268.99L2688.14 1266.24L2700.72 1264.21L2713.55 1262.74L2726.54 1261.64L2739.6 1260.69L2752.63 1259.67L2765.53 1258.35L2778.2 1256.53L2790.56 1254.03L2802.57 1250.71L2814.16 1246.49L2825.33 1241.3L2836.07 1235.17L2846.42 1228.16L2856.42 1220.36L2866.15 1211.95L2875.68 1203.1L2885.11 1194.03L2894.54 1184.96L2904.06 1176.11L2913.79 1167.69L2923.79 1159.9L2934.14 1152.89L2944.88 1146.76L2956.05 1141.57L2967.65 1137.35L2979.65 1134.03L2992.02 1131.53L3004.69 1129.71L3017.58 1128.39L3030.61 1127.36L3043.67 1126.42L3056.66 1125.32L3069.49 1123.85L3082.07 1121.82L3094.32 1119.06L3106.19 1115.45L3117.64 1110.91L3128.67 1105.41L3139.28 1098.97L3149.5 1091.68L3159.41 1083.66L3169.05 1075.08L3178.54 1066.14L3187.96 1057.04L3197.41 1048.01L3206.99 1039.29L3216.8 1031.06L3226.91 1023.51L3237.39 1016.78L3248.27 1010.97L3259.58 1006.1L3271.32 1002.19L3283.45 999.154L3295.92 996.899L3308.68 995.266L3321.63 994.068L3334.68 993.094L3347.73 992.12L3360.67 990.922L3373.43 989.29L3385.91 987.034L3398.04 984.003L3409.77 980.087L3421.08 975.223L3431.96 969.405L3442.44 962.674L3452.55 955.126L3462.36 946.901L3471.94 938.174L3481.4 929.151L3490.81 920.053L3500.3 911.105L3509.95 902.524L3519.85 894.507L3530.08 887.218L3540.68 880.783L3551.71 875.28L3563.16 870.736L3575.03 867.124L3587.28 864.366L3599.86 862.337L3612.69 860.872L3625.68 859.773L3638.74 858.824L3651.77 857.8L3664.67 856.48L3677.34 854.659L3689.7 852.16L3701.71 848.843L3713.3 844.616L3724.47 839.432L3735.21 833.302L3745.56 826.286L3755.56 818.495L3765.29 810.081L3774.82 801.232L3784.25 792.159L3793.68 783.086L3803.21 774.237L3812.93 765.824L3822.93 758.032L3833.28 751.016L3844.02 744.886L3855.19 739.703L3866.79 735.475L3878.79 732.159L3891.16 729.66L3903.83 727.839L3916.72 726.518L3929.75 725.494L3942.81 724.545L3955.8 723.447L3968.63 721.981L3981.21 719.952L3993.46 717.194L4005.33 713.582L4016.78 709.038L4027.81 703.535L4038.42 697.1L4048.65 689.812L4058.55 681.794L4068.2 673.213L4077.68 664.265L4087.1 655.167L4096.55 646.144L4106.13 637.418L4115.94 629.192L4126.05 621.644L4136.53 614.914L4147.41 609.095L4158.72 604.232L4170.46 600.315L4182.59 597.284L4195.06 595.029L4207.82 593.396L4220.77 592.198L4233.82 591.224L4246.87 590.25L4259.82 589.052L4272.57 587.419L4285.05 585.164L4297.18 582.133L4308.91 578.216L4320.22 573.353L4331.1 567.534L4341.58 560.804L4351.69 553.256L4361.5 545.03L4371.08 536.304L4380.54 527.281L4389.95 518.183L4399.44 509.235L4409.09 500.654L4418.99 492.636L4429.22 485.348L4439.82 478.913L4450.85 473.41L4462.3 468.866L4474.17 465.254L4486.42 462.496L4499 460.467L4511.83 459.001L4524.82 457.903L4537.89 456.954L4550.91 455.93L4563.81 454.609L4576.48 452.788L4588.84 450.289L4600.85 446.973L4612.44 442.745L4623.61 437.562L4634.35 431.432L4644.7 424.416L4654.7 416.624L4664.43 408.211L4673.96 399.362" stroke="#D81F05" stroke-opacity="0.03" stroke-width="36" stroke-miterlimit="10" stroke-linecap="round" stroke-linejoin="round"/>
<path d="M350.903 2764.82L360.333 2755.75L369.862 2746.9L379.586 2738.49L389.588 2730.7L399.937 2723.68L410.681 2717.55L421.849 2712.37L433.444 2708.14L445.446 2704.82L457.814 2702.32L470.484 2700.5L483.379 2699.18L496.405 2698.16L509.466 2697.21L522.459 2696.11L535.288 2694.65L547.866 2692.62L560.118 2689.86L571.988 2686.25L583.441 2681.7L594.466 2676.2L605.075 2669.77L615.302 2662.48L625.202 2654.46L634.852 2645.88L644.337 2636.93L653.755 2627.83L663.207 2618.81L672.791 2610.08L682.599 2601.86L692.71 2594.31L703.186 2587.58L714.07 2581.76L725.381 2576.9L737.115 2572.98L749.244 2569.95L761.721 2567.69L774.475 2566.06L787.424 2564.86L800.474 2563.89L813.523 2562.92L826.472 2561.72L839.226 2560.08L851.703 2557.83L863.833 2554.8L875.567 2550.88L886.877 2546.02L897.761 2540.2L908.237 2533.47L918.348 2525.92L928.156 2517.7L937.74 2508.97L947.192 2499.95L956.61 2490.85L966.096 2481.9L975.745 2473.32L985.646 2465.3L995.872 2458.01L1006.48 2451.58L1017.51 2446.08L1028.96 2441.53L1040.83 2437.92L1053.08 2435.16L1065.66 2433.13L1078.49 2431.67L1091.48 2430.57L1104.54 2429.62L1117.57 2428.59L1130.46 2427.27L1143.13 2425.45L1155.5 2422.95L1167.5 2419.64L1179.1 2415.41L1190.27 2410.23L1201.01 2404.1L1211.36 2397.08L1221.36 2389.29L1231.09 2380.88L1240.61 2372.03L1250.04 2362.95L1259.47 2353.88L1269 2345.03L1278.73 2336.62L1288.73 2328.83L1299.08 2321.81L1309.82 2315.68L1320.99 2310.5L1332.58 2306.27L1344.59 2302.95L1356.95 2300.45L1369.62 2298.63L1382.52 2297.31L1395.55 2296.29L1408.61 2295.34L1421.6 2294.24L1434.43 2292.78L1447.01 2290.75L1459.26 2287.99L1471.13 2284.38L1482.58 2279.83L1493.61 2274.33L1504.22 2267.9L1514.44 2260.61L1524.34 2252.59L1533.99 2244.01L1543.48 2235.06L1552.9 2225.96L1562.35 2216.94L1571.93 2208.21L1581.74 2199.99L1591.85 2192.44L1602.33 2185.71L1613.21 2179.89L1624.52 2175.03L1636.26 2171.11L1648.38 2168.08L1660.86 2165.82L1673.62 2164.19L1686.56 2162.99L1699.61 2162.02L1712.66 2161.04L1725.61 2159.85L1738.37 2158.21L1750.84 2155.96L1762.97 2152.93L1774.71 2149.01L1786.02 2144.15L1796.9 2138.33L1807.38 2131.6L1817.49 2124.05L1827.3 2115.83L1836.88 2107.1L1846.33 2098.08L1855.75 2088.98L1865.24 2080.03L1874.89 2071.45L1884.79 2063.43L1895.01 2056.14L1905.62 2049.71L1916.65 2044.21L1928.1 2039.66L1939.97 2036.05L1952.22 2033.29L1964.8 2031.26L1977.63 2029.8L1990.62 2028.7L2003.68 2027.75L2016.71 2026.72L2029.6 2025.4L2042.27 2023.58L2054.64 2021.08L2066.64 2017.77L2078.24 2013.54L2089.41 2008.36L2100.15 2002.23L2110.5 1995.21L2120.5 1987.42L2130.23 1979.01L2139.76 1970.16L2149.18 1961.08L2158.61 1952.01L2168.14 1943.16L2177.87 1934.75L2187.87 1926.96L2198.22 1919.94L2208.96 1913.81L2220.13 1908.63L2231.72 1904.4L2243.73 1901.08L2256.09 1898.58L2268.77 1896.76L2281.66 1895.44L2294.69 1894.42L2307.75 1893.47L2320.74 1892.37L2333.57 1890.91L2346.15 1888.88L2358.4 1886.12L2370.27 1882.51L2381.72 1877.96L2392.75 1872.46L2403.36 1866.03L2413.58 1858.74L2423.48 1850.72L2433.13 1842.14L2442.62 1833.19L2452.04 1824.09L2461.49 1815.07L2471.07 1806.34L2480.88 1798.12L2490.99 1790.57L2501.47 1783.84L2512.35 1778.02L2523.66 1773.16L2535.4 1769.24L2547.53 1766.21L2560 1763.95L2572.76 1762.32L2585.71 1761.12L2598.75 1760.15L2611.8 1759.17L2624.75 1757.98L2637.51 1756.34L2649.98 1754.09L2662.11 1751.06L2673.85 1747.14L2685.16 1742.28L2696.04 1736.46L2706.52 1729.73L2716.63 1722.18L2726.44 1713.95L2736.02 1705.23L2745.47 1696.21L2754.89 1687.11L2764.38 1678.16L2774.03 1669.58L2783.93 1661.56L2794.15 1654.27L2804.76 1647.84L2815.79 1642.33L2827.24 1637.79L2839.11 1634.18L2851.36 1631.42L2863.94 1629.39L2876.77 1627.93L2889.76 1626.83L2902.82 1625.88L2915.85 1624.85L2928.74 1623.53L2941.41 1621.71L2953.78 1619.21L2965.78 1615.9L2977.38 1611.67L2988.55 1606.49L2999.29 1600.36L3009.64 1593.34L3019.64 1585.55L3029.37 1577.14L3038.9 1568.29L3048.32 1559.21L3057.75 1550.14L3067.28 1541.29L3077.01 1532.88L3087.01 1525.09L3097.36 1518.07L3108.1 1511.94L3119.27 1506.76L3130.87 1502.53L3142.87 1499.21L3155.24 1496.71L3167.91 1494.89L3180.8 1493.57L3193.83 1492.55L3206.89 1491.6L3219.88 1490.5L3232.71 1489.04L3245.29 1487.01L3257.54 1484.25L3269.41 1480.64L3280.86 1476.09L3291.89 1470.59L3302.5 1464.15L3312.72 1456.87L3322.62 1448.85L3332.27 1440.27L3341.76 1431.32L3351.18 1422.22L3360.63 1413.2L3370.21 1404.47L3380.02 1396.25L3390.13 1388.7L3400.61 1381.97L3411.49 1376.15L3422.8 1371.29L3434.54 1367.37L3446.67 1364.34L3459.14 1362.08L3471.9 1360.45L3484.85 1359.25L3497.9 1358.28L3510.94 1357.3L3523.89 1356.11L3536.65 1354.47L3549.12 1352.22L3561.25 1349.19L3572.99 1345.27L3584.3 1340.41L3595.18 1334.59L3605.66 1327.86L3615.77 1320.31L3625.58 1312.08L3635.16 1303.36L3644.61 1294.34L3654.03 1285.24L3663.52 1276.29L3673.17 1267.71L3683.07 1259.69L3693.29 1252.4L3703.9 1245.97L3714.93 1240.46L3726.38 1235.92L3738.25 1232.31L3750.5 1229.55L3763.08 1227.52L3775.91 1226.06L3788.9 1224.96L3801.96 1224.01L3814.99 1222.98L3827.88 1221.66L3840.56 1219.84L3852.92 1217.34L3864.92 1214.03L3876.52 1209.8L3887.69 1204.62L3898.43 1198.49L3908.78 1191.47L3918.78 1183.68L3928.51 1175.26L3938.04 1166.42L3947.47 1157.34L3956.89 1148.27L3966.42 1139.42L3976.15 1131.01L3986.15 1123.22L3996.5 1116.2L4007.24 1110.07L4018.41 1104.89L4030.01 1100.66L4042.01 1097.34L4054.38 1094.84L4067.05 1093.02L4079.94 1091.7L4092.97 1090.68L4106.03 1089.73L4119.02 1088.63L4131.85 1087.17L4144.43 1085.14L4156.68 1082.38L4168.55 1078.77L4180 1074.22L4191.03 1068.72L4201.64 1062.28L4211.86 1055L4221.76 1046.98L4231.41 1038.4L4240.9 1029.45L4250.32 1020.35L4259.77 1011.33L4269.35 1002.6L4279.16 994.376L4289.27 986.828L4299.75 980.098L4310.63 974.279L4321.94 969.416L4333.68 965.499L4345.81 962.468L4358.28 960.213L4371.04 958.58L4383.99 957.382L4397.04 956.408L4410.08 955.434L4423.03 954.236L4435.79 952.603L4448.26 950.348L4460.39 947.317L4472.13 943.4L4483.44 938.537L4494.32 932.718L4504.8 925.988L4514.91 918.44L4524.72 910.214L4534.3 901.488L4543.75 892.465L4553.17 883.367L4562.66 874.419L4572.31 865.838L4582.21 857.82L4592.43 850.532L4603.04 844.097L4614.07 838.594L4625.52 834.05L4637.39 830.438L4649.64 827.68L4662.22 825.651L4675.05 824.186L4688.04 823.087L4701.1 822.138L4714.13 821.114L4727.03 819.794L4739.7 817.972L4752.06 815.473L4764.07 812.157L4775.66 807.929L4786.83 802.746L4797.57 796.616L4807.92 789.6L4817.92 781.809L4827.65 773.395L4837.18 764.546" stroke="#D81F05" stroke-opacity="0.03" stroke-width="36" stroke-miterlimit="10" stroke-linecap="round" stroke-linejoin="round"/>
<path d="M220.329 2472.68L229.758 2463.6L239.288 2454.76L249.012 2446.34L259.014 2438.55L269.363 2431.53L280.107 2425.4L291.275 2420.22L302.87 2415.99L314.872 2412.68L327.24 2410.18L339.91 2408.36L352.804 2407.04L365.831 2406.01L378.891 2405.06L391.885 2403.96L404.714 2402.5L417.292 2400.47L429.544 2397.71L441.414 2394.1L452.867 2389.56L463.892 2384.05L474.501 2377.62L484.727 2370.33L494.628 2362.31L504.277 2353.73L513.763 2344.78L523.181 2335.68L532.633 2326.66L542.217 2317.94L552.025 2309.71L562.136 2302.16L572.612 2295.43L583.496 2289.61L594.806 2284.75L606.54 2280.83L618.67 2277.8L631.146 2275.55L643.901 2273.91L656.85 2272.72L669.899 2271.74L682.948 2270.77L695.898 2269.57L708.652 2267.94L721.129 2265.68L733.258 2262.65L744.992 2258.73L756.303 2253.87L767.187 2248.05L777.663 2241.32L787.774 2233.77L797.582 2225.55L807.166 2216.82L816.618 2207.8L826.036 2198.7L835.521 2189.75L845.17 2181.17L855.071 2173.15L865.298 2165.87L875.907 2159.43L886.932 2153.93L898.385 2149.38L910.255 2145.77L922.507 2143.01L935.084 2140.98L947.914 2139.52L960.907 2138.42L973.968 2137.47L986.994 2136.45L999.889 2135.13L1012.56 2133.31L1024.93 2130.81L1036.93 2127.49L1048.52 2123.26L1059.69 2118.08L1070.44 2111.95L1080.78 2104.93L1090.79 2097.14L1100.51 2088.73L1110.04 2079.88L1119.47 2070.81L1128.9 2061.73L1138.43 2052.88L1148.15 2044.47L1158.15 2036.68L1168.5 2029.66L1179.25 2023.53L1190.42 2018.35L1202.01 2014.12L1214.01 2010.81L1226.38 2008.31L1239.05 2006.49L1251.94 2005.17L1264.97 2004.14L1278.03 2003.19L1291.03 2002.09L1303.85 2000.63L1316.43 1998.6L1328.68 1995.84L1340.55 1992.23L1352.01 1987.69L1363.03 1982.18L1373.64 1975.75L1383.87 1968.46L1393.77 1960.44L1403.42 1951.86L1412.9 1942.91L1422.32 1933.81L1431.77 1924.79L1441.36 1916.07L1451.17 1907.84L1461.28 1900.29L1471.75 1893.56L1482.64 1887.74L1493.95 1882.88L1505.68 1878.96L1517.81 1875.93L1530.29 1873.68L1543.04 1872.04L1555.99 1870.85L1569.04 1869.87L1582.09 1868.9L1595.04 1867.7L1607.79 1866.07L1620.27 1863.81L1632.4 1860.78L1644.13 1856.86L1655.44 1852L1666.33 1846.18L1676.8 1839.45L1686.91 1831.9L1696.72 1823.68L1706.31 1814.95L1715.76 1805.93L1725.18 1796.83L1734.66 1787.88L1744.31 1779.3L1754.21 1771.28L1764.44 1763.99L1775.05 1757.56L1786.07 1752.06L1797.53 1747.51L1809.4 1743.9L1821.65 1741.14L1834.23 1739.11L1847.05 1737.65L1860.05 1736.55L1873.11 1735.6L1886.13 1734.58L1899.03 1733.26L1911.7 1731.44L1924.07 1728.94L1936.07 1725.62L1947.66 1721.39L1958.83 1716.21L1969.58 1710.08L1979.93 1703.06L1989.93 1695.27L1999.65 1686.86L2009.18 1678.01L2018.61 1668.94L2028.04 1659.86L2037.57 1651.01L2047.29 1642.6L2057.3 1634.81L2067.64 1627.79L2078.39 1621.66L2089.56 1616.48L2101.15 1612.25L2113.15 1608.94L2125.52 1606.44L2138.19 1604.62L2151.09 1603.3L2164.11 1602.27L2177.17 1601.32L2190.17 1600.22L2203 1598.76L2215.57 1596.73L2227.82 1593.97L2239.69 1590.36L2251.15 1585.81L2262.17 1580.31L2272.78 1573.88L2283.01 1566.59L2292.91 1558.57L2302.56 1549.99L2312.04 1541.04L2321.46 1531.94L2330.91 1522.92L2340.5 1514.19L2350.31 1505.97L2360.42 1498.42L2370.89 1491.69L2381.78 1485.87L2393.09 1481.01L2404.82 1477.09L2416.95 1474.06L2429.43 1471.81L2442.18 1470.17L2455.13 1468.98L2468.18 1468L2481.23 1467.03L2494.18 1465.83L2506.93 1464.2L2519.41 1461.94L2531.54 1458.91L2543.27 1454.99L2554.58 1450.13L2565.47 1444.31L2575.94 1437.58L2586.06 1430.03L2595.86 1421.81L2605.45 1413.08L2614.9 1404.06L2624.32 1394.96L2633.8 1386.01L2643.45 1377.43L2653.35 1369.41L2663.58 1362.12L2674.19 1355.69L2685.21 1350.19L2696.67 1345.64L2708.54 1342.03L2720.79 1339.27L2733.37 1337.24L2746.19 1335.78L2759.19 1334.68L2772.25 1333.73L2785.28 1332.71L2798.17 1331.39L2810.84 1329.57L2823.21 1327.07L2835.21 1323.75L2846.8 1319.52L2857.97 1314.34L2868.72 1308.21L2879.07 1301.19L2889.07 1293.4L2898.79 1284.99L2908.32 1276.14L2917.75 1267.07L2927.18 1257.99L2936.71 1249.14L2946.43 1240.73L2956.44 1232.94L2966.78 1225.92L2977.53 1219.79L2988.7 1214.61L3000.29 1210.38L3012.29 1207.07L3024.66 1204.57L3037.33 1202.75L3050.23 1201.43L3063.25 1200.4L3076.31 1199.45L3089.31 1198.35L3102.14 1196.89L3114.71 1194.86L3126.97 1192.1L3138.84 1188.49L3150.29 1183.94L3161.31 1178.44L3171.92 1172.01L3182.15 1164.72L3192.05 1156.7L3201.7 1148.12L3211.18 1139.17L3220.6 1130.07L3230.05 1121.05L3239.64 1112.32L3249.45 1104.1L3259.56 1096.55L3270.03 1089.82L3280.92 1084L3292.23 1079.14L3303.96 1075.22L3316.09 1072.19L3328.57 1069.94L3341.32 1068.3L3354.27 1067.1L3367.32 1066.13L3380.37 1065.16L3393.32 1063.96L3406.07 1062.33L3418.55 1060.07L3430.68 1057.04L3442.41 1053.12L3453.72 1048.26L3464.61 1042.44L3475.08 1035.71L3485.2 1028.16L3495 1019.94L3504.59 1011.21L3514.04 1002.19L3523.46 993.09L3532.94 984.142L3542.59 975.561L3552.49 967.543L3562.72 960.254L3573.33 953.82L3584.35 948.317L3595.81 943.773L3607.68 940.161L3619.93 937.403L3632.51 935.374L3645.34 933.908L3658.33 932.81L3671.39 931.861L3684.42 930.837L3697.31 929.516L3709.98 927.695L3722.35 925.196L3734.35 921.88L3745.95 917.652L3757.11 912.469L3767.86 906.339L3778.21 899.323L3788.21 891.531L3797.93 883.117L3807.46 874.269L3816.89 865.196L3826.32 856.123L3835.85 847.274L3845.57 838.86L3855.58 831.069L3865.92 824.053L3876.67 817.923L3887.84 812.739L3899.43 808.511L3911.43 805.195L3923.8 802.696L3936.47 800.875L3949.37 799.555L3962.39 798.531L3975.45 797.582L3988.45 796.483L4001.28 795.018L4013.85 792.989L4026.11 790.231L4037.98 786.618L4049.43 782.074L4060.45 776.572L4071.06 770.137L4081.29 762.848L4091.19 754.831L4100.84 746.249L4110.32 737.301L4119.74 728.204L4129.19 719.181L4138.78 710.454L4148.59 702.229L4158.7 694.681L4169.17 687.95L4180.06 682.131L4191.37 677.268L4203.1 673.352L4215.23 670.321L4227.71 668.065L4240.46 666.432L4253.41 665.235L4266.46 664.261L4279.51 663.287L4292.46 662.089L4305.21 660.456L4317.69 658.2L4329.82 655.17L4341.55 651.253L4352.87 646.39L4363.75 640.571L4374.23 633.84L4384.34 626.293L4394.14 618.067L4403.73 609.34L4413.18 600.318L4422.6 591.22L4432.08 582.272L4441.73 573.691L4451.63 565.673L4461.86 558.384L4472.47 551.95L4483.49 546.447L4494.95 541.903L4506.82 538.291L4519.07 535.533L4531.65 533.504L4544.48 532.038L4557.47 530.939L4570.53 529.99L4583.56 528.966L4596.45 527.646L4609.12 525.825L4621.49 523.326L4633.49 520.01L4645.09 515.782L4656.25 510.598L4667 504.468L4677.35 497.452L4687.35 489.661L4697.07 481.247L4706.6 472.398" stroke="#D81F05" stroke-opacity="0.03" stroke-width="36" stroke-miterlimit="10" stroke-linecap="round" stroke-linejoin="round"/>
<path d="M89.7529 2180.53L99.1823 2171.46L108.712 2162.61L118.436 2154.19L128.438 2146.4L138.786 2139.39L149.531 2133.26L160.699 2128.07L172.294 2123.85L184.296 2120.53L196.663 2118.03L209.334 2116.21L222.228 2114.89L235.255 2113.86L248.315 2112.92L261.309 2111.82L274.138 2110.35L286.716 2108.32L298.967 2105.56L310.837 2101.95L322.291 2097.41L333.316 2091.91L343.924 2085.47L354.151 2078.18L364.052 2070.16L373.701 2061.58L383.186 2052.64L392.605 2043.54L402.056 2034.51L411.64 2025.79L421.448 2017.56L431.559 2010.01L442.036 2003.28L452.919 1997.47L464.23 1992.6L475.964 1988.69L488.094 1985.65L500.57 1983.4L513.325 1981.77L526.274 1980.57L539.323 1979.59L552.372 1978.62L565.321 1977.42L578.076 1975.79L590.552 1973.53L602.682 1970.5L614.416 1966.59L625.727 1961.72L636.611 1955.9L647.087 1949.17L657.198 1941.63L667.006 1933.4L676.59 1924.67L686.042 1915.65L695.46 1906.55L704.945 1897.61L714.594 1889.02L724.495 1881.01L734.722 1873.72L745.33 1867.28L756.355 1861.78L767.809 1857.24L779.679 1853.62L791.931 1850.87L804.508 1848.84L817.338 1847.37L830.331 1846.27L843.391 1845.32L856.418 1844.3L869.313 1842.98L881.983 1841.16L894.351 1838.66L906.353 1835.34L917.948 1831.12L929.115 1825.93L939.86 1819.8L950.209 1812.79L960.211 1804.99L969.935 1796.58L979.464 1787.73L988.893 1778.66L998.323 1769.59L1007.85 1760.74L1017.58 1752.32L1027.58 1744.53L1037.93 1737.52L1048.67 1731.39L1059.84 1726.2L1071.43 1721.97L1083.44 1718.66L1095.8 1716.16L1108.47 1714.34L1121.37 1713.02L1134.4 1711.99L1147.46 1711.05L1160.45 1709.95L1173.28 1708.48L1185.86 1706.45L1198.11 1703.69L1209.98 1700.08L1221.43 1695.54L1232.46 1690.04L1243.06 1683.6L1253.29 1676.31L1263.19 1668.29L1272.84 1659.71L1282.33 1650.76L1291.75 1641.67L1301.2 1632.64L1310.78 1623.92L1320.59 1615.69L1330.7 1608.14L1341.18 1601.41L1352.06 1595.59L1363.37 1590.73L1375.1 1586.81L1387.23 1583.78L1399.71 1581.53L1412.47 1579.9L1425.41 1578.7L1438.46 1577.72L1451.51 1576.75L1464.46 1575.55L1477.22 1573.92L1489.69 1571.66L1501.82 1568.63L1513.56 1564.72L1524.87 1559.85L1535.75 1554.03L1546.23 1547.3L1556.34 1539.76L1566.15 1531.53L1575.73 1522.8L1585.18 1513.78L1594.6 1504.68L1604.09 1495.74L1613.73 1487.15L1623.64 1479.14L1633.86 1471.85L1644.47 1465.41L1655.5 1459.91L1666.95 1455.37L1678.82 1451.75L1691.07 1449L1703.65 1446.97L1716.48 1445.5L1729.47 1444.4L1742.53 1443.45L1755.56 1442.43L1768.45 1441.11L1781.12 1439.29L1793.49 1436.79L1805.49 1433.47L1817.09 1429.25L1828.26 1424.06L1839 1417.93L1849.35 1410.92L1859.35 1403.12L1869.08 1394.71L1878.6 1385.86L1888.03 1376.79L1897.46 1367.72L1906.99 1358.87L1916.72 1350.45L1926.72 1342.66L1937.07 1335.65L1947.81 1329.52L1958.98 1324.33L1970.57 1320.1L1982.58 1316.79L1994.94 1314.29L2007.61 1312.47L2020.51 1311.15L2033.54 1310.12L2046.6 1309.18L2059.59 1308.08L2072.42 1306.61L2085 1304.58L2097.25 1301.82L2109.12 1298.21L2120.57 1293.67L2131.6 1288.16L2142.21 1281.73L2152.43 1274.44L2162.33 1266.42L2171.98 1257.84L2181.47 1248.89L2190.89 1239.8L2200.34 1230.77L2209.92 1222.05L2219.73 1213.82L2229.84 1206.27L2240.32 1199.54L2251.2 1193.72L2262.51 1188.86L2274.25 1184.94L2286.38 1181.91L2298.85 1179.66L2311.61 1178.03L2324.56 1176.83L2337.6 1175.85L2350.65 1174.88L2363.6 1173.68L2376.36 1172.05L2388.83 1169.79L2400.96 1166.76L2412.7 1162.85L2424.01 1157.98L2434.89 1152.16L2445.37 1145.43L2455.48 1137.89L2465.29 1129.66L2474.87 1120.93L2484.32 1111.91L2493.74 1102.81L2503.23 1093.86L2512.88 1085.28L2522.78 1077.27L2533 1069.98L2543.61 1063.54L2554.64 1058.04L2566.09 1053.5L2577.96 1049.88L2590.21 1047.13L2602.79 1045.1L2615.62 1043.63L2628.61 1042.53L2641.67 1041.58L2654.7 1040.56L2667.59 1039.24L2680.26 1037.42L2692.63 1034.92L2704.63 1031.6L2716.23 1027.38L2727.4 1022.19L2738.14 1016.06L2748.49 1009.05L2758.49 1001.25L2768.22 992.84L2777.75 983.991L2787.17 974.919L2796.6 965.846L2806.13 956.997L2815.86 948.583L2825.86 940.792L2836.21 933.776L2846.95 927.646L2858.12 922.462L2869.72 918.234L2881.72 914.918L2894.08 912.419L2906.76 910.598L2919.65 909.278L2932.68 908.254L2945.74 907.305L2958.73 906.206L2971.56 904.74L2984.14 902.711L2996.39 899.953L3008.26 896.341L3019.71 891.797L3030.74 886.295L3041.35 879.86L3051.57 872.571L3061.47 864.553L3071.12 855.972L3080.61 847.024L3090.03 837.926L3099.48 828.904L3109.06 820.177L3118.87 811.952L3128.98 804.404L3139.46 797.673L3150.34 791.854L3161.65 786.991L3173.39 783.074L3185.52 780.044L3197.99 777.788L3210.75 776.155L3223.7 774.957L3236.74 773.983L3249.79 773.009L3262.74 771.812L3275.5 770.179L3287.97 767.923L3300.1 764.892L3311.84 760.976L3323.15 756.113L3334.03 750.294L3344.51 743.563L3354.62 736.015L3364.43 727.79L3374.01 719.063L3383.46 710.041L3392.88 700.943L3402.37 691.995L3412.02 683.414L3421.92 675.396L3432.14 668.107L3442.75 661.672L3453.78 656.17L3465.23 651.626L3477.1 648.013L3489.35 645.256L3501.93 643.227L3514.76 641.761L3527.75 640.662L3540.81 639.713L3553.84 638.689L3566.73 637.369L3579.4 635.548L3591.77 633.049L3603.77 629.733L3615.37 625.505L3626.54 620.321L3637.28 614.191L3647.63 607.175L3657.63 599.384L3667.36 590.97L3676.89 582.121L3686.32 573.048L3695.74 563.976L3705.27 555.127L3715 546.713L3725 538.921L3735.35 531.906L3746.09 525.775L3757.26 520.592L3768.86 516.364L3780.86 513.048L3793.23 510.549L3805.9 508.728L3818.79 507.408L3831.82 506.383L3844.88 505.435L3857.87 504.336L3870.7 502.87L3883.28 500.841L3895.53 498.083L3907.4 494.471L3918.85 489.927L3929.88 484.424L3940.49 477.99L3950.71 470.701L3960.61 462.683L3970.26 454.102L3979.75 445.154L3989.17 436.056L3998.62 427.033L4008.2 418.307L4018.01 410.081L4028.12 402.533L4038.6 395.803L4049.48 389.984L4060.79 385.121L4072.53 381.204L4084.66 378.173L4097.13 375.918L4109.89 374.285L4122.84 373.087L4135.89 372.113L4148.93 371.139L4161.88 369.941L4174.64 368.308L4187.11 366.053L4199.24 363.022L4210.98 359.106L4222.29 354.242L4233.17 348.423L4243.65 341.693L4253.76 334.145L4263.57 325.919L4273.15 317.193L4282.6 308.17L4292.02 299.072L4301.51 290.124L4311.16 281.543L4321.06 273.526L4331.28 266.237L4341.89 259.802L4352.92 254.299L4364.37 249.755L4376.24 246.143L4388.49 243.385L4401.07 241.356L4413.9 239.891L4426.89 238.792L4439.95 237.843L4452.98 236.819L4465.87 235.499L4478.55 233.677L4490.91 231.179L4502.92 227.862L4514.51 223.634L4525.68 218.451L4536.42 212.321L4546.77 205.305L4556.77 197.514L4566.5 189.1L4576.03 180.251" stroke="#D81F05" stroke-opacity="0.03" stroke-width="36" stroke-miterlimit="10" stroke-linecap="round" stroke-linejoin="round"/>
<path d="M18.7529 2021.67L28.1823 2012.6L37.7117 2003.75L47.4356 1995.34L57.4377 1987.55L67.7864 1980.53L78.531 1974.4L89.6987 1969.22L101.294 1964.99L113.296 1961.67L125.663 1959.17L138.334 1957.35L151.228 1956.03L164.255 1955.01L177.315 1954.06L190.309 1952.96L203.138 1951.5L215.716 1949.47L227.967 1946.71L239.837 1943.1L251.291 1938.55L262.316 1933.05L272.924 1926.62L283.151 1919.33L293.052 1911.31L302.701 1902.73L312.186 1893.78L321.605 1884.68L331.056 1875.66L340.64 1866.93L350.448 1858.71L360.559 1851.16L371.036 1844.43L381.919 1838.61L393.23 1833.75L404.964 1829.83L417.094 1826.8L429.57 1824.54L442.325 1822.91L455.274 1821.71L468.323 1820.74L481.372 1819.77L494.321 1818.57L507.076 1816.93L519.552 1814.68L531.682 1811.65L543.416 1807.73L554.727 1802.87L565.611 1797.05L576.087 1790.32L586.198 1782.77L596.006 1774.55L605.59 1765.82L615.042 1756.8L624.46 1747.7L633.945 1738.75L643.594 1730.17L653.495 1722.15L663.722 1714.86L674.33 1708.43L685.355 1702.93L696.809 1698.38L708.679 1694.77L720.931 1692.01L733.508 1689.98L746.338 1688.52L759.331 1687.42L772.391 1686.47L785.418 1685.44L798.313 1684.12L810.983 1682.3L823.351 1679.8L835.353 1676.49L846.948 1672.26L858.115 1667.08L868.86 1660.95L879.209 1653.93L889.211 1646.14L898.935 1637.73L908.464 1628.88L917.893 1619.8L927.323 1610.73L936.852 1601.88L946.576 1593.47L956.578 1585.68L966.927 1578.66L977.672 1572.53L988.839 1567.35L1000.43 1563.12L1012.44 1559.8L1024.8 1557.3L1037.47 1555.48L1050.37 1554.16L1063.4 1553.14L1076.46 1552.19L1089.45 1551.09L1102.28 1549.63L1114.86 1547.6L1127.11 1544.84L1138.98 1541.23L1150.43 1536.68L1161.46 1531.18L1172.06 1524.75L1182.29 1517.46L1192.19 1509.44L1201.84 1500.86L1211.33 1491.91L1220.75 1482.81L1230.2 1473.79L1239.78 1465.06L1249.59 1456.84L1259.7 1449.29L1270.18 1442.56L1281.06 1436.74L1292.37 1431.88L1304.1 1427.96L1316.23 1424.93L1328.71 1422.67L1341.47 1421.04L1354.41 1419.84L1367.46 1418.87L1380.51 1417.89L1393.46 1416.7L1406.22 1415.06L1418.69 1412.81L1430.82 1409.78L1442.56 1405.86L1453.87 1401L1464.75 1395.18L1475.23 1388.45L1485.34 1380.9L1495.15 1372.68L1504.73 1363.95L1514.18 1354.93L1523.6 1345.83L1533.09 1336.88L1542.73 1328.3L1552.64 1320.28L1562.86 1312.99L1573.47 1306.56L1584.5 1301.06L1595.95 1296.51L1607.82 1292.9L1620.07 1290.14L1632.65 1288.11L1645.48 1286.65L1658.47 1285.55L1671.53 1284.6L1684.56 1283.57L1697.45 1282.25L1710.12 1280.43L1722.49 1277.93L1734.49 1274.62L1746.09 1270.39L1757.26 1265.21L1768 1259.08L1778.35 1252.06L1788.35 1244.27L1798.08 1235.86L1807.6 1227.01L1817.03 1217.93L1826.46 1208.86L1835.99 1200.01L1845.72 1191.6L1855.72 1183.81L1866.07 1176.79L1876.81 1170.66L1887.98 1165.48L1899.57 1161.25L1911.58 1157.93L1923.94 1155.43L1936.61 1153.61L1949.51 1152.29L1962.54 1151.27L1975.6 1150.32L1988.59 1149.22L2001.42 1147.76L2014 1145.73L2026.25 1142.97L2038.12 1139.36L2049.57 1134.81L2060.6 1129.31L2071.21 1122.88L2081.43 1115.59L2091.33 1107.57L2100.98 1098.99L2110.47 1090.04L2119.89 1080.94L2129.34 1071.92L2138.92 1063.19L2148.73 1054.97L2158.84 1047.42L2169.32 1040.69L2180.2 1034.87L2191.51 1030.01L2203.25 1026.09L2215.38 1023.06L2227.85 1020.8L2240.61 1019.17L2253.56 1017.97L2266.6 1017L2279.65 1016.02L2292.6 1014.83L2305.36 1013.19L2317.83 1010.94L2329.96 1007.91L2341.7 1003.99L2353.01 999.128L2363.89 993.309L2374.37 986.578L2384.48 979.031L2394.29 970.805L2403.87 962.078L2413.32 953.056L2422.74 943.958L2432.23 935.01L2441.88 926.429L2451.78 918.411L2462 911.122L2472.61 904.688L2483.64 899.185L2495.09 894.641L2506.96 891.029L2519.21 888.271L2531.79 886.242L2544.62 884.776L2557.61 883.677L2570.67 882.729L2583.7 881.704L2596.59 880.384L2609.26 878.563L2621.63 876.064L2633.63 872.748L2645.23 868.52L2656.4 863.337L2667.14 857.206L2677.49 850.19L2687.49 842.399L2697.22 833.985L2706.75 825.136L2716.17 816.064L2725.6 806.991L2735.13 798.142L2744.86 789.728L2754.86 781.937L2765.21 774.921L2775.95 768.791L2787.12 763.607L2798.72 759.379L2810.72 756.063L2823.08 753.564L2835.76 751.743L2848.65 750.423L2861.68 749.399L2874.74 748.45L2887.73 747.351L2900.56 745.885L2913.14 743.856L2925.39 741.098L2937.26 737.486L2948.71 732.942L2959.74 727.44L2970.35 721.005L2980.57 713.716L2990.47 705.698L3000.12 697.117L3009.61 688.169L3019.03 679.071L3028.48 670.049L3038.06 661.322L3047.87 653.097L3057.98 645.549L3068.46 638.818L3079.34 632.999L3090.65 628.136L3102.39 624.219L3114.52 621.189L3126.99 618.933L3139.75 617.3L3152.7 616.102L3165.74 615.128L3178.79 614.154L3191.74 612.957L3204.5 611.324L3216.97 609.068L3229.1 606.037L3240.84 602.121L3252.15 597.258L3263.03 591.439L3273.51 584.708L3283.62 577.16L3293.43 568.935L3303.01 560.208L3312.46 551.186L3321.88 542.088L3331.37 533.14L3341.02 524.559L3350.92 516.541L3361.14 509.252L3371.75 502.817L3382.78 497.315L3394.23 492.771L3406.1 489.159L3418.35 486.401L3430.93 484.372L3443.76 482.906L3456.75 481.807L3469.81 480.858L3482.84 479.834L3495.73 478.514L3508.4 476.693L3520.77 474.194L3532.77 470.878L3544.37 466.65L3555.54 461.466L3566.28 455.336L3576.63 448.32L3586.63 440.529L3596.36 432.115L3605.89 423.266L3615.32 414.193L3624.74 405.121L3634.27 396.272L3644 387.858L3654 380.066L3664.35 373.051L3675.09 366.92L3686.26 361.737L3697.86 357.509L3709.86 354.193L3722.23 351.694L3734.9 349.873L3747.79 348.553L3760.82 347.528L3773.88 346.58L3786.87 345.481L3799.7 344.015L3812.28 341.986L3824.53 339.228L3836.4 335.616L3847.85 331.072L3858.88 325.569L3869.49 319.135L3879.71 311.846L3889.61 303.828L3899.26 295.247L3908.75 286.299L3918.17 277.201L3927.62 268.178L3937.2 259.452L3947.01 251.226L3957.12 243.679L3967.6 236.948L3978.48 231.129L3989.79 226.266L4001.53 222.349L4013.66 219.318L4026.13 217.063L4038.89 215.43L4051.84 214.232L4064.89 213.258L4077.93 212.284L4090.88 211.086L4103.64 209.453L4116.11 207.198L4128.24 204.167L4139.98 200.251L4151.29 195.387L4162.17 189.568L4172.65 182.838L4182.76 175.29L4192.57 167.064L4202.15 158.338L4211.6 149.315L4221.02 140.217L4230.51 131.269L4240.16 122.688L4250.06 114.671L4260.28 107.382L4270.89 100.947L4281.92 95.4444L4293.37 90.9003L4305.24 87.2882L4317.49 84.5303L4330.07 82.5013L4342.9 81.0356L4355.89 79.9368L4368.95 78.988L4381.98 77.9638L4394.87 76.6436L4407.55 74.8225L4419.91 72.3235L4431.92 69.0074L4443.51 64.7795L4454.68 59.596L4465.42 53.4658L4475.77 46.4499L4485.77 38.6586L4495.5 30.2448L4505.03 21.3958" stroke="#D81F05" stroke-opacity="0.03" stroke-width="36" stroke-miterlimit="10" stroke-linecap="round" stroke-linejoin="round"/>
<path d="M383.548 2837.86L392.977 2828.79L402.507 2819.94L412.231 2811.53L422.233 2803.73L432.581 2796.72L443.326 2790.59L454.494 2785.4L466.088 2781.18L478.091 2777.86L490.458 2775.36L503.129 2773.54L516.023 2772.22L529.05 2771.2L542.11 2770.25L555.104 2769.15L567.933 2767.68L580.511 2765.65L592.762 2762.9L604.632 2759.28L616.086 2754.74L627.111 2749.24L637.719 2742.8L647.946 2735.51L657.847 2727.5L667.496 2718.91L676.981 2709.97L686.399 2700.87L695.851 2691.85L705.435 2683.12L715.243 2674.89L725.354 2667.35L735.831 2660.62L746.714 2654.8L758.025 2649.93L769.759 2646.02L781.889 2642.99L794.365 2640.73L807.12 2639.1L820.069 2637.9L833.118 2636.93L846.167 2635.95L859.116 2634.75L871.871 2633.12L884.347 2630.87L896.477 2627.83L908.211 2623.92L919.522 2619.05L930.406 2613.24L940.882 2606.51L950.993 2598.96L960.801 2590.73L970.385 2582.01L979.837 2572.98L989.255 2563.88L998.74 2554.94L1008.39 2546.36L1018.29 2538.34L1028.52 2531.05L1039.13 2524.61L1050.15 2519.11L1061.6 2514.57L1073.47 2510.96L1085.73 2508.2L1098.3 2506.17L1111.13 2504.7L1124.13 2503.6L1137.19 2502.66L1150.21 2501.63L1163.11 2500.31L1175.78 2498.49L1188.15 2495.99L1200.15 2492.67L1211.74 2488.45L1222.91 2483.26L1233.65 2477.13L1244 2470.12L1254.01 2462.33L1263.73 2453.91L1273.26 2445.06L1282.69 2435.99L1292.12 2426.92L1301.65 2418.07L1311.37 2409.66L1321.37 2401.86L1331.72 2394.85L1342.47 2388.72L1353.63 2383.53L1365.23 2379.31L1377.23 2375.99L1389.6 2373.49L1402.27 2371.67L1415.16 2370.35L1428.19 2369.33L1441.25 2368.38L1454.24 2367.28L1467.07 2365.81L1479.65 2363.78L1491.9 2361.03L1503.77 2357.41L1515.23 2352.87L1526.25 2347.37L1536.86 2340.93L1547.09 2333.64L1556.99 2325.63L1566.64 2317.04L1576.12 2308.1L1585.54 2299L1594.99 2289.98L1604.58 2281.25L1614.38 2273.02L1624.49 2265.48L1634.97 2258.75L1645.85 2252.93L1657.17 2248.06L1668.9 2244.15L1681.03 2241.12L1693.51 2238.86L1706.26 2237.23L1719.21 2236.03L1732.26 2235.06L1745.31 2234.08L1758.26 2232.88L1771.01 2231.25L1783.49 2229L1795.62 2225.96L1807.35 2222.05L1818.66 2217.18L1829.55 2211.37L1840.02 2204.64L1850.13 2197.09L1859.94 2188.86L1869.53 2180.14L1878.98 2171.11L1888.4 2162.01L1897.88 2153.07L1907.53 2144.49L1917.43 2136.47L1927.66 2129.18L1938.27 2122.74L1949.29 2117.24L1960.74 2112.7L1972.61 2109.09L1984.87 2106.33L1997.44 2104.3L2010.27 2102.83L2023.27 2101.73L2036.33 2100.79L2049.35 2099.76L2062.25 2098.44L2074.92 2096.62L2087.29 2094.12L2099.29 2090.8L2110.88 2086.58L2122.05 2081.39L2132.8 2075.26L2143.14 2068.25L2153.15 2060.46L2162.87 2052.04L2172.4 2043.19L2181.83 2034.12L2191.26 2025.05L2200.79 2016.2L2210.51 2007.78L2220.51 1999.99L2230.86 1992.98L2241.61 1986.85L2252.77 1981.66L2264.37 1977.44L2276.37 1974.12L2288.74 1971.62L2301.41 1969.8L2314.3 1968.48L2327.33 1967.46L2340.39 1966.51L2353.38 1965.41L2366.21 1963.94L2378.79 1961.91L2391.04 1959.16L2402.91 1955.54L2414.37 1951L2425.39 1945.5L2436 1939.06L2446.23 1931.77L2456.13 1923.76L2465.78 1915.17L2475.26 1906.23L2484.68 1897.13L2494.13 1888.11L2503.72 1879.38L2513.52 1871.15L2523.64 1863.61L2534.11 1856.87L2545 1851.06L2556.31 1846.19L2568.04 1842.28L2580.17 1839.25L2592.65 1836.99L2605.4 1835.36L2618.35 1834.16L2631.4 1833.19L2644.45 1832.21L2657.4 1831.01L2670.15 1829.38L2682.63 1827.13L2694.76 1824.09L2706.49 1820.18L2717.8 1815.31L2728.69 1809.5L2739.16 1802.76L2749.27 1795.22L2759.08 1786.99L2768.67 1778.26L2778.12 1769.24L2787.54 1760.14L2797.02 1751.2L2806.67 1742.62L2816.57 1734.6L2826.8 1727.31L2837.41 1720.87L2848.43 1715.37L2859.88 1710.83L2871.75 1707.22L2884.01 1704.46L2896.58 1702.43L2909.41 1700.96L2922.41 1699.86L2935.47 1698.92L2948.49 1697.89L2961.39 1696.57L2974.06 1694.75L2986.43 1692.25L2998.43 1688.93L3010.02 1684.71L3021.19 1679.52L3031.94 1673.39L3042.28 1666.38L3052.29 1658.59L3062.01 1650.17L3071.54 1641.32L3080.97 1632.25L3090.4 1623.18L3099.93 1614.33L3109.65 1605.91L3119.65 1598.12L3130 1591.11L3140.75 1584.98L3151.92 1579.79L3163.51 1575.57L3175.51 1572.25L3187.88 1569.75L3200.55 1567.93L3213.44 1566.61L3226.47 1565.59L3239.53 1564.64L3252.53 1563.54L3265.35 1562.07L3277.93 1560.04L3290.18 1557.28L3302.05 1553.67L3313.51 1549.13L3324.53 1543.63L3335.14 1537.19L3345.37 1529.9L3355.27 1521.88L3364.92 1513.3L3374.4 1504.36L3383.82 1495.26L3393.27 1486.24L3402.86 1477.51L3412.67 1469.28L3422.78 1461.74L3433.25 1455L3444.14 1449.19L3455.45 1444.32L3467.18 1440.41L3479.31 1437.38L3491.79 1435.12L3504.54 1433.49L3517.49 1432.29L3530.54 1431.31L3543.59 1430.34L3556.54 1429.14L3569.29 1427.51L3581.77 1425.25L3593.9 1422.22L3605.63 1418.31L3616.94 1413.44L3627.83 1407.63L3638.3 1400.89L3648.41 1393.35L3658.22 1385.12L3667.81 1376.39L3677.26 1367.37L3686.68 1358.27L3696.16 1349.33L3705.81 1340.75L3715.71 1332.73L3725.94 1325.44L3736.55 1319L3747.57 1313.5L3759.03 1308.96L3770.9 1305.35L3783.15 1302.59L3795.72 1300.56L3808.55 1299.09L3821.55 1297.99L3834.61 1297.04L3847.63 1296.02L3860.53 1294.7L3873.2 1292.88L3885.57 1290.38L3897.57 1287.06L3909.16 1282.84L3920.33 1277.65L3931.08 1271.52L3941.43 1264.51L3951.43 1256.72L3961.15 1248.3L3970.68 1239.45L3980.11 1230.38L3989.54 1221.31L3999.07 1212.46L4008.79 1204.04L4018.79 1196.25L4029.14 1189.24L4039.89 1183.11L4051.06 1177.92L4062.65 1173.7L4074.65 1170.38L4087.02 1167.88L4099.69 1166.06L4112.59 1164.74L4125.61 1163.71L4138.67 1162.77L4151.67 1161.67L4164.5 1160.2L4177.07 1158.17L4189.32 1155.41L4201.19 1151.8L4212.65 1147.26L4223.67 1141.76L4234.28 1135.32L4244.51 1128.03L4254.41 1120.01L4264.06 1111.43L4273.54 1102.49L4282.96 1093.39L4292.41 1084.37L4302 1075.64L4311.81 1067.41L4321.92 1059.87L4332.39 1053.13L4343.28 1047.32L4354.59 1042.45L4366.32 1038.54L4378.45 1035.5L4390.93 1033.25L4403.68 1031.62L4416.63 1030.42L4429.68 1029.44L4442.73 1028.47L4455.68 1027.27L4468.43 1025.64L4480.91 1023.38L4493.04 1020.35L4504.77 1016.44L4516.08 1011.57L4526.97 1005.75L4537.44 999.024L4547.56 991.477L4557.36 983.251L4566.95 974.524L4576.4 965.502L4585.82 956.404L4595.3 947.456L4604.95 938.875L4614.85 930.857L4625.08 923.568L4635.69 917.134L4646.71 911.631L4658.17 907.087L4670.04 903.475L4682.29 900.717L4694.87 898.688L4707.69 897.222L4720.69 896.123L4733.75 895.174L4746.78 894.15L4759.67 892.83L4772.34 891.009L4784.71 888.51L4796.71 885.194L4808.3 880.966L4819.47 875.783L4830.22 869.652L4840.57 862.636L4850.57 854.845L4860.29 846.431L4869.82 837.582" stroke="#D81F05" stroke-opacity="0.03" stroke-width="36" stroke-miterlimit="10" stroke-linecap="round" stroke-linejoin="round"/>
<path d="M252.972 2545.71L262.401 2536.64L271.93 2527.79L281.654 2519.38L291.656 2511.59L302.005 2504.57L312.75 2498.44L323.917 2493.26L335.512 2489.03L347.515 2485.71L359.882 2483.21L372.553 2481.39L385.447 2480.07L398.474 2479.05L411.534 2478.1L424.527 2477L437.357 2475.54L449.934 2473.51L462.186 2470.75L474.056 2467.14L485.51 2462.59L496.535 2457.09L507.143 2450.65L517.37 2443.37L527.271 2435.35L536.92 2426.77L546.405 2417.82L555.823 2408.72L565.275 2399.7L574.859 2390.97L584.667 2382.75L594.778 2375.2L605.254 2368.47L616.138 2362.65L627.449 2357.79L639.183 2353.87L651.313 2350.84L663.789 2348.58L676.544 2346.95L689.493 2345.75L702.542 2344.78L715.591 2343.8L728.54 2342.61L741.295 2340.97L753.771 2338.72L765.901 2335.69L777.635 2331.77L788.946 2326.91L799.829 2321.09L810.306 2314.36L820.417 2306.81L830.225 2298.58L839.809 2289.86L849.261 2280.84L858.679 2271.74L868.164 2262.79L877.813 2254.21L887.714 2246.19L897.941 2238.9L908.549 2232.47L919.574 2226.96L931.028 2222.42L942.898 2218.81L955.149 2216.05L967.727 2214.02L980.556 2212.56L993.55 2211.46L1006.61 2210.51L1019.64 2209.48L1032.53 2208.16L1045.2 2206.34L1057.57 2203.84L1069.57 2200.53L1081.17 2196.3L1092.33 2191.12L1103.08 2184.99L1113.43 2177.97L1123.43 2170.18L1133.15 2161.76L1142.68 2152.92L1152.11 2143.84L1161.54 2134.77L1171.07 2125.92L1180.79 2117.51L1190.8 2109.72L1201.15 2102.7L1211.89 2096.57L1223.06 2091.39L1234.65 2087.16L1246.66 2083.84L1259.02 2081.34L1271.69 2079.52L1284.59 2078.2L1297.61 2077.18L1310.67 2076.23L1323.67 2075.13L1336.5 2073.66L1349.07 2071.64L1361.33 2068.88L1373.2 2065.27L1384.65 2060.72L1395.68 2055.22L1406.28 2048.78L1416.51 2041.5L1426.41 2033.48L1436.06 2024.9L1445.55 2015.95L1454.96 2006.85L1464.42 1997.83L1474 1989.1L1483.81 1980.88L1493.92 1973.33L1504.39 1966.6L1515.28 1960.78L1526.59 1955.92L1538.32 1952L1550.45 1948.97L1562.93 1946.71L1575.68 1945.08L1588.63 1943.88L1601.68 1942.91L1614.73 1941.93L1627.68 1940.74L1640.44 1939.1L1652.91 1936.85L1665.04 1933.82L1676.78 1929.9L1688.09 1925.04L1698.97 1919.22L1709.45 1912.49L1719.56 1904.94L1729.37 1896.71L1738.95 1887.99L1748.4 1878.97L1757.82 1869.87L1767.3 1860.92L1776.95 1852.34L1786.85 1844.32L1797.08 1837.03L1807.69 1830.6L1818.71 1825.09L1830.17 1820.55L1842.04 1816.94L1854.29 1814.18L1866.87 1812.15L1879.7 1810.69L1892.69 1809.59L1905.75 1808.64L1918.78 1807.61L1931.67 1806.29L1944.34 1804.47L1956.71 1801.97L1968.71 1798.66L1980.31 1794.43L1991.47 1789.25L2002.22 1783.12L2012.57 1776.1L2022.57 1768.31L2032.29 1759.89L2041.82 1751.05L2051.25 1741.97L2060.68 1732.9L2070.21 1724.05L2079.94 1715.64L2089.94 1707.85L2100.29 1700.83L2111.03 1694.7L2122.2 1689.52L2133.79 1685.29L2145.8 1681.97L2158.16 1679.47L2170.83 1677.65L2183.73 1676.33L2196.75 1675.31L2209.82 1674.36L2222.81 1673.26L2235.64 1671.79L2248.22 1669.77L2260.47 1667.01L2272.34 1663.4L2283.79 1658.85L2294.82 1653.35L2305.42 1646.91L2315.65 1639.63L2325.55 1631.61L2335.2 1623.03L2344.69 1614.08L2354.1 1604.98L2363.56 1595.96L2373.14 1587.23L2382.95 1579.01L2393.06 1571.46L2403.54 1564.73L2414.42 1558.91L2425.73 1554.05L2437.46 1550.13L2449.59 1547.1L2462.07 1544.84L2474.82 1543.21L2487.77 1542.01L2500.82 1541.04L2513.87 1540.06L2526.82 1538.87L2539.58 1537.23L2552.05 1534.98L2564.18 1531.95L2575.92 1528.03L2587.23 1523.17L2598.11 1517.35L2608.59 1510.62L2618.7 1503.07L2628.51 1494.84L2638.09 1486.12L2647.54 1477.09L2656.96 1468L2666.44 1459.05L2676.09 1450.47L2686 1442.45L2696.22 1435.16L2706.83 1428.73L2717.86 1423.22L2729.31 1418.68L2741.18 1415.07L2753.43 1412.31L2766.01 1410.28L2778.84 1408.82L2791.83 1407.72L2804.89 1406.77L2817.92 1405.74L2830.81 1404.42L2843.48 1402.6L2855.85 1400.1L2867.85 1396.79L2879.45 1392.56L2890.62 1387.38L2901.36 1381.25L2911.71 1374.23L2921.71 1366.44L2931.43 1358.02L2940.96 1349.18L2950.39 1340.1L2959.82 1331.03L2969.35 1322.18L2979.08 1313.77L2989.08 1305.98L2999.43 1298.96L3010.17 1292.83L3021.34 1287.65L3032.93 1283.42L3044.94 1280.1L3057.3 1277.6L3069.97 1275.78L3082.87 1274.46L3095.9 1273.44L3108.96 1272.49L3121.95 1271.39L3134.78 1269.92L3147.36 1267.9L3159.61 1265.14L3171.48 1261.53L3182.93 1256.98L3193.96 1251.48L3204.56 1245.04L3214.79 1237.76L3224.69 1229.74L3234.34 1221.16L3243.83 1212.21L3253.24 1203.11L3262.7 1194.09L3272.28 1185.36L3282.09 1177.14L3292.2 1169.59L3302.68 1162.86L3313.56 1157.04L3324.87 1152.18L3336.6 1148.26L3348.73 1145.23L3361.21 1142.97L3373.97 1141.34L3386.91 1140.14L3399.96 1139.17L3413.01 1138.19L3425.96 1137L3438.72 1135.36L3451.19 1133.11L3463.32 1130.08L3475.06 1126.16L3486.37 1121.3L3497.25 1115.48L3507.73 1108.75L3517.84 1101.2L3527.65 1092.97L3537.23 1084.25L3546.68 1075.22L3556.1 1066.13L3565.59 1057.18L3575.23 1048.6L3585.14 1040.58L3595.36 1033.29L3605.97 1026.86L3617 1021.35L3628.45 1016.81L3640.32 1013.2L3652.57 1010.44L3665.15 1008.41L3677.98 1006.94L3690.97 1005.85L3704.03 1004.9L3717.06 1003.87L3729.95 1002.55L3742.62 1000.73L3754.99 998.233L3766.99 994.917L3778.59 990.689L3789.76 985.505L3800.5 979.375L3810.85 972.359L3820.85 964.568L3830.58 956.154L3840.1 947.305L3849.53 938.232L3858.96 929.16L3868.49 920.311L3878.22 911.897L3888.22 904.106L3898.57 897.09L3909.31 890.959L3920.48 885.776L3932.07 881.548L3944.08 878.232L3956.44 875.733L3969.11 873.912L3982.01 872.592L3995.04 871.567L4008.1 870.619L4021.09 869.52L4033.92 868.054L4046.5 866.025L4058.75 863.267L4070.62 859.655L4082.07 855.111L4093.1 849.608L4103.71 843.174L4113.93 835.885L4123.83 827.867L4133.48 819.286L4142.97 810.338L4152.39 801.24L4161.84 792.218L4171.42 783.491L4181.23 775.265L4191.34 767.718L4201.82 760.987L4212.7 755.168L4224.01 750.305L4235.75 746.388L4247.87 743.357L4260.35 741.102L4273.11 739.469L4286.06 738.271L4299.1 737.297L4312.15 736.323L4325.1 735.125L4337.86 733.493L4350.33 731.237L4362.46 728.206L4374.2 724.29L4385.51 719.426L4396.39 713.608L4406.87 706.877L4416.98 699.329L4426.79 691.103L4436.37 682.377L4445.82 673.354L4455.24 664.256L4464.73 655.308L4474.38 646.727L4484.28 638.71L4494.5 631.421L4505.11 624.986L4516.14 619.483L4527.59 614.939L4539.46 611.327L4551.71 608.569L4564.29 606.54L4577.12 605.075L4590.11 603.976L4603.17 603.027L4616.2 602.003L4629.09 600.683L4641.76 598.862L4654.13 596.363L4666.13 593.046L4677.73 588.819L4688.9 583.635L4699.64 577.505L4709.99 570.489L4719.99 562.698L4729.72 554.284L4739.25 545.435" stroke="#D81F05" stroke-opacity="0.03" stroke-width="36" stroke-miterlimit="10" stroke-linecap="round" stroke-linejoin="round"/>
<path d="M122.397 2253.57L131.827 2244.49L141.356 2235.64L151.08 2227.23L161.082 2219.44L171.431 2212.42L182.176 2206.29L193.343 2201.11L204.938 2196.88L216.94 2193.57L229.308 2191.07L241.978 2189.25L254.873 2187.93L267.899 2186.9L280.96 2185.95L293.953 2184.85L306.783 2183.39L319.36 2181.36L331.612 2178.6L343.482 2174.99L354.935 2170.44L365.96 2164.94L376.569 2158.51L386.796 2151.22L396.697 2143.2L406.346 2134.62L415.831 2125.67L425.249 2116.57L434.701 2107.55L444.285 2098.82L454.093 2090.6L464.204 2083.05L474.68 2076.32L485.564 2070.5L496.875 2065.64L508.609 2061.72L520.738 2058.69L533.215 2056.44L545.969 2054.8L558.919 2053.6L571.968 2052.63L585.017 2051.66L597.966 2050.46L610.721 2048.83L623.197 2046.57L635.327 2043.54L647.061 2039.62L658.372 2034.76L669.255 2028.94L679.731 2022.21L689.842 2014.66L699.65 2006.44L709.235 1997.71L718.686 1988.69L728.104 1979.59L737.59 1970.64L747.239 1962.06L757.14 1954.04L767.366 1946.75L777.975 1940.32L789 1934.82L800.453 1930.27L812.323 1926.66L824.575 1923.9L837.153 1921.87L849.982 1920.41L862.976 1919.31L876.036 1918.36L889.063 1917.34L901.957 1916.02L914.628 1914.2L926.995 1911.7L938.997 1908.38L950.592 1904.15L961.76 1898.97L972.504 1892.84L982.853 1885.82L992.855 1878.03L1002.58 1869.62L1012.11 1860.77L1021.54 1851.7L1030.97 1842.62L1040.5 1833.77L1050.22 1825.36L1060.22 1817.57L1070.57 1810.55L1081.32 1804.42L1092.48 1799.24L1104.08 1795.01L1116.08 1791.7L1128.45 1789.2L1141.12 1787.38L1154.01 1786.05L1167.04 1785.03L1180.1 1784.08L1193.09 1782.98L1205.92 1781.52L1218.5 1779.49L1230.75 1776.73L1242.62 1773.12L1254.08 1768.57L1265.1 1763.07L1275.71 1756.64L1285.94 1749.35L1295.84 1741.33L1305.49 1732.75L1314.97 1723.8L1324.39 1714.7L1333.84 1705.68L1343.43 1696.95L1353.23 1688.73L1363.34 1681.18L1373.82 1674.45L1384.7 1668.63L1396.02 1663.77L1407.75 1659.85L1419.88 1656.82L1432.36 1654.57L1445.11 1652.93L1458.06 1651.73L1471.11 1650.76L1484.16 1649.79L1497.11 1648.59L1509.86 1646.96L1522.34 1644.7L1534.47 1641.67L1546.2 1637.75L1557.51 1632.89L1568.4 1627.07L1578.87 1620.34L1588.98 1612.79L1598.79 1604.57L1608.38 1595.84L1617.83 1586.82L1627.25 1577.72L1636.73 1568.77L1646.38 1560.19L1656.28 1552.17L1666.51 1544.88L1677.12 1538.45L1688.14 1532.95L1699.59 1528.4L1711.46 1524.79L1723.72 1522.03L1736.29 1520L1749.12 1518.54L1762.12 1517.44L1775.18 1516.49L1788.2 1515.47L1801.1 1514.15L1813.77 1512.32L1826.14 1509.83L1838.14 1506.51L1849.73 1502.28L1860.9 1497.1L1871.65 1490.97L1881.99 1483.95L1892 1476.16L1901.72 1467.75L1911.25 1458.9L1920.68 1449.83L1930.11 1440.75L1939.64 1431.9L1949.36 1423.49L1959.36 1415.7L1969.71 1408.68L1980.46 1402.55L1991.62 1397.37L2003.22 1393.14L2015.22 1389.82L2027.59 1387.33L2040.26 1385.5L2053.15 1384.18L2066.18 1383.16L2079.24 1382.21L2092.23 1381.11L2105.06 1379.65L2117.64 1377.62L2129.89 1374.86L2141.76 1371.25L2153.22 1366.7L2164.24 1361.2L2174.85 1354.77L2185.08 1347.48L2194.98 1339.46L2204.63 1330.88L2214.11 1321.93L2223.53 1312.83L2232.98 1303.81L2242.57 1295.08L2252.37 1286.86L2262.49 1279.31L2272.96 1272.58L2283.85 1266.76L2295.16 1261.9L2306.89 1257.98L2319.02 1254.95L2331.5 1252.7L2344.25 1251.06L2357.2 1249.86L2370.25 1248.89L2383.3 1247.92L2396.25 1246.72L2409 1245.09L2421.48 1242.83L2433.61 1239.8L2445.34 1235.88L2456.65 1231.02L2467.54 1225.2L2478.01 1218.47L2488.12 1210.92L2497.93 1202.7L2507.52 1193.97L2516.97 1184.95L2526.39 1175.85L2535.87 1166.9L2545.52 1158.32L2555.42 1150.3L2565.65 1143.01L2576.26 1136.58L2587.28 1131.08L2598.73 1126.53L2610.6 1122.92L2622.86 1120.16L2635.43 1118.13L2648.26 1116.67L2661.26 1115.57L2674.32 1114.62L2687.34 1113.6L2700.24 1112.28L2712.91 1110.45L2725.28 1107.96L2737.28 1104.64L2748.87 1100.41L2760.04 1095.23L2770.79 1089.1L2781.13 1082.08L2791.14 1074.29L2800.86 1065.88L2810.39 1057.03L2819.82 1047.96L2829.25 1038.88L2838.78 1030.03L2848.5 1021.62L2858.5 1013.83L2868.85 1006.81L2879.6 1000.68L2890.76 995.499L2902.36 991.271L2914.36 987.955L2926.73 985.456L2939.4 983.635L2952.29 982.314L2965.32 981.29L2978.38 980.341L2991.37 979.243L3004.2 977.777L3016.78 975.748L3029.03 972.99L3040.9 969.378L3052.36 964.834L3063.38 959.331L3073.99 952.896L3084.22 945.608L3094.12 937.59L3103.77 929.009L3113.25 920.061L3122.67 910.963L3132.12 901.94L3141.71 893.214L3151.51 884.988L3161.63 877.44L3172.1 870.71L3182.99 864.891L3194.3 860.028L3206.03 856.111L3218.16 853.08L3230.64 850.825L3243.39 849.192L3256.34 847.994L3269.39 847.02L3282.44 846.046L3295.39 844.848L3308.14 843.215L3320.62 840.96L3332.75 837.929L3344.48 834.012L3355.79 829.149L3366.68 823.33L3377.15 816.6L3387.26 809.052L3397.07 800.826L3406.66 792.1L3416.11 783.077L3425.53 773.979L3435.01 765.031L3444.66 756.45L3454.56 748.432L3464.79 741.144L3475.4 734.709L3486.42 729.206L3497.88 724.662L3509.75 721.05L3522 718.292L3534.57 716.263L3547.4 714.797L3560.4 713.699L3573.46 712.75L3586.48 711.726L3599.38 710.405L3612.05 708.584L3624.42 706.085L3636.42 702.769L3648.01 698.541L3659.18 693.358L3669.93 687.228L3680.27 680.212L3690.28 672.42L3700 664.007L3709.53 655.158L3718.96 646.085L3728.39 637.012L3737.92 628.163L3747.64 619.749L3757.64 611.958L3767.99 604.942L3778.74 598.812L3789.91 593.628L3801.5 589.401L3813.5 586.084L3825.87 583.585L3838.54 581.764L3851.43 580.444L3864.46 579.42L3877.52 578.471L3890.52 577.372L3903.34 575.907L3915.92 573.878L3928.17 571.12L3940.04 567.508L3951.5 562.964L3962.52 557.461L3973.13 551.026L3983.36 543.737L3993.26 535.72L4002.91 527.139L4012.39 518.191L4021.81 509.093L4031.26 500.07L4040.85 491.344L4050.66 483.118L4060.77 475.57L4071.24 468.84L4082.13 463.021L4093.44 458.157L4105.17 454.241L4117.3 451.21L4129.78 448.954L4142.53 447.322L4155.48 446.124L4168.53 445.15L4181.58 444.176L4194.53 442.978L4207.28 441.345L4219.76 439.09L4231.89 436.059L4243.62 432.142L4254.93 427.279L4265.82 421.46L4276.29 414.729L4286.4 407.182L4296.21 398.956L4305.8 390.229L4315.25 381.207L4324.67 372.109L4334.15 363.161L4343.8 354.58L4353.7 346.562L4363.93 339.273L4374.54 332.839L4385.56 327.336L4397.02 322.792L4408.89 319.18L4421.14 316.422L4433.72 314.393L4446.54 312.927L4459.54 311.828L4472.6 310.88L4485.62 309.855L4498.52 308.535L4511.19 306.714L4523.56 304.215L4535.56 300.899L4547.15 296.671L4558.32 291.488L4569.07 285.357L4579.42 278.342L4589.42 270.55L4599.14 262.136L4608.67 253.287" stroke="#D81F05" stroke-opacity="0.03" stroke-width="36" stroke-miterlimit="10" stroke-linecap="round" stroke-linejoin="round"/>
<path d="M51.3974 2094.71L60.8268 2085.64L70.3562 2076.79L80.0801 2068.38L90.0823 2060.58L100.431 2053.57L111.176 2047.44L122.343 2042.25L133.938 2038.03L145.94 2034.71L158.308 2032.21L170.978 2030.39L183.873 2029.07L196.899 2028.05L209.96 2027.1L222.953 2026L235.783 2024.53L248.36 2022.5L260.612 2019.75L272.482 2016.13L283.935 2011.59L294.96 2006.09L305.569 1999.65L315.796 1992.36L325.697 1984.35L335.346 1975.76L344.831 1966.82L354.249 1957.72L363.701 1948.7L373.285 1939.97L383.093 1931.74L393.204 1924.2L403.68 1917.47L414.564 1911.65L425.875 1906.78L437.609 1902.87L449.738 1899.84L462.215 1897.58L474.969 1895.95L487.919 1894.75L500.968 1893.78L514.017 1892.8L526.966 1891.6L539.721 1889.97L552.197 1887.72L564.327 1884.68L576.061 1880.77L587.372 1875.91L598.255 1870.09L608.731 1863.36L618.842 1855.81L628.65 1847.58L638.235 1838.86L647.686 1829.83L657.104 1820.74L666.59 1811.79L676.239 1803.21L686.14 1795.19L696.366 1787.9L706.975 1781.46L718 1775.96L729.453 1771.42L741.323 1767.81L753.575 1765.05L766.153 1763.02L778.982 1761.55L791.976 1760.45L805.036 1759.51L818.063 1758.48L830.957 1757.16L843.628 1755.34L855.995 1752.84L867.997 1749.53L879.592 1745.3L890.76 1740.11L901.504 1733.98L911.853 1726.97L921.855 1719.18L931.579 1710.76L941.109 1701.91L950.538 1692.84L959.967 1683.77L969.497 1674.92L979.221 1666.51L989.223 1658.71L999.572 1651.7L1010.32 1645.57L1021.48 1640.38L1033.08 1636.16L1045.08 1632.84L1057.45 1630.34L1070.12 1628.52L1083.01 1627.2L1096.04 1626.18L1109.1 1625.23L1122.09 1624.13L1134.92 1622.66L1147.5 1620.63L1159.75 1617.88L1171.62 1614.26L1183.08 1609.72L1194.1 1604.22L1204.71 1597.78L1214.94 1590.49L1224.84 1582.48L1234.49 1573.89L1243.97 1564.95L1253.39 1555.85L1262.84 1546.83L1272.43 1538.1L1282.23 1529.87L1292.34 1522.33L1302.82 1515.6L1313.7 1509.78L1325.02 1504.91L1336.75 1501L1348.88 1497.97L1361.36 1495.71L1374.11 1494.08L1387.06 1492.88L1400.11 1491.91L1413.16 1490.93L1426.11 1489.73L1438.86 1488.1L1451.34 1485.85L1463.47 1482.81L1475.2 1478.9L1486.51 1474.03L1497.4 1468.22L1507.87 1461.49L1517.98 1453.94L1527.79 1445.71L1537.38 1436.99L1546.83 1427.96L1556.25 1418.86L1565.73 1409.92L1575.38 1401.34L1585.28 1393.32L1595.51 1386.03L1606.12 1379.59L1617.14 1374.09L1628.59 1369.55L1640.46 1365.94L1652.72 1363.18L1665.29 1361.15L1678.12 1359.68L1691.12 1358.58L1704.18 1357.64L1717.2 1356.61L1730.1 1355.29L1742.77 1353.47L1755.14 1350.97L1767.14 1347.65L1778.73 1343.43L1789.9 1338.24L1800.65 1332.11L1810.99 1325.1L1821 1317.31L1830.72 1308.89L1840.25 1300.04L1849.68 1290.97L1859.11 1281.9L1868.64 1273.05L1878.36 1264.63L1888.36 1256.84L1898.71 1249.83L1909.46 1243.7L1920.62 1238.51L1932.22 1234.29L1944.22 1230.97L1956.59 1228.47L1969.26 1226.65L1982.15 1225.33L1995.18 1224.31L2008.24 1223.36L2021.23 1222.26L2034.06 1220.79L2046.64 1218.76L2058.89 1216.01L2070.76 1212.39L2082.22 1207.85L2093.24 1202.35L2103.85 1195.91L2114.08 1188.62L2123.98 1180.61L2133.63 1172.02L2143.11 1163.08L2152.53 1153.98L2161.98 1144.96L2171.57 1136.23L2181.37 1128L2191.49 1120.46L2201.96 1113.73L2212.85 1107.91L2224.16 1103.04L2235.89 1099.13L2248.02 1096.1L2260.5 1093.84L2273.25 1092.21L2286.2 1091.01L2299.25 1090.04L2312.3 1089.06L2325.25 1087.86L2338 1086.23L2350.48 1083.98L2362.61 1080.94L2374.34 1077.03L2385.65 1072.16L2396.54 1066.35L2407.01 1059.62L2417.12 1052.07L2426.93 1043.84L2436.52 1035.12L2445.97 1026.09L2455.39 1016.99L2464.87 1008.05L2474.52 999.465L2484.42 991.448L2494.65 984.159L2505.26 977.724L2516.28 972.222L2527.73 967.677L2539.6 964.065L2551.86 961.307L2564.43 959.278L2577.26 957.813L2590.26 956.714L2603.32 955.765L2616.34 954.741L2629.24 953.421L2641.91 951.6L2654.28 949.101L2666.28 945.785L2677.87 941.557L2689.04 936.373L2699.79 930.243L2710.13 923.227L2720.14 915.436L2729.86 907.022L2739.39 898.173L2748.82 889.1L2758.25 880.027L2767.78 871.178L2777.5 862.765L2787.5 854.973L2797.85 847.957L2808.6 841.827L2819.76 836.644L2831.36 832.416L2843.36 829.1L2855.73 826.601L2868.4 824.78L2881.29 823.459L2894.32 822.435L2907.38 821.486L2920.37 820.388L2933.2 818.922L2945.78 816.893L2958.03 814.135L2969.9 810.523L2981.36 805.979L2992.38 800.476L3002.99 794.042L3013.22 786.753L3023.12 778.735L3032.77 770.154L3042.25 761.206L3051.67 752.108L3061.12 743.085L3070.71 734.359L3080.51 726.133L3090.63 718.585L3101.1 711.855L3111.99 706.036L3123.3 701.173L3135.03 697.256L3147.16 694.225L3159.64 691.97L3172.39 690.337L3185.34 689.139L3198.39 688.165L3211.44 687.191L3224.39 685.993L3237.14 684.36L3249.62 682.105L3261.75 679.074L3273.48 675.157L3284.79 670.294L3295.68 664.475L3306.15 657.745L3316.26 650.197L3326.07 641.971L3335.66 633.245L3345.11 624.222L3354.53 615.124L3364.01 606.176L3373.66 597.595L3383.56 589.577L3393.79 582.289L3404.4 575.854L3415.42 570.351L3426.88 565.807L3438.75 562.195L3451 559.437L3463.57 557.408L3476.4 555.942L3489.4 554.844L3502.46 553.895L3515.48 552.871L3528.38 551.551L3541.05 549.729L3553.42 547.23L3565.42 543.914L3577.01 539.686L3588.18 534.503L3598.93 528.373L3609.27 521.357L3619.28 513.566L3629 505.152L3638.53 496.303L3647.96 487.23L3657.39 478.157L3666.92 469.308L3676.64 460.894L3686.64 453.103L3696.99 446.087L3707.74 439.957L3718.91 434.774L3730.5 430.546L3742.5 427.229L3754.87 424.73L3767.54 422.909L3780.43 421.589L3793.46 420.565L3806.52 419.616L3819.52 418.517L3832.34 417.052L3844.92 415.023L3857.17 412.265L3869.04 408.653L3880.5 404.109L3891.52 398.606L3902.13 392.171L3912.36 384.882L3922.26 376.865L3931.91 368.284L3941.39 359.336L3950.81 350.238L3960.26 341.215L3969.85 332.489L3979.66 324.263L3989.77 316.715L4000.24 309.985L4011.13 304.166L4022.44 299.302L4034.17 295.386L4046.3 292.355L4058.78 290.1L4071.53 288.467L4084.48 287.269L4097.53 286.295L4110.58 285.321L4123.53 284.123L4136.28 282.49L4148.76 280.235L4160.89 277.204L4172.62 273.287L4183.93 268.424L4194.82 262.605L4205.29 255.874L4215.4 248.327L4225.21 240.101L4234.8 231.374L4244.25 222.352L4253.67 213.254L4263.15 204.306L4272.8 195.725L4282.7 187.707L4292.93 180.418L4303.54 173.984L4314.56 168.481L4326.02 163.937L4337.89 160.325L4350.14 157.567L4362.72 155.538L4375.54 154.072L4388.54 152.973L4401.6 152.025L4414.62 151L4427.52 149.68L4440.19 147.859L4452.56 145.36L4464.56 142.044L4476.15 137.816L4487.32 132.633L4498.07 126.502L4508.42 119.487L4518.42 111.695L4528.14 103.281L4537.67 94.4324" stroke="#D81F05" stroke-opacity="0.03" stroke-width="36" stroke-miterlimit="10" stroke-linecap="round" stroke-linejoin="round"/>
</svg>
