<svg width="411" height="257" viewBox="0 0 411 257" fill="none" xmlns="http://www.w3.org/2000/svg">
<rect x="0.0146484" width="410.699" height="256.906" rx="4.74122" fill="white"/>
<path d="M208.853 182.441C208.853 182.739 208.619 183.044 208.15 183.356C207.69 183.661 207.221 183.813 206.746 183.813C205.72 183.813 204.702 183.345 203.691 182.408C202.583 183.248 201.353 183.668 200.001 183.668C198.529 183.668 197.292 183.289 196.288 182.53C195.188 181.69 194.638 180.556 194.638 179.128C194.638 177.998 194.999 177.06 195.72 176.317C196.47 175.543 197.622 174.93 199.176 174.476L199.443 174.398C199.257 173.647 199.165 172.963 199.165 172.345C199.165 171.453 199.38 170.717 199.811 170.137C200.287 169.49 200.952 169.166 201.807 169.166C202.55 169.166 203.178 169.4 203.691 169.869C204.204 170.337 204.46 170.918 204.46 171.609C204.46 172.992 203.438 173.993 201.394 174.61C202.212 176.707 203.07 178.399 203.97 179.686L204.07 179.407C203.364 178.291 202.673 176.867 201.996 175.134C204.018 174.495 205.029 173.468 205.029 172.056C205.029 171.505 204.858 171.011 204.516 170.572L204.438 170.65L204.594 170.784C205.107 171.223 205.363 171.795 205.363 172.502C205.363 173.885 204.345 174.885 202.309 175.502C202.829 176.908 203.427 178.195 204.103 179.362C204.319 178.715 204.427 178.027 204.427 177.298C204.427 176.741 204.393 176.321 204.326 176.038C204.966 176.425 205.452 176.733 205.787 176.964C206.218 177.261 206.642 177.488 207.058 177.644C206.196 178.544 205.412 179.619 204.705 180.868C205.07 181.411 205.43 181.831 205.787 182.129L205.865 182.051C205.702 181.857 205.504 181.608 205.274 181.303C205.906 180.188 206.631 179.191 207.448 178.314C207.589 178.395 207.76 178.473 207.961 178.548C207.114 179.433 206.329 180.504 205.609 181.761C205.727 181.961 205.85 182.132 205.977 182.274C206.4 182.594 206.824 182.753 207.247 182.753C207.611 182.753 207.89 182.661 208.084 182.474L208.284 182.285C208.336 182.225 208.418 182.188 208.529 182.173C208.745 182.173 208.853 182.263 208.853 182.441ZM209.856 183.345C209.856 183.739 209.578 184.092 209.02 184.404C208.537 184.68 208.08 184.817 207.649 184.817C206.608 184.817 205.583 184.363 204.572 183.456C203.487 184.274 202.264 184.683 200.904 184.683C199.306 184.683 197.994 184.248 196.968 183.378C196.731 183.177 196.545 182.991 196.411 182.82L196.522 182.809L196.578 182.843C197.589 183.698 198.882 184.126 200.458 184.126C201.773 184.126 203 183.705 204.137 182.865C204.59 183.281 205.066 183.616 205.564 183.869C206.099 184.137 206.642 184.271 207.192 184.271C207.638 184.271 208.106 184.114 208.596 183.802C208.983 183.557 209.217 183.281 209.299 182.977L209.421 182.965C209.711 182.965 209.856 183.092 209.856 183.345ZM203.256 171.576C203.256 171.36 203.223 171.133 203.156 170.895C203 170.851 202.844 170.828 202.688 170.828C201.84 170.828 201.417 171.319 201.417 172.301C201.417 172.717 201.484 173.167 201.617 173.651C202.204 173.383 202.606 173.134 202.821 172.903C203.111 172.583 203.256 172.141 203.256 171.576ZM202.989 170.583L202.844 170.404C202.583 170.085 202.23 169.925 201.785 169.925C200.937 169.925 200.514 170.419 200.514 171.408C200.514 172.152 200.722 172.974 201.138 173.874C201.294 173.807 201.402 173.751 201.461 173.706C201.209 173.044 201.082 172.427 201.082 171.855C201.082 170.947 201.465 170.494 202.23 170.494C202.491 170.494 202.717 170.553 202.911 170.672L202.989 170.583ZM202.922 181.526C201.747 179.942 200.803 178.232 200.09 176.395C198.544 177.206 197.771 178.507 197.771 180.299C197.771 181.132 197.972 181.835 198.373 182.408C198.893 182.742 199.466 182.91 200.09 182.91C201.116 182.91 202.06 182.448 202.922 181.526ZM199.9 175.915L199.778 175.614L199.666 175.257C197.801 176.038 196.868 177.417 196.868 179.396C196.868 180.392 197.169 181.225 197.771 181.895C197.905 182.043 198.027 182.158 198.139 182.24L198.217 182.162C197.689 181.545 197.425 180.775 197.425 179.853C197.425 178.053 198.251 176.741 199.9 175.915Z" fill="#606060"/>
<path d="M131.324 80.9643C131.324 82.8291 130.523 84.4242 128.923 85.7496C127.6 86.828 125.927 87.6145 123.904 88.1096C124.865 90.8774 126.239 93.6451 128.029 96.4129C129.222 98.2632 130.182 99.5523 130.909 100.281L131.171 100.543L131.28 100.608L131.171 100.652C128.451 101.745 126.319 102.772 124.777 103.733L124.603 103.843L124.515 103.318C123.628 97.9572 122.341 93.1864 120.653 89.0055L118.777 89.2898C118.267 89.3624 117.504 89.4864 116.485 89.6613L116.158 89.7269V99.6688L118.449 102.138H109.437L110.157 101.504H118.057L115.503 98.7295V89.0276L115.634 89.0055L118.296 88.5684C118.733 88.525 119.409 88.4085 120.326 88.219C120.195 87.9276 120.093 87.6583 120.02 87.4103L119.955 87.3014L119.846 87.0171C119.395 87.1628 118.631 87.3014 117.555 87.4325C116.784 87.5343 115.838 87.6946 114.718 87.913L114.391 87.9785V97.8991L116.703 100.39H107.691L110.332 97.9208V90.6006C109.648 90.7317 109.117 90.8703 108.739 91.016L109.022 90.0107L110.332 89.7924V88.6777C109.241 88.6777 108.128 88.8673 106.993 89.2459L106.927 89.2676C106.971 89.0201 107.11 88.6122 107.342 88.0441L107.429 87.7602L107.648 87.0392L107.67 86.9298L109.132 86.8643C109.132 86.8643 109.27 86.8643 109.546 86.8643C109.677 86.8643 109.939 86.8935 110.332 86.9515V76.8781L110.092 76.8564L109.939 76.747L110.332 76.5942V76.0699C109.517 75.589 108.804 75.232 108.193 74.9991C111.481 73.1781 115.103 72.2676 119.06 72.2676C121.621 72.2676 123.883 72.7774 125.846 73.7972C128.32 75.0647 129.556 76.8635 129.556 79.1946C129.556 81.0736 128.756 82.6688 127.156 83.98C125.861 85.0579 124.188 85.8444 122.137 86.34C123.082 89.1078 124.457 91.8755 126.261 94.6433C127.672 96.8137 129.091 98.5692 130.516 99.9092L130.669 99.7565C129.534 98.5475 128.421 97.0976 127.331 95.4081C125.585 92.6984 124.246 90.0253 123.315 87.3886C125.366 86.8351 127.032 86.0118 128.312 84.9193C129.869 83.5646 130.647 81.9478 130.647 80.0684C130.647 79.0777 130.422 78.1748 129.971 77.359C130.873 78.3931 131.324 79.595 131.324 80.9643ZM133.048 102.356L132.917 102.4C130.894 103.07 128.771 104.105 126.545 105.503L126.37 105.613L126.283 105.088L126.218 104.76L126.196 104.52C127.912 103.427 129.891 102.51 132.131 101.767L132.284 101.701L133.048 102.356ZM125.192 79.3257C125.192 78.3643 124.952 77.4901 124.472 76.7036C123.265 75.9167 121.824 75.5234 120.151 75.5234C118.58 75.5234 117.249 75.7347 116.158 76.1571V86.165H116.354L116.485 86.1429C119.366 85.6624 121.548 84.8467 123.032 83.6957C124.472 82.5886 125.192 81.1321 125.192 79.3257ZM124.166 76.2444C123.934 75.9388 123.628 75.6328 123.25 75.3268C121.955 74.2782 120.34 73.7534 118.405 73.7534C116.907 73.7534 115.569 73.9646 114.391 74.3871V86.2961H114.936L115.503 86.2744V75.4362C116.551 75.0571 117.809 74.868 119.279 74.868C121.199 74.868 122.777 75.3777 124.013 76.3976L124.079 76.3099L124.166 76.2444Z" fill="black"/>
<path d="M161.175 88.6343C161.175 92.5234 160.259 95.7137 158.426 98.2047C156.389 101.002 153.494 102.4 149.741 102.4C146.991 102.4 144.54 101.526 142.387 99.7781C141.892 99.3849 141.471 98.9841 141.121 98.5763L140.969 98.7295L141.383 99.0789C143.507 100.871 145.995 101.767 148.846 101.767C152.643 101.767 155.596 100.346 157.706 97.5059C159.582 94.9564 160.52 91.7077 160.52 87.7602C160.52 83.2586 159.451 79.6605 157.313 76.9658L156.811 76.3321L156.658 76.507C156.978 76.8272 157.429 77.3081 158.011 77.9489C160.12 80.6295 161.175 84.1913 161.175 88.6343ZM159.408 86.9077C159.408 90.7972 158.491 93.9875 156.658 96.4785C154.621 99.2755 151.726 100.674 147.973 100.674C145.209 100.674 142.758 99.7999 140.619 98.0519C137.463 95.4591 135.885 91.6134 135.885 86.5144C135.885 82.4504 136.844 79.1291 138.765 76.5504C140.903 73.6954 143.936 72.2676 147.864 72.2676C151.705 72.2676 154.658 73.8048 156.723 76.8781C158.513 79.5294 159.408 82.8729 159.408 86.9077ZM154.781 86.4927C154.781 81.8313 154.2 78.5609 153.036 76.6815C152.978 76.6089 152.912 76.5579 152.839 76.5287C152.781 76.5433 152.73 76.5579 152.687 76.5725L152.839 76.3976C151.894 75.7856 150.803 75.4796 149.566 75.4796C144.533 75.4796 142.016 79.8864 142.016 88.6999C142.016 93.0261 142.707 96.1946 144.089 98.2047C145.151 98.8606 146.351 99.1883 147.69 99.1883C152.418 99.1883 154.781 94.9564 154.781 86.4927ZM152.468 75.8733C151.276 74.4602 149.719 73.7534 147.799 73.7534C142.766 73.7534 140.249 78.1601 140.249 86.9732C140.249 92.4508 141.376 96.0852 143.631 97.877L143.784 97.7242C142.155 95.7721 141.34 92.48 141.34 87.8474C141.34 79.18 143.784 74.8463 148.671 74.8463C150.068 74.8463 151.283 75.2396 152.316 76.0261L152.468 75.8733Z" fill="black"/>
<path d="M194.256 74.2787L191.441 77.0974V99.6693L192.205 100.391H182.8L185.615 98.0087V84.6143L185.397 84.5705L179.134 102.117H177.803L177.585 101.483H178.436L185.615 81.3147V77.9495L185.397 77.9056L177.388 100.391H176.057L169.926 82.6038L169.707 82.6476V95.0155C169.707 97.1858 169.911 98.7956 170.318 99.8442C170.755 100.063 171.213 100.245 171.693 100.391L162.441 100.347C164.056 99.5458 165.14 98.6061 165.692 97.5282C166.187 96.5814 166.434 95.1465 166.434 93.2233V75.0652L163.75 72.5525H174.617L171.649 75.218L177.912 93.9447L178.13 93.2454L178.283 92.7866L172.784 76.1577L174.879 74.2787H176.384L173.417 76.9442L178.523 92.3057C179.73 89.1154 180.763 86.2458 181.622 83.6963C181.855 82.997 182.204 81.9409 182.669 80.5282C182.945 79.7266 183.578 77.9641 184.568 75.2401L182.036 72.5525H192.488L189.674 75.3712V98.0087L190.787 99.0356V76.376L192.86 74.2787H194.256ZM193.951 102.117H184.568L185.31 101.483H193.274L193.951 102.117ZM173.439 102.117L164.165 102.073C164.645 101.84 164.994 101.644 165.212 101.483H171.889C172.34 101.745 172.857 101.957 173.439 102.117ZM169.991 99.6693L169.817 99.2327L169.751 99.1012C169.271 98.1397 169.031 96.4937 169.031 94.163V80.069L168.158 77.5124L167.94 77.5562V93.2888C167.94 96.3046 168.347 98.2128 169.162 99.0139C169.336 99.2034 169.613 99.4218 169.991 99.6693Z" fill="black"/>
<path d="M226.423 100.391H216.056L218.894 97.9653L217.823 95.1682L216.797 92.284C215.313 93.6094 214.114 95.0589 213.197 96.6323L212.892 96.1514L212.717 95.8892L212.608 95.7143C213.597 94.0828 214.862 92.5971 216.405 91.257C216.274 90.9364 216.063 90.4701 215.772 89.8585C214.012 91.3296 212.571 92.9978 211.451 94.8622C210.578 93.4491 209.48 91.9341 208.156 90.3173L207.742 91.3881C207.596 91.7521 207.487 92.0506 207.414 92.284L206.672 94.5345C206.28 95.7289 206.083 96.7417 206.083 97.572C206.083 98.5188 206.287 99.3416 206.694 100.041C206.956 100.493 207.494 101.126 208.309 101.942L208.505 102.139H198.358C198.519 102.051 198.686 101.957 198.86 101.855C199.035 101.752 199.217 101.636 199.406 101.505H208.243L207.72 101.068L207.589 100.893C206.658 99.99 206.069 99.2615 205.821 98.7079C205.545 98.0963 205.407 97.4263 205.407 96.6978C205.407 95.984 205.61 95.0008 206.018 93.748L207.087 90.5139L207.502 89.5087L206.454 88.2634L205.669 90.5139L204.926 92.7645C204.519 94.0027 204.315 95.0225 204.315 95.8237C204.315 96.6832 204.454 97.3749 204.73 97.8997C205.05 98.5113 205.661 99.269 206.563 100.172L206.672 100.325L206.759 100.391H196.547C198.453 99.3416 199.988 97.9431 201.151 96.1952C202.432 94.2724 203.61 91.5338 204.687 87.9791L203.377 87.7824L203.639 87.3236L204.774 87.7386L204.883 87.2581C204.054 86.5735 202.963 86.1581 201.61 86.0124C202.396 84.7742 202.963 83.6237 203.312 82.56L203.421 82.6694C203.465 82.7132 203.501 82.7349 203.53 82.7349L204.556 83.6963C205.007 84.1188 205.451 84.4686 205.887 84.7454C206.367 83.5798 207 81.9409 207.785 79.8289L209.618 74.8686L207.414 72.5525H216.95L214.79 74.9558L218.455 84.5922L218.761 84.3955C218.836 84.3517 218.956 84.3008 219.133 84.2428L215.947 75.8956L217.343 74.3221H218.716L216.557 76.7259L219.35 84.0678C219.976 83.66 220.512 83.2592 220.964 82.866L221.665 82.2544C221.984 83.7694 222.521 85.1533 223.279 86.4061L222.578 86.3622C221.257 86.275 220.193 86.515 219.395 87.0832L223.385 98.0087L224.498 98.8828L220.552 88.0668C221.279 87.6151 222.237 87.4109 223.43 87.4547L224.543 87.4986C223.904 86.3768 223.425 85.3136 223.102 84.3083L223.43 84.024C223.749 85.539 224.29 86.9229 225.044 88.1757L224.325 88.1323C223.731 88.1031 223.11 88.154 222.472 88.2851C221.975 88.4015 221.541 88.5911 221.159 88.8533L224.937 99.2327L226.423 100.391ZM228.165 102.139H217.801L218.588 101.505H227.314L228.165 102.139ZM211.56 78.4738L210.862 76.5076L207.24 86.0345L208.309 87.127L211.56 78.4738ZM214.92 87.4109L212.04 79.7412L209.007 87.9357L209.487 88.5472C209.633 88.7514 209.851 89.0569 210.142 89.4653L211.451 91.2787L214.92 87.4109Z" fill="black"/>
<path d="M257.234 74.3004C255.735 75.0723 254.773 75.7937 254.351 76.4637C253.611 77.6289 253.239 79.2971 253.239 81.4674V102.139H249.638L249.31 101.505H252.56V80.5937C252.56 78.4375 252.919 76.8131 253.633 75.7206C253.85 75.3858 254.387 74.9124 255.247 74.3004H257.234ZM255.464 72.5525C253.979 73.339 253.021 74.06 252.582 74.7154C251.842 75.8371 251.469 77.5053 251.469 79.7195V100.391H247.869L237.702 80.506L237.507 80.5499V91.3881C237.507 95.1607 237.76 97.812 238.27 99.3416L238.314 99.4727L238.398 99.6038C239.01 99.9536 239.533 100.187 239.972 100.303L239.773 100.391H230.346C231.818 99.7495 232.816 98.9413 233.339 97.9653C233.947 96.8143 234.253 94.9353 234.253 92.3274V74.8031L231.548 72.5525H241.781L238.926 74.4532L249.483 95.1899L249.683 95.1465V94.7095L249.66 94.2507L240.079 75.4146L241.737 74.3004H243.55L240.691 76.2016L249.483 93.4859L249.683 93.442V79.8945C249.683 77.4615 249.47 75.7791 249.049 74.8469L248.069 74.3004H248.352L248.636 74.5409L248.787 74.3877C248.335 73.8053 247.514 73.1933 246.322 72.5525H255.464ZM241.715 102.051L241.52 102.139H232.115C232.55 101.978 232.967 101.767 233.361 101.505H240.429C240.766 101.709 241.192 101.891 241.715 102.051ZM238.03 99.1012C237.853 98.8828 237.715 98.6424 237.613 98.3802C237.09 97.0694 236.829 94.4473 236.829 90.5139V78.7798L236.35 77.8839L235.955 76.9881L235.738 77.0319V89.618C235.738 93.6533 235.991 96.3046 236.501 97.572C236.793 98.2854 237.25 98.8465 237.875 99.2544L238.03 99.1012Z" fill="black"/>
<path d="M265.96 74.3221L264.541 82.9753H263.038L262.971 82.3199H263.845L265.175 74.3221H265.96ZM264.213 72.5525L262.798 81.2053H261.269L260.612 72.5525H264.213Z" fill="black"/>
<path d="M289.375 74.4971C288.661 75.4877 288.08 76.5076 287.628 77.5563C287.149 78.6926 286.573 80.0034 285.903 81.4896C285.89 81.4604 285.868 81.3949 285.841 81.293L285.491 80.2L286.972 76.7476C287.251 76.1068 287.513 75.5533 287.761 75.0869C288.329 74.9705 288.843 74.7668 289.309 74.4754L289.375 74.4971ZM288.914 92.3495C288.914 94.8113 287.97 96.836 286.081 98.4241C284.289 99.9244 282.143 100.675 279.643 100.675C278.073 100.675 276.215 100.427 274.078 99.9315L271.524 99.3416C270.447 99.0941 269.582 98.9701 268.926 98.9701C268.057 98.9701 267.152 99.2544 266.221 99.8226L266.155 99.6915C267.857 97.011 269.103 94.4398 269.888 91.978L270.083 92.0435C270.363 94.2139 271.254 95.9331 272.77 97.2005L272.921 97.0473C272.309 96.3192 271.821 95.3866 271.458 94.2507L271.613 93.7481L271.83 93.8136C272.021 95.2263 272.491 96.4791 273.249 97.572C274.717 98.6499 276.614 99.1889 278.942 99.1889C280.733 99.1889 282.219 98.7956 283.394 98.0087C284.746 97.1057 285.425 95.802 285.425 94.0975C285.425 93.1068 285.163 92.1963 284.64 91.366C283.416 90.5503 281.053 89.8076 277.545 89.1371C274.752 88.5982 272.77 87.7099 271.591 86.4717L271.152 86.0124L271.001 86.1656C272.238 87.1997 274.114 87.9645 276.632 88.46C280.339 89.1885 282.698 89.9387 283.7 90.7106L284.161 91.0604L284.312 90.9072C283.163 89.4361 280.317 88.2559 275.781 87.3675C273.236 86.872 271.365 86.1072 270.172 85.0731C268.718 83.8203 267.99 81.9993 267.99 79.6102C267.99 77.1922 268.886 75.2836 270.673 73.8851C272.305 72.6181 274.362 71.9844 276.849 71.9844C278.579 71.9844 280.565 72.3045 282.804 72.9458C283.868 73.2518 284.666 73.4046 285.207 73.4046C285.921 73.4046 286.688 73.1641 287.522 72.6836L287.628 72.727C286.857 73.7761 286.267 74.7956 285.859 75.7862C285.38 76.9372 284.808 78.2555 284.139 79.7413L284.094 79.5229C283.859 78.7798 283.514 77.8623 283.048 76.7698L282.871 76.5076C281.651 75.6627 280.326 75.2402 278.902 75.2402C277.404 75.2402 276.113 75.6334 275.036 76.4199C273.843 77.2941 273.249 78.4592 273.249 79.9162C273.249 80.6735 273.409 81.3293 273.728 81.8829C274.703 82.4798 275.861 82.9391 277.2 83.2592L280.973 84.1551C286.267 85.4079 288.914 88.1394 288.914 92.3495ZM290.683 94.1192C290.683 96.6102 289.743 98.6424 287.868 100.216C286.094 101.687 283.939 102.423 281.412 102.423C279.709 102.423 277.851 102.183 275.847 101.702L273.293 101.09C272.318 100.857 271.453 100.74 270.695 100.74C269.764 100.74 268.864 101.017 267.99 101.57L267.902 101.439L268.252 100.871L268.642 100.26C269.023 100.129 269.414 100.063 269.822 100.063C270.478 100.063 271.32 100.187 272.353 100.434L274.907 101.046C276.974 101.541 278.84 101.789 280.516 101.789C283.106 101.789 285.309 101.024 287.127 99.4949C289.06 97.863 290.027 95.7798 290.027 93.2454C290.027 91.7451 289.708 90.4409 289.069 89.3338C290.147 90.6304 290.683 92.2256 290.683 94.1192ZM282.565 76.0484L281.824 75.2619C280.459 74.0675 278.893 73.4701 277.133 73.4701C275.634 73.4701 274.349 73.8634 273.271 74.6499C272.079 75.5387 271.48 76.7042 271.48 78.1461C271.48 79.5154 272.047 80.6371 273.183 81.5113L273.338 81.3585C272.828 80.7173 272.571 79.9454 272.571 79.042C272.571 77.6581 273.147 76.551 274.295 75.7207C275.342 74.9634 276.579 74.5843 278.007 74.5843C279.621 74.5843 281.088 75.1237 282.414 76.2016L282.565 76.0484Z" fill="black"/>
<path d="M98.6174 117.276C97.8379 118.359 97.2012 119.474 96.7082 120.62C96.1827 121.862 95.5544 123.295 94.8224 124.919C94.8064 124.888 94.7825 124.816 94.7506 124.704L94.3688 123.51L95.9921 119.736C96.2944 119.036 96.5809 118.431 96.8514 117.921C97.4717 117.794 98.0365 117.571 98.546 117.252L98.6174 117.276ZM98.1163 136.79C98.1163 139.481 97.0819 141.694 95.0131 143.43C93.0559 145.069 90.7086 145.89 87.9715 145.89C86.253 145.89 84.224 145.619 81.8851 145.077L79.0922 144.433C77.9145 144.162 76.9679 144.026 76.2518 144.026C75.2968 144.026 74.3102 144.337 73.2918 144.958L73.2204 144.815C75.0822 141.885 76.4425 139.075 77.3018 136.384L77.5168 136.455C77.8192 138.828 78.7978 140.707 80.4525 142.092L80.6197 141.925C79.9515 141.128 79.4185 140.11 79.0204 138.868L79.1875 138.318L79.4265 138.39C79.6331 139.935 80.1506 141.304 80.9779 142.498C82.5852 143.676 84.6616 144.266 87.208 144.266C89.1652 144.266 90.7884 143.836 92.0774 142.976C93.5574 141.989 94.297 140.563 94.297 138.7C94.297 137.618 94.0105 136.623 93.4377 135.715C92.1013 134.823 89.5154 134.011 85.6801 133.279C82.6247 132.69 80.4525 131.718 79.1636 130.365L78.6865 129.863L78.5193 130.03C79.8717 131.161 81.9246 131.997 84.6776 132.538C88.7355 133.334 91.3134 134.155 92.4112 134.999L92.9127 135.38L93.0799 135.213C91.8228 133.605 88.7116 132.315 83.7469 131.344C80.962 130.803 78.917 129.967 77.6121 128.836C76.0208 127.467 75.2254 125.477 75.2254 122.865C75.2254 120.222 76.2039 118.136 78.1611 116.608C79.9435 115.222 82.195 114.53 84.9161 114.53C86.8099 114.53 88.982 114.88 91.4327 115.581C92.5944 115.915 93.4696 116.082 94.0584 116.082C94.8384 116.082 95.6817 115.819 96.5884 115.294L96.7082 115.342C95.8648 116.488 95.2201 117.603 94.7745 118.685C94.2495 119.944 93.6208 121.385 92.8888 123.009L92.8409 122.77C92.5864 121.958 92.2046 120.955 91.6952 119.76L91.5045 119.474C90.1677 118.55 88.7196 118.089 87.1602 118.089C85.5209 118.089 84.1127 118.519 82.9351 119.378C81.6302 120.334 80.9779 121.607 80.9779 123.2C80.9779 124.028 81.1531 124.744 81.5029 125.349C82.5693 126.002 83.8343 126.503 85.2983 126.854L89.4276 127.833C95.2201 129.203 98.1163 132.188 98.1163 136.79ZM100.05 138.724C100.05 141.447 99.0235 143.668 96.9706 145.388C95.029 146.996 92.6742 147.8 89.9052 147.8C88.0434 147.8 86.0144 147.537 83.8183 147.012L81.0254 146.343C79.9595 146.088 79.0124 145.961 78.185 145.961C77.1666 145.961 76.18 146.264 75.2254 146.869L75.1296 146.726L75.5118 146.104L75.9415 145.436C76.3552 145.293 76.7848 145.221 77.2304 145.221C77.9465 145.221 78.8692 145.356 79.9994 145.627L82.7918 146.296C85.0518 146.837 87.0963 147.108 88.9266 147.108C91.759 147.108 94.1697 146.272 96.1592 144.6C98.2755 142.817 99.3335 140.54 99.3335 137.769C99.3335 136.129 98.9836 134.704 98.2835 133.494C99.4612 134.911 100.05 136.654 100.05 138.724ZM91.1702 118.972L90.3588 118.112C88.8628 116.806 87.1522 116.154 85.2265 116.154C83.5877 116.154 82.1791 116.584 81.0019 117.444C79.697 118.415 79.0443 119.689 79.0443 121.265C79.0443 122.762 79.6651 123.988 80.9061 124.943L81.0733 124.776C80.5164 124.075 80.2379 123.231 80.2379 122.244C80.2379 120.731 80.8667 119.522 82.1237 118.614C83.2694 117.786 84.6222 117.372 86.1816 117.372C87.9476 117.372 89.5549 117.961 91.003 119.139L91.1702 118.972Z" fill="black"/>
<path d="M138.364 117.229L138.15 117.492C136.574 119.402 135.317 121.56 134.378 123.964L134.116 123.463L133.805 122.794C134.553 120.788 135.596 118.933 136.932 117.229H138.364ZM131.012 135.882L130.272 134.927V127.26L131.012 126.209V135.882ZM137.672 145.46H111.511L114.924 142.761V132.157C113.89 132.364 112.903 132.857 111.964 133.637C112.235 132.841 112.641 132.18 113.182 131.655C113.85 131.432 114.431 131.321 114.924 131.321V130.126H114.232C112.688 130.126 111.296 130.668 110.055 131.751C110.771 129.569 112.394 128.479 114.924 128.479V117.945L111.535 115.342H136.431L136.216 115.581C134.784 117.173 133.535 119.339 132.469 122.078L132.182 121.552C131.976 121.138 131.641 120.517 131.18 119.689C130.161 119.148 128.355 118.877 125.761 118.877C125.268 118.877 124.52 118.901 123.517 118.948C122.531 118.98 121.791 118.996 121.298 118.996V128.479H126.167L129.079 124.322V133.996L127.575 132.013H121.298V143.836L125.117 143.764C126.326 143.748 127.512 143.542 128.674 143.143C130.042 142.681 131.132 141.758 131.944 140.372L133.352 137.984C133.797 139.672 134.314 141.018 134.903 142.021C135.492 143.024 136.415 144.17 137.672 145.46ZM139.606 147.347H113.468L114.352 146.654H139.248C137.799 145.269 136.734 143.987 136.049 142.809C135.731 142.283 135.381 141.463 134.999 140.349L135.142 140.086L135.285 139.847C135.635 141.455 136.153 142.817 136.837 143.931C137.41 144.887 138.333 146.025 139.606 147.347ZM130.75 119.068C130.304 118.527 129.827 118.113 129.318 117.826C128.267 117.253 126.438 116.966 123.828 116.966C123.223 116.966 122.746 116.974 122.396 116.99C120.661 117.07 119.659 117.11 119.388 117.11V128.479H120.582V118.28L124.783 118.161C127.424 118.081 129.223 118.352 130.177 118.972L130.583 119.235L130.75 119.068ZM127.05 131.321L126.167 130.126H119.388V143.812H119.985C120.176 143.812 120.375 143.828 120.582 143.86V131.321H127.05Z" fill="black"/>
<path d="M177.515 124.346C177.515 126.385 176.639 128.128 174.889 129.577C173.441 130.755 171.611 131.615 169.399 132.157C170.449 135.182 171.953 138.207 173.91 141.232C175.215 143.255 176.266 144.664 177.062 145.46L177.348 145.746L177.467 145.818L177.348 145.866C174.372 147.06 172.041 148.183 170.354 149.234L170.163 149.353L170.068 148.78C169.097 142.92 167.689 137.706 165.842 133.136L163.79 133.446C163.233 133.526 162.397 133.661 161.283 133.852L160.925 133.924V144.791L163.432 147.49H153.573L154.361 146.797H163.002L160.209 143.764V133.16L160.352 133.136L163.265 132.658C163.742 132.61 164.482 132.483 165.485 132.276C165.341 131.957 165.23 131.663 165.15 131.392L165.079 131.273L164.959 130.962C164.466 131.121 163.631 131.273 162.453 131.416C161.61 131.527 160.575 131.703 159.35 131.942L158.992 132.013V142.856L161.522 145.579H151.664L154.552 142.88V134.879C153.804 135.022 153.224 135.174 152.81 135.333L153.12 134.235L154.552 133.995V132.778C153.359 132.778 152.141 132.984 150.9 133.399L150.829 133.422C150.876 133.152 151.027 132.706 151.282 132.085L151.378 131.775L151.616 130.986L151.64 130.867L153.239 130.795C153.239 130.795 153.391 130.795 153.693 130.795C153.836 130.795 154.123 130.827 154.552 130.891V119.88L154.29 119.856L154.123 119.737L154.552 119.57V118.996C153.661 118.471 152.881 118.081 152.213 117.826C155.809 115.836 159.772 114.841 164.1 114.841C166.901 114.841 169.375 115.398 171.524 116.512C174.229 117.898 175.582 119.864 175.582 122.412C175.582 124.466 174.706 126.209 172.956 127.642C171.54 128.821 169.71 129.68 167.466 130.222C168.5 133.247 170.004 136.273 171.977 139.298C173.521 141.67 175.072 143.589 176.631 145.054L176.799 144.887C175.558 143.565 174.34 141.981 173.147 140.134C171.237 137.172 169.773 134.251 168.755 131.369C170.999 130.763 172.821 129.864 174.221 128.669C175.923 127.188 176.775 125.421 176.775 123.367C176.775 122.284 176.528 121.297 176.035 120.405C177.022 121.536 177.515 122.85 177.515 124.346ZM179.4 147.729L179.257 147.777C177.046 148.509 174.722 149.64 172.288 151.168L172.096 151.288L172.001 150.715L171.929 150.356L171.905 150.093C173.783 148.899 175.947 147.896 178.398 147.084L178.565 147.013L179.4 147.729ZM170.808 122.555C170.808 121.504 170.545 120.549 170.02 119.689C168.699 118.829 167.123 118.399 165.294 118.399C163.575 118.399 162.119 118.63 160.925 119.092V130.031H161.14L161.283 130.007C164.434 129.482 166.821 128.59 168.444 127.332C170.02 126.122 170.808 124.53 170.808 122.555ZM169.686 119.188C169.431 118.853 169.097 118.519 168.683 118.185C167.267 117.038 165.501 116.465 163.384 116.465C161.745 116.465 160.281 116.696 158.992 117.157V130.174H159.589L160.209 130.15V118.304C161.355 117.89 162.732 117.683 164.339 117.683C166.439 117.683 168.166 118.24 169.519 119.355L169.59 119.259L169.686 119.188Z" fill="black"/>
<path d="M224.281 109.681C222.02 111.863 220.064 114.522 218.406 117.659C217.357 119.65 216.044 122.706 214.469 126.83L207.547 144.983L208.239 145.58H197.904L200.863 143.12L192.079 118.089L188.666 115.151H199.813L196.638 118.304L204.635 141.209L205.064 139.991L197.88 119.331L200.171 117.086H201.746L198.548 120.239L205.279 139.489L211.079 124.299C212.591 120.334 213.347 117.508 213.347 115.82C213.347 114.228 212.782 112.858 211.652 111.712L211.891 111.664C216.522 110.74 219.967 109.403 222.228 107.651L222.348 107.771C220.228 109.825 218.552 111.943 217.309 114.124C216.02 116.417 214.437 120.015 212.559 124.92L205.565 143.215L206.783 144.266L213.753 125.971C214.739 123.375 215.456 121.552 215.901 120.501C216.761 118.463 217.612 116.704 218.455 115.223C219.217 113.901 220.144 112.603 221.226 111.33C222.432 110.756 223.412 110.175 224.161 109.586L224.281 109.681ZM210.125 147.49H199.813L200.696 146.797H209.313L210.125 147.49Z" fill="black"/>
<path d="M248.415 117.061L245.408 120.094V144.839L246.269 145.579H235.933L239.032 142.976V117.945L235.906 115.151H246.481L243.475 118.184V143.191L244.668 144.242V119.282L246.863 117.061H248.415ZM248.202 147.49H237.866L238.726 146.797H247.342L248.202 147.49Z" fill="black"/>
<path d="M285.513 117.683L285.323 118.017C283.7 120.867 282.449 123.351 281.576 125.469L281.407 125.875L281.288 125.803C281.226 125.485 281.119 125 280.977 124.346C281.869 122.245 282.871 120.191 283.984 118.185C284.462 118.105 284.91 117.906 285.323 117.587L285.513 117.683ZM283.602 115.796L283.412 116.13C281.789 118.98 280.538 121.464 279.665 123.582L279.496 123.988L279.377 123.917C279.106 122.086 278.494 120.509 277.541 119.188C276.41 118.423 275.16 118.041 273.794 118.041C270.212 118.041 267.866 120.429 266.753 125.206C266.323 127.054 266.106 129.298 266.106 131.942C266.106 136.448 266.886 139.998 268.447 142.594L268.66 142.952L268.922 143.334C270.083 144.162 271.476 144.576 273.103 144.576C275.519 144.576 277.404 143.685 278.756 141.901C279.918 140.373 280.614 138.327 280.835 135.763C280.835 135.158 281.066 134.856 281.527 134.856C282.068 134.856 282.339 135.341 282.339 136.313C282.339 137.809 281.988 139.385 281.288 141.042C279.838 144.481 276.858 146.2 272.336 146.2C267.977 146.2 264.621 144.6 262.262 141.4C260.165 138.55 259.114 134.864 259.114 130.342C259.114 126.17 260.218 122.571 262.43 119.546C264.882 116.186 268.11 114.506 272.123 114.506C273.856 114.506 275.861 114.92 278.135 115.748C279.332 116.178 280.326 116.393 281.119 116.393C281.931 116.393 282.698 116.154 283.412 115.677L283.602 115.796ZM284.25 138.2C284.25 139.728 283.904 141.304 283.221 142.928C281.775 146.368 278.791 148.087 274.269 148.087C271.152 148.087 268.549 147.267 266.465 145.627C268.389 146.805 270.664 147.395 273.293 147.395C277.922 147.395 280.986 145.627 282.48 142.093C282.817 141.296 283.079 140.476 283.27 139.633C283.478 138.693 283.562 137.897 283.531 137.244L283.509 136.766H283.389C283.961 136.766 284.25 137.244 284.25 138.2ZM277.16 118.638L276.969 118.495L276.801 118.256C275.462 116.855 273.825 116.154 271.883 116.154C269.848 116.154 268.137 117.054 266.753 118.853C265.033 121.098 264.173 124.824 264.173 130.031C264.173 134.553 264.962 138.112 266.536 140.707C267.095 141.631 267.72 142.371 268.421 142.928L268.589 142.761C268.256 142.379 267.95 141.957 267.68 141.495C266.155 138.963 265.392 135.461 265.392 130.986C265.392 121.894 267.875 117.349 272.837 117.349C274.38 117.349 275.767 117.842 276.991 118.829L277.16 118.638Z" fill="black"/>
<path d="M323.946 117.229L323.733 117.492C322.155 119.402 320.9 121.56 319.96 123.964L319.699 123.463L319.388 122.794C320.138 120.788 321.179 118.933 322.514 117.229H323.946ZM316.595 135.882L315.854 134.927V127.26L316.595 126.209V135.882ZM323.255 145.46H297.095L300.509 142.761V132.157C299.471 132.364 298.487 132.857 297.547 133.637C297.817 132.841 298.225 132.18 298.766 131.655C299.431 131.432 300.012 131.321 300.509 131.321V130.126H299.812C298.269 130.126 296.877 130.668 295.636 131.751C296.354 129.569 297.977 128.479 300.509 128.479V117.945L297.117 115.342H322.013L321.8 115.581C320.368 117.173 319.118 119.339 318.049 122.078L317.765 121.552C317.557 121.138 317.224 120.517 316.763 119.689C315.744 119.148 313.939 118.877 311.345 118.877C310.849 118.877 310.104 118.901 309.102 118.948C308.113 118.98 307.372 118.996 306.88 118.996V128.479H311.749L314.662 124.322V133.996L313.159 132.013H306.88V143.836L310.698 143.764C311.908 143.748 313.092 143.542 314.254 143.143C315.624 142.681 316.715 141.758 317.526 140.372L318.936 137.984C319.379 139.672 319.898 141.018 320.488 142.021C321.073 143.024 321.995 144.17 323.255 145.46ZM325.188 147.347H299.05L299.932 146.654H324.829C323.383 145.269 322.315 143.987 321.632 142.809C321.313 142.283 320.962 141.463 320.581 140.349L320.723 140.086L320.869 139.847C321.219 141.455 321.734 142.817 322.421 143.931C322.993 144.887 323.915 146.025 325.188 147.347ZM316.333 119.068C315.885 118.527 315.411 118.113 314.901 117.826C313.85 117.253 312.019 116.966 309.412 116.966C308.804 116.966 308.33 116.974 307.98 116.99C306.242 117.07 305.24 117.11 304.969 117.11V128.479H306.162V118.28L310.365 118.161C313.008 118.081 314.804 118.352 315.761 118.972L316.165 119.235L316.333 119.068ZM312.631 131.321L311.749 130.126H304.969V143.812H305.568C305.758 143.812 305.958 143.828 306.162 143.86V131.321H312.631Z" fill="black"/>
<path d="M339.283 147.194H335.417L335.913 146.769V142.889L335.417 142.445H337.128L336.623 142.922V146.915H336.72C336.747 146.915 336.778 146.917 336.809 146.922V143.09L337.181 142.743H337.439L336.929 143.224V146.926L337.266 146.941C337.647 146.958 337.957 146.87 338.188 146.676C338.387 146.51 338.521 146.241 338.6 145.871C338.813 146.495 339.044 146.936 339.283 147.194ZM339.589 147.492H335.727L335.856 147.384H339.527C339.296 147.148 339.079 146.774 338.884 146.262L338.906 146.165C339.115 146.787 339.345 147.229 339.589 147.492Z" fill="black"/>
<path d="M343.943 147.194H340.077L340.578 146.769V142.889L340.077 142.445H341.793L341.283 142.922V146.915H341.38C341.411 146.915 341.442 146.917 341.473 146.922V143.09L341.841 142.743H342.099L341.593 143.224V146.926L341.926 146.941C342.311 146.958 342.617 146.87 342.848 146.676C343.047 146.51 343.185 146.241 343.26 145.871C343.478 146.495 343.704 146.936 343.943 147.194ZM344.249 147.492H340.392L340.52 147.384H344.187C343.956 147.148 343.744 146.774 343.544 146.262L343.571 146.165C343.779 146.787 344.005 147.229 344.249 147.492Z" fill="black"/>
<path d="M348.945 142.841L348.914 142.893C348.657 143.338 348.457 143.725 348.32 144.056L348.293 144.119L348.275 144.108C348.262 144.058 348.249 143.983 348.222 143.881C348.364 143.553 348.524 143.232 348.701 142.919C348.781 142.907 348.852 142.876 348.914 142.826L348.945 142.841ZM348.643 142.546L348.612 142.598C348.355 143.043 348.156 143.431 348.014 143.761L347.987 143.825L347.97 143.813C347.925 143.528 347.828 143.282 347.677 143.076C347.495 142.956 347.296 142.897 347.078 142.897C346.511 142.897 346.134 143.269 345.956 144.015C345.89 144.303 345.855 144.654 345.855 145.066C345.855 145.769 345.979 146.324 346.227 146.728L346.262 146.785L346.302 146.844C346.489 146.973 346.71 147.038 346.967 147.038C347.353 147.038 347.655 146.899 347.872 146.62C348.054 146.382 348.165 146.062 348.2 145.662C348.2 145.568 348.24 145.521 348.311 145.521C348.4 145.521 348.439 145.596 348.439 145.748C348.439 145.982 348.386 146.228 348.275 146.486C348.04 147.023 347.566 147.291 346.848 147.291C346.152 147.291 345.62 147.041 345.243 146.542C344.906 146.097 344.742 145.522 344.742 144.816C344.742 144.165 344.915 143.604 345.269 143.132C345.659 142.607 346.174 142.345 346.812 142.345C347.087 142.345 347.411 142.41 347.77 142.539C347.961 142.606 348.12 142.64 348.249 142.64C348.377 142.64 348.497 142.602 348.612 142.527L348.643 142.546ZM348.745 146.043C348.745 146.281 348.692 146.527 348.581 146.781C348.351 147.317 347.876 147.586 347.154 147.586C346.657 147.586 346.245 147.458 345.912 147.202C346.218 147.386 346.582 147.478 346.998 147.478C347.739 147.478 348.227 147.202 348.462 146.65C348.515 146.526 348.559 146.398 348.59 146.266C348.621 146.12 348.635 145.995 348.63 145.894L348.626 145.819H348.608C348.701 145.819 348.745 145.894 348.745 146.043ZM347.615 142.99L347.584 142.967L347.557 142.93C347.344 142.711 347.083 142.602 346.777 142.602C346.449 142.602 346.178 142.743 345.956 143.023C345.682 143.374 345.549 143.955 345.549 144.768C345.549 145.474 345.673 146.029 345.921 146.434C346.01 146.578 346.112 146.694 346.223 146.781L346.249 146.754C346.196 146.695 346.147 146.629 346.107 146.557C345.863 146.162 345.739 145.615 345.739 144.917C345.739 143.498 346.134 142.788 346.928 142.788C347.171 142.788 347.393 142.865 347.588 143.019L347.615 142.99Z" fill="black"/>
<path d="M72.4024 170.784L72.3133 170.94C71.5553 172.271 70.9719 173.431 70.5629 174.42L70.485 174.61L70.4291 174.576C70.3995 174.428 70.3513 174.201 70.2843 173.896C70.7005 172.914 71.1688 171.955 71.6891 171.018C71.912 170.981 72.12 170.888 72.3133 170.739L72.4024 170.784ZM71.5107 169.902L71.4213 170.058C70.6634 171.39 70.0799 172.55 69.6712 173.539L69.5931 173.728L69.5374 173.695C69.4109 172.84 69.1248 172.103 68.679 171.486C68.1512 171.129 67.5677 170.951 66.9286 170.951C65.2563 170.951 64.16 172.066 63.6396 174.298C63.4389 175.16 63.3386 176.209 63.3386 177.443C63.3386 179.548 63.7028 181.206 64.4313 182.419L64.5316 182.586L64.6543 182.764C65.1968 183.151 65.8472 183.344 66.6052 183.344C67.735 183.344 68.6156 182.928 69.2475 182.095C69.79 181.381 70.1134 180.425 70.2173 179.228C70.2173 178.946 70.3253 178.804 70.5407 178.804C70.7933 178.804 70.9198 179.031 70.9198 179.485C70.9198 180.184 70.7562 180.92 70.4291 181.694C69.7529 183.3 68.3592 184.103 66.2485 184.103C64.212 184.103 62.6438 183.356 61.5437 181.861C60.5625 180.53 60.0721 178.808 60.0721 176.696C60.0721 174.747 60.5886 173.067 61.6217 171.654C62.7663 170.084 64.2752 169.3 66.1482 169.3C66.9582 169.3 67.8948 169.493 68.9576 169.88C69.515 170.081 69.9797 170.181 70.3513 170.181C70.7301 170.181 71.0871 170.07 71.4213 169.846L71.5107 169.902ZM71.8117 180.366C71.8117 181.08 71.652 181.816 71.3321 182.575C70.6559 184.181 69.2622 184.984 67.1515 184.984C65.6947 184.984 64.4795 184.601 63.5059 183.835C64.4053 184.386 65.4681 184.661 66.6943 184.661C68.8573 184.661 70.2879 183.835 70.9866 182.184C71.1427 181.812 71.2654 181.429 71.3546 181.035C71.4512 180.597 71.4919 180.225 71.4772 179.92L71.4662 179.697H71.4102C71.6777 179.697 71.8117 179.92 71.8117 180.366ZM68.5004 171.23L68.4112 171.163L68.3334 171.051C67.7089 170.397 66.9433 170.07 66.0366 170.07C65.0852 170.07 64.2863 170.49 63.6396 171.33C62.8369 172.379 62.4356 174.119 62.4356 176.551C62.4356 178.663 62.8036 180.325 63.5394 181.537C63.7994 181.969 64.093 182.314 64.42 182.575L64.4981 182.497C64.3419 182.318 64.2009 182.121 64.0744 181.905C63.3611 180.723 63.0041 179.087 63.0041 176.997C63.0041 172.751 64.1636 170.627 66.4825 170.627C67.2036 170.627 67.8502 170.858 68.4226 171.319L68.5004 171.23Z" fill="#606060"/>
<path d="M91.7183 177.811C91.7183 179.797 91.2501 181.426 90.3135 182.697C89.2729 184.125 87.7939 184.839 85.8762 184.839C84.4717 184.839 83.2192 184.393 82.1193 183.501C81.8664 183.3 81.651 183.095 81.4727 182.887L81.3946 182.965L81.6064 183.144C82.6916 184.058 83.9624 184.516 85.4193 184.516C87.3591 184.516 88.8677 183.791 89.9455 182.34C90.9045 181.039 91.3838 179.381 91.3838 177.365C91.3838 175.067 90.8375 173.23 89.745 171.855L89.4886 171.531L89.4105 171.62C89.5739 171.784 89.8043 172.029 90.1017 172.356C91.1794 173.725 91.7183 175.543 91.7183 177.811ZM90.815 176.93C90.815 178.916 90.347 180.544 89.4105 181.816C88.3698 183.244 86.8908 183.958 84.9732 183.958C83.5612 183.958 82.3087 183.512 81.2162 182.619C79.6035 181.296 78.7968 179.332 78.7968 176.729C78.7968 174.654 79.2875 172.959 80.2686 171.642C81.3611 170.185 82.9107 169.456 84.9175 169.456C86.8797 169.456 88.3884 170.241 89.444 171.81C90.3581 173.163 90.815 174.87 90.815 176.93ZM88.4515 176.718C88.4515 174.338 88.1544 172.669 87.5599 171.709C87.53 171.672 87.4965 171.646 87.4593 171.631C87.4297 171.639 87.4037 171.646 87.3813 171.653L87.4593 171.564C86.9764 171.252 86.419 171.096 85.787 171.096C83.2156 171.096 81.9296 173.346 81.9296 177.845C81.9296 180.054 82.2826 181.671 82.9888 182.697C83.5313 183.032 84.1446 183.199 84.8283 183.199C87.2439 183.199 88.4515 181.039 88.4515 176.718ZM87.2699 171.297C86.6604 170.575 85.8651 170.215 84.884 170.215C82.3125 170.215 81.0265 172.464 81.0265 176.964C81.0265 179.76 81.6025 181.615 82.7548 182.53L82.8326 182.452C82.0002 181.455 81.584 179.775 81.584 177.41C81.584 172.985 82.8326 170.772 85.3301 170.772C86.0435 170.772 86.664 170.973 87.1918 171.375L87.2699 171.297Z" fill="#606060"/>
<path d="M111.034 177.811C111.034 179.797 110.566 181.426 109.629 182.697C108.589 184.125 107.11 184.839 105.192 184.839C103.788 184.839 102.535 184.393 101.435 183.501C101.182 183.3 100.967 183.095 100.789 182.887L100.711 182.965L100.922 183.144C102.008 184.058 103.278 184.516 104.735 184.516C106.675 184.516 108.184 183.791 109.261 182.34C110.22 181.039 110.7 179.381 110.7 177.365C110.7 175.067 110.153 173.23 109.061 171.855L108.805 171.531L108.726 171.62C108.89 171.784 109.12 172.029 109.418 172.356C110.495 173.725 111.034 175.543 111.034 177.811ZM110.131 176.93C110.131 178.916 109.663 180.544 108.726 181.816C107.686 183.244 106.207 183.958 104.289 183.958C102.877 183.958 101.625 183.512 100.532 182.619C98.9194 181.296 98.113 179.332 98.113 176.729C98.113 174.654 98.6034 172.959 99.5846 171.642C100.677 170.185 102.227 169.456 104.233 169.456C106.196 169.456 107.704 170.241 108.76 171.81C109.674 173.163 110.131 174.87 110.131 176.93ZM107.768 176.718C107.768 174.338 107.47 172.669 106.876 171.709C106.846 171.672 106.813 171.646 106.775 171.631C106.746 171.639 106.72 171.646 106.697 171.653L106.775 171.564C106.292 171.252 105.735 171.096 105.103 171.096C102.532 171.096 101.246 173.346 101.246 177.845C101.246 180.054 101.599 181.671 102.305 182.697C102.847 183.032 103.461 183.199 104.144 183.199C106.56 183.199 107.768 181.039 107.768 176.718ZM106.586 171.297C105.976 170.575 105.181 170.215 104.2 170.215C101.628 170.215 100.343 172.464 100.343 176.964C100.343 179.76 100.919 181.615 102.071 182.53L102.149 182.452C101.316 181.455 100.9 179.775 100.9 177.41C100.9 172.985 102.149 170.772 104.646 170.772C105.359 170.772 105.98 170.973 106.508 171.375L106.586 171.297Z" fill="#606060"/>
<path d="M128.777 183.813H117.439L118.9 182.541V170.928L117.439 169.601H122.467L120.973 171.029V182.976H121.263C121.345 182.976 121.434 182.984 121.531 182.998V171.531L122.612 170.493H123.37L121.876 171.932V183.01L122.858 183.054C123.987 183.106 124.89 182.842 125.567 182.262C126.146 181.764 126.548 180.961 126.771 179.853C127.403 181.719 128.071 183.039 128.777 183.813ZM129.669 184.705H118.353L118.733 184.382H129.491C128.815 183.675 128.187 182.556 127.607 181.024L127.674 180.734C128.291 182.593 128.956 183.917 129.669 184.705Z" fill="#606060"/>
<path d="M141.973 170.493L140.568 171.91V183.467L140.969 183.813H136.142L137.591 182.597V170.906L136.131 169.601H141.07L139.665 171.018V182.697L140.222 183.188V171.531L141.248 170.493H141.973ZM141.872 184.705H137.045L137.446 184.382H141.471L141.872 184.705Z" fill="#606060"/>
<path d="M161.311 170.493C160.545 170.887 160.055 171.256 159.839 171.598C159.46 172.193 159.27 173.044 159.27 174.152V184.705H157.431L157.264 184.382H158.925V173.706C158.925 172.606 159.107 171.776 159.471 171.218C159.583 171.048 159.858 170.806 160.296 170.493H161.311ZM160.408 169.601C159.65 170.002 159.159 170.371 158.936 170.705C158.557 171.278 158.367 172.13 158.367 173.26V183.813H156.528L151.333 173.661L151.232 173.684V179.217C151.232 181.143 151.362 182.497 151.623 183.277L151.645 183.344L151.689 183.411C152.002 183.59 152.269 183.709 152.492 183.768L152.392 183.813H147.575C148.326 183.486 148.835 183.073 149.103 182.575C149.415 181.987 149.571 181.028 149.571 179.697V170.75L148.189 169.601H153.418L151.957 170.572L157.353 181.158L157.453 181.136V180.913L157.442 180.678L152.548 171.062L153.395 170.493H154.321L152.86 171.464L157.353 180.288L157.453 180.265V173.349C157.453 172.107 157.345 171.248 157.13 170.772L156.628 170.493H156.773L156.918 170.616L156.996 170.538C156.766 170.241 156.346 169.928 155.736 169.601H160.408ZM153.384 184.661L153.284 184.705H148.479C148.702 184.623 148.913 184.516 149.114 184.382H152.726C152.897 184.486 153.117 184.579 153.384 184.661ZM151.5 183.155C151.411 183.043 151.34 182.92 151.288 182.787C151.021 182.117 150.887 180.779 150.887 178.771V172.78L150.641 172.323L150.441 171.866L150.329 171.888V178.313C150.329 180.373 150.459 181.727 150.72 182.374C150.868 182.738 151.102 183.024 151.422 183.233L151.5 183.155Z" fill="#606060"/>
<path d="M181.128 170.94L179.21 174.71C179.18 174.45 179.125 174.19 179.043 173.929L180.459 171.163C180.697 171.118 180.92 171.044 181.128 170.94ZM181.964 176.64L180.515 178.023V183.4L180.949 183.813H174.272C173.335 183.813 172.558 183.698 171.941 183.467C171.332 183.237 170.719 182.835 170.102 182.262C168.63 180.909 167.894 179.098 167.894 176.83C167.894 174.48 168.589 172.646 169.979 171.33C171.198 170.177 172.651 169.601 174.338 169.601C174.866 169.601 175.635 169.724 176.646 169.969C177.657 170.207 178.415 170.326 178.92 170.326C179.352 170.326 179.79 170.233 180.236 170.047L178.318 173.807C178.207 173.026 177.973 172.356 177.616 171.799C177.066 171.442 176.423 171.263 175.687 171.263C174.097 171.263 172.908 171.932 172.12 173.271C171.48 174.357 171.161 175.759 171.161 177.477C171.161 179.492 171.551 181.031 172.331 182.095C173.171 182.735 174.279 183.054 175.654 183.054H177.538V177.41H174.706C174.022 177.41 173.539 177.242 173.257 176.908C173.51 177.012 173.844 177.064 174.26 177.064H177.538V176.506H173.814C172.692 176.506 172.131 176.075 172.131 175.212C172.131 174.907 172.209 174.636 172.365 174.398C172.543 174.123 172.778 173.985 173.067 173.985C173.261 173.985 173.424 174.059 173.558 174.208C173.699 174.349 173.77 174.517 173.77 174.71C173.77 175.037 173.647 175.227 173.402 175.279L173.09 175.346C172.971 175.346 172.904 175.402 172.889 175.513C172.889 175.662 173.049 175.737 173.368 175.737H173.814L174.104 175.725C174.268 175.584 174.342 175.398 174.327 175.167L174.316 174.989L174.45 175.112C174.599 175.246 174.673 175.413 174.673 175.614L174.662 175.647V175.737H181.072L179.612 177.12V182.563L180.169 183.077V177.611L181.195 176.64H181.964ZM182.142 184.817H175.163C174.197 184.817 173.417 184.709 172.822 184.493C172.101 184.233 171.466 183.82 170.916 183.255L170.559 182.887L170.525 182.697C171.187 183.3 171.815 183.709 172.41 183.924C173.049 184.155 173.818 184.27 174.717 184.27H181.518L182.142 184.817ZM177.438 171.553L177.215 171.297C176.672 170.672 175.862 170.359 174.784 170.359C173.194 170.359 172.004 171.029 171.217 172.367C170.577 173.461 170.258 174.863 170.258 176.573C170.258 179.064 170.867 180.842 172.086 181.905L172.164 181.827C171.273 180.764 170.826 179.165 170.826 177.03C170.826 175.342 171.131 173.966 171.741 172.903C172.506 171.587 173.669 170.928 175.23 170.928C176.078 170.928 176.787 171.163 177.36 171.631L177.438 171.553Z" fill="#606060"/>
<path d="M236.447 170.482L234.987 171.866V183.489L235.344 183.813H230.605L232.01 182.575V178.046C231.832 178.046 231.56 178.061 231.196 178.09C230.832 178.113 230.561 178.124 230.382 178.124H229.468C229.082 178.124 228.836 178.105 228.732 178.068L227.272 177.9V183.378L227.818 183.813H222.89L224.295 182.575V177.9C223.819 178.064 223.437 178.332 223.147 178.704L223.069 178.648C223.217 178.261 223.422 177.926 223.682 177.644C223.883 177.562 224.087 177.503 224.295 177.465V176.885C223.426 176.885 222.745 177.198 222.255 177.822L222.166 177.767C222.589 176.748 223.299 176.131 224.295 175.915V170.861L222.89 169.601H227.919L226.369 170.984V175.837C226.555 175.874 226.744 175.893 226.937 175.893V171.475L228.041 170.482H228.822L227.272 171.866V175.926L228.621 176.015L229.992 176.026C230.668 176.034 231.341 176 232.01 175.926V170.761L230.761 169.601H235.544L234.084 170.984V182.686L234.652 183.188V171.475L235.689 170.482H236.447ZM236.247 184.694H231.497L231.876 184.371H235.879L236.247 184.694ZM228.71 184.694H223.782L224.161 184.371H228.286L228.71 184.694ZM232.01 177.644V177.008C231.23 177.157 230.386 177.231 229.479 177.231H228.543C228.171 177.231 227.937 177.216 227.84 177.187L226.692 177.053L226.681 177.164C226.689 177.149 226.7 177.134 226.715 177.12C226.677 177.053 226.562 177.019 226.369 177.019V182.686L226.937 183.121V177.577L227.105 177.599L228.264 177.744C228.45 177.744 228.729 177.752 229.1 177.767C229.472 177.782 229.751 177.789 229.936 177.789C230.687 177.789 231.378 177.741 232.01 177.644Z" fill="#606060"/>
<path d="M255.071 170.571L254.971 170.694C254.235 171.586 253.648 172.594 253.21 173.717L253.087 173.483L252.942 173.17C253.291 172.233 253.778 171.367 254.403 170.571H255.071ZM251.638 179.283L251.292 178.837V175.256L251.638 174.766V179.283ZM254.748 183.757H242.529L244.124 182.496V177.543C243.641 177.64 243.18 177.871 242.741 178.235C242.867 177.863 243.057 177.554 243.31 177.309C243.622 177.205 243.893 177.153 244.124 177.153V176.595H243.8C243.079 176.595 242.429 176.848 241.849 177.354C242.184 176.335 242.942 175.825 244.124 175.825V170.906L242.54 169.69H254.168L254.068 169.801C253.399 170.545 252.816 171.557 252.318 172.836L252.184 172.59C252.087 172.397 251.931 172.107 251.716 171.72C251.24 171.467 250.397 171.341 249.185 171.341C248.955 171.341 248.605 171.352 248.137 171.374C247.676 171.389 247.331 171.397 247.1 171.397V175.825H249.375L250.735 173.884V178.402L250.032 177.476H247.1V182.998L248.884 182.965C249.449 182.957 250.003 182.861 250.545 182.675C251.184 182.459 251.694 182.028 252.073 181.381L252.73 180.265C252.938 181.054 253.18 181.682 253.455 182.151C253.73 182.619 254.161 183.154 254.748 183.757ZM255.651 184.638H243.443L243.856 184.315H255.484C254.808 183.668 254.31 183.069 253.99 182.519C253.841 182.273 253.678 181.89 253.5 181.37L253.566 181.247L253.633 181.135C253.797 181.886 254.039 182.522 254.358 183.043C254.626 183.489 255.057 184.021 255.651 184.638ZM251.515 171.43C251.307 171.177 251.084 170.984 250.846 170.85C250.356 170.582 249.501 170.449 248.282 170.449C248 170.449 247.777 170.452 247.613 170.46C246.803 170.497 246.335 170.515 246.208 170.515V175.825H246.766V171.062L248.728 171.006C249.962 170.969 250.802 171.095 251.247 171.385L251.437 171.508L251.515 171.43ZM249.787 177.153L249.375 176.595H246.208V182.987H246.487C246.576 182.987 246.669 182.995 246.766 183.01V177.153H249.787Z" fill="#606060"/>
<path d="M276.995 183.813H271.701L273.15 182.575L272.604 181.147L272.08 179.674C271.322 180.351 270.708 181.091 270.24 181.894L270.084 181.649L269.995 181.515L269.939 181.426C270.445 180.593 271.091 179.834 271.879 179.15C271.812 178.986 271.704 178.748 271.556 178.436C270.656 179.187 269.921 180.039 269.348 180.991C268.902 180.269 268.341 179.496 267.665 178.67L267.453 179.217C267.379 179.403 267.323 179.555 267.286 179.674L266.907 180.823C266.706 181.433 266.606 181.95 266.606 182.374C266.606 182.857 266.71 183.277 266.918 183.634C267.052 183.865 267.327 184.188 267.743 184.605L267.843 184.705H262.659C262.741 184.661 262.826 184.612 262.915 184.56C263.005 184.508 263.098 184.449 263.194 184.382H267.709L267.442 184.159L267.375 184.069C266.899 183.608 266.598 183.237 266.472 182.954C266.331 182.641 266.26 182.299 266.26 181.928C266.26 181.563 266.364 181.061 266.572 180.422L267.118 178.771L267.33 178.257L266.795 177.622L266.394 178.771L266.015 179.92C265.807 180.552 265.703 181.072 265.703 181.481C265.703 181.92 265.773 182.273 265.914 182.541C266.078 182.854 266.39 183.24 266.851 183.701L266.907 183.779L266.951 183.813H261.734C262.707 183.277 263.491 182.563 264.086 181.671C264.74 180.689 265.342 179.291 265.892 177.477L265.223 177.376L265.357 177.142L265.937 177.354L265.993 177.108C265.569 176.759 265.011 176.547 264.32 176.473C264.721 175.841 265.011 175.253 265.19 174.71L265.246 174.766C265.268 174.788 265.286 174.799 265.301 174.799L265.825 175.29C266.056 175.506 266.282 175.684 266.505 175.826C266.751 175.231 267.074 174.394 267.475 173.316L268.412 170.783L267.286 169.601H272.158L271.054 170.828L272.926 175.748L273.083 175.647C273.119 175.625 273.184 175.599 273.274 175.569L271.645 171.308L272.359 170.504H273.06L271.957 171.732L273.385 175.48C273.704 175.272 273.98 175.067 274.209 174.866L274.565 174.554C274.73 175.327 275.006 176.034 275.39 176.673L275.034 176.651C274.359 176.607 273.815 176.729 273.405 177.019L275.446 182.597L276.016 183.043L273.998 177.521C274.369 177.291 274.859 177.187 275.469 177.209L276.036 177.231C275.712 176.659 275.464 176.116 275.302 175.602L275.469 175.458C275.632 176.231 275.908 176.938 276.294 177.577L275.926 177.555C275.621 177.54 275.305 177.566 274.977 177.633C274.725 177.692 274.503 177.789 274.31 177.923L276.237 183.222L276.995 183.813ZM277.889 184.705H272.593L272.993 184.382H277.454L277.889 184.705ZM269.404 172.624L269.047 171.62L267.197 176.484L267.743 177.042L269.404 172.624ZM271.121 177.187L269.649 173.271L268.1 177.454L268.345 177.767C268.419 177.871 268.531 178.027 268.679 178.235L269.348 179.161L271.121 177.187Z" fill="#606060"/>
<path d="M297.537 170.728L297.45 170.661L296.692 171.988C296.55 172.234 296.427 172.513 296.324 172.825C296.218 173.13 296.097 173.446 295.955 173.773L295.932 173.728L295.898 173.606L295.754 173.048L296.045 172.278C296.074 172.189 296.117 172.074 296.179 171.932C296.192 171.88 296.246 171.769 296.334 171.598L296.957 170.482H297.537C297.501 170.564 297.486 170.631 297.494 170.683L297.537 170.728ZM296.635 169.601L296.545 169.779L295.787 171.107C295.7 171.263 295.509 171.728 295.22 172.501C295.166 172.643 295.115 172.773 295.063 172.892L295.03 172.847L295.007 172.724C294.927 172.278 294.777 171.877 294.561 171.52C294.161 171.341 293.677 171.252 293.112 171.252H291.919V183.501L292.241 183.813H287.481L288.943 182.575V171.252H288.698C287.724 171.252 287.025 171.457 286.603 171.866C286.118 172.334 285.876 173.022 285.876 173.929L285.708 173.55L285.564 173.126C285.654 172.382 285.868 171.847 286.211 171.52C286.628 171.118 287.309 170.917 288.252 170.917H288.641C288.775 170.94 288.876 170.954 288.943 170.962V170.449L288.285 170.382C288.128 170.367 287.968 170.359 287.806 170.359C286.832 170.359 286.128 170.568 285.698 170.984C285.216 171.453 284.974 172.141 284.974 173.048C284.915 172.877 284.842 172.684 284.762 172.468C284.368 171.367 283.938 170.419 283.469 169.623L296.635 169.601ZM293.136 184.694H288.386L288.775 184.371H292.788L293.136 184.694ZM294.383 171.23C294.339 171.163 294.308 171.122 294.293 171.107C294.249 171.048 294.172 170.973 294.061 170.884C293.62 170.534 293.004 170.359 292.21 170.359H291.017V182.664L291.584 183.188V170.917H292.656C293.347 170.917 293.896 171.048 294.306 171.308L294.383 171.23Z" fill="#606060"/>
<path d="M309.83 170.493L308.426 171.91V183.467L308.828 183.813H303.998L305.449 182.597V170.906L303.988 169.601H308.928L307.521 171.018V182.697L308.08 183.188V171.531L309.106 170.493H309.83ZM309.73 184.705H304.903L305.305 184.382H309.328L309.73 184.705Z" fill="#606060"/>
<path d="M329.169 170.493C328.404 170.887 327.911 171.256 327.697 171.598C327.319 172.193 327.128 173.044 327.128 174.152V184.705H325.288L325.12 184.382H326.783V173.706C326.783 172.606 326.966 171.776 327.329 171.218C327.44 171.048 327.715 170.806 328.154 170.493H329.169ZM328.264 169.601C327.507 170.002 327.017 170.371 326.793 170.705C326.414 171.278 326.226 172.13 326.226 173.26V183.813H324.386L319.19 173.661L319.09 173.684V179.217C319.09 181.143 319.219 182.497 319.479 183.277L319.502 183.344L319.546 183.411C319.858 183.59 320.126 183.709 320.35 183.768L320.25 183.813H315.433C316.183 183.486 316.693 183.073 316.961 182.575C317.273 181.987 317.428 181.028 317.428 179.697V170.75L316.046 169.601H321.275L319.814 170.572L325.211 181.158L325.311 181.136V180.913L325.301 180.678L320.404 171.062L321.252 170.493H322.177L320.719 171.464L325.211 180.288L325.311 180.265V173.349C325.311 172.107 325.203 171.248 324.986 170.772L324.486 170.493H324.631L324.775 170.616L324.852 170.538C324.623 170.241 324.203 169.928 323.595 169.601H328.264ZM321.242 184.661L321.141 184.705H316.335C316.559 184.623 316.77 184.516 316.971 184.382H320.585C320.755 184.486 320.974 184.579 321.242 184.661ZM319.358 183.155C319.268 183.043 319.198 182.92 319.147 182.787C318.878 182.117 318.744 180.779 318.744 178.771V172.78L318.5 172.323L318.299 171.866L318.188 171.888V178.313C318.188 180.373 318.317 181.727 318.577 182.374C318.726 182.738 318.958 183.024 319.281 183.233L319.358 183.155Z" fill="#606060"/>
<path d="M348.985 170.94L347.067 174.71C347.039 174.45 346.982 174.19 346.9 173.929L348.317 171.163C348.554 171.118 348.778 171.044 348.985 170.94ZM349.822 176.64L348.371 178.023V183.4L348.807 183.813H342.129C341.191 183.813 340.416 183.698 339.8 183.467C339.189 183.237 338.576 182.835 337.96 182.262C336.488 180.909 335.751 179.098 335.751 176.83C335.751 174.48 336.447 172.646 337.836 171.33C339.055 170.177 340.508 169.601 342.196 169.601C342.725 169.601 343.493 169.724 344.503 169.969C345.516 170.207 346.273 170.326 346.779 170.326C347.209 170.326 347.647 170.233 348.093 170.047L346.176 173.807C346.065 173.026 345.83 172.356 345.475 171.799C344.923 171.442 344.281 171.263 343.544 171.263C341.954 171.263 340.766 171.932 339.978 173.271C339.338 174.357 339.019 175.759 339.019 177.477C339.019 179.492 339.408 181.031 340.189 182.095C341.029 182.735 342.137 183.054 343.511 183.054H345.395V177.41H342.565C341.879 177.41 341.397 177.242 341.114 176.908C341.367 177.012 341.702 177.064 342.119 177.064H345.395V176.506H341.671C340.55 176.506 339.988 176.075 339.988 175.212C339.988 174.907 340.068 174.636 340.222 174.398C340.4 174.123 340.635 173.985 340.926 173.985C341.119 173.985 341.282 174.059 341.416 174.208C341.557 174.349 341.627 174.517 341.627 174.71C341.627 175.037 341.506 175.227 341.258 175.279L340.947 175.346C340.828 175.346 340.761 175.402 340.745 175.513C340.745 175.662 340.905 175.737 341.225 175.737H341.671L341.962 175.725C342.124 175.584 342.199 175.398 342.184 175.167L342.173 174.989L342.307 175.112C342.457 175.246 342.531 175.413 342.531 175.614L342.519 175.647V175.737H348.93L347.469 177.12V182.563L348.026 183.077V177.611L349.052 176.64H349.822ZM350 184.817H343.021C342.055 184.817 341.274 184.709 340.678 184.493C339.959 184.233 339.323 183.82 338.774 183.255L338.416 182.887L338.382 182.697C339.045 183.3 339.673 183.709 340.266 183.924C340.905 184.155 341.676 184.27 342.575 184.27H349.376L350 184.817ZM345.294 171.553L345.073 171.297C344.529 170.672 343.719 170.359 342.642 170.359C341.052 170.359 339.862 171.029 339.076 172.367C338.436 173.461 338.117 174.863 338.117 176.573C338.117 179.064 338.725 180.842 339.944 181.905L340.021 181.827C339.13 180.764 338.684 179.165 338.684 177.03C338.684 175.342 338.988 173.966 339.599 172.903C340.364 171.587 341.526 170.928 343.088 170.928C343.936 170.928 344.645 171.163 345.217 171.631L345.294 171.553Z" fill="#606060"/>
<path d="M60 153.263H348.945V155.884H60V153.263Z" fill="black"/>
</svg>
