<svg width="411" height="257" viewBox="0 0 411 257" fill="none" xmlns="http://www.w3.org/2000/svg">
<rect x="0.0146484" y="0.015625" width="410.699" height="256.906" rx="4.74122" fill="white"/>
<path d="M131.324 80.9799C131.324 82.8447 130.523 84.4398 128.923 85.7653C127.6 86.8436 125.927 87.6301 123.904 88.1252C124.865 90.893 126.239 93.6608 128.029 96.4286C129.222 98.2788 130.182 99.5679 130.909 100.296L131.171 100.559L131.28 100.624L131.171 100.668C128.451 101.76 126.319 102.787 124.777 103.749L124.603 103.858L124.515 103.334C123.628 97.9728 122.341 93.202 120.653 89.0211L118.777 89.3054C118.267 89.378 117.504 89.502 116.485 89.6769L116.158 89.7425V99.6844L118.449 102.154H109.437L110.157 101.52H118.057L115.503 98.7451V89.0432L115.634 89.0211L118.296 88.584C118.733 88.5406 119.409 88.4241 120.326 88.2346C120.195 87.9432 120.093 87.6739 120.02 87.4259L119.955 87.317L119.846 87.0327C119.395 87.1784 118.631 87.317 117.555 87.4481C116.784 87.5499 115.838 87.7103 114.718 87.9286L114.391 87.9941V97.9148L116.703 100.406H107.691L110.332 97.9365V90.6162C109.648 90.7473 109.117 90.8859 108.739 91.0316L109.022 90.0263L110.332 89.808V88.6934C109.241 88.6934 108.128 88.8829 106.993 89.2616L106.927 89.2833C106.971 89.0357 107.11 88.6278 107.342 88.0597L107.429 87.7758L107.648 87.0548L107.67 86.9455L109.132 86.8799C109.132 86.8799 109.27 86.8799 109.546 86.8799C109.677 86.8799 109.939 86.9091 110.332 86.9672V76.8937L110.092 76.872L109.939 76.7626L110.332 76.6099V76.0855C109.517 75.6046 108.804 75.2477 108.193 75.0147C111.481 73.1938 115.103 72.2833 119.06 72.2833C121.621 72.2833 123.883 72.793 125.846 73.8129C128.32 75.0803 129.556 76.8791 129.556 79.2103C129.556 81.0893 128.756 82.6844 127.156 83.9957C125.861 85.0736 124.188 85.86 122.137 86.3556C123.082 89.1234 124.457 91.8912 126.261 94.659C127.672 96.8294 129.091 98.5848 130.516 99.9248L130.669 99.7721C129.534 98.5631 128.421 97.1132 127.331 95.4238C125.585 92.714 124.246 90.041 123.315 87.4042C125.366 86.8507 127.032 86.0274 128.312 84.9349C129.869 83.5803 130.647 81.9634 130.647 80.084C130.647 79.0934 130.422 78.1904 129.971 77.3747C130.873 78.4087 131.324 79.6106 131.324 80.9799ZM133.048 102.372L132.917 102.416C130.894 103.086 128.771 104.12 126.545 105.519L126.37 105.628L126.283 105.104L126.218 104.776L126.196 104.535C127.912 103.443 129.891 102.525 132.131 101.782L132.284 101.717L133.048 102.372ZM125.192 79.3413C125.192 78.3799 124.952 77.5057 124.472 76.7193C123.265 75.9323 121.824 75.5391 120.151 75.5391C118.58 75.5391 117.249 75.7503 116.158 76.1728V86.1807H116.354L116.485 86.1585C119.366 85.678 121.548 84.8623 123.032 83.7114C124.472 82.6042 125.192 81.1477 125.192 79.3413ZM124.166 76.26C123.934 75.9545 123.628 75.6484 123.25 75.3424C121.955 74.2938 120.34 73.769 118.405 73.769C116.907 73.769 115.569 73.9803 114.391 74.4027V86.3118H114.936L115.503 86.29V75.4518C116.551 75.0727 117.809 74.8837 119.279 74.8837C121.199 74.8837 122.777 75.3934 124.013 76.4132L124.079 76.3256L124.166 76.26Z" fill="black"/>
<path d="M161.175 88.65C161.175 92.539 160.259 95.7293 158.426 98.2203C156.389 101.017 153.494 102.416 149.741 102.416C146.991 102.416 144.54 101.542 142.387 99.7938C141.892 99.4005 141.471 98.9997 141.121 98.5919L140.969 98.7451L141.383 99.0945C143.507 100.886 145.995 101.782 148.846 101.782C152.643 101.782 155.596 100.362 157.706 97.5215C159.582 94.9721 160.52 91.7233 160.52 87.7758C160.52 83.2743 159.451 79.6761 157.313 76.9814L156.811 76.3477L156.658 76.5226C156.978 76.8428 157.429 77.3237 158.011 77.9645C160.12 80.6451 161.175 84.2069 161.175 88.65ZM159.408 86.9233C159.408 90.8128 158.491 94.0031 156.658 96.4941C154.621 99.2911 151.726 100.69 147.973 100.69C145.209 100.69 142.758 99.8155 140.619 98.0676C137.463 95.4747 135.885 91.629 135.885 86.5301C135.885 82.4661 136.844 79.1447 138.765 76.566C140.903 73.711 143.936 72.2833 147.864 72.2833C151.705 72.2833 154.658 73.8204 156.723 76.8937C158.513 79.5451 159.408 82.8885 159.408 86.9233ZM154.781 86.5084C154.781 81.847 154.2 78.5766 153.036 76.6971C152.978 76.6245 152.912 76.5736 152.839 76.5443C152.781 76.5589 152.73 76.5736 152.687 76.5882L152.839 76.4132C151.894 75.8012 150.803 75.4952 149.566 75.4952C144.533 75.4952 142.016 79.902 142.016 88.7155C142.016 93.0417 142.707 96.2103 144.089 98.2203C145.151 98.8762 146.351 99.2039 147.69 99.2039C152.418 99.2039 154.781 94.972 154.781 86.5084ZM152.468 75.8889C151.276 74.4758 149.719 73.769 147.799 73.769C142.766 73.769 140.249 78.1758 140.249 86.9889C140.249 92.4664 141.376 96.1009 143.631 97.8926L143.784 97.7398C142.155 95.7878 141.34 92.4957 141.34 87.863C141.34 79.1956 143.784 74.862 148.671 74.862C150.068 74.862 151.283 75.2552 152.316 76.0417L152.468 75.8889Z" fill="black"/>
<path d="M194.256 74.2944L191.441 77.1131V99.685L192.205 100.406H182.8L185.615 98.0243V84.6299L185.397 84.5861L179.134 102.133H177.803L177.585 101.499H178.436L185.615 81.3303V77.9651L185.397 77.9213L177.388 100.406H176.057L169.926 82.6194L169.707 82.6633V95.0311C169.707 97.2015 169.911 98.8112 170.318 99.8599C170.755 100.079 171.213 100.261 171.693 100.406L162.441 100.363C164.056 99.5614 165.14 98.6217 165.692 97.5438C166.187 96.597 166.434 95.1622 166.434 93.2389V75.0809L163.75 72.5681H174.617L171.649 75.2336L177.912 93.9603L178.13 93.261L178.283 92.8022L172.784 76.1733L174.879 74.2944H176.384L173.417 76.9598L178.523 92.3213C179.73 89.131 180.763 86.2614 181.622 83.7119C181.855 83.0127 182.204 81.9565 182.669 80.5438C182.945 79.7423 183.578 77.9797 184.568 75.2558L182.036 72.5681H192.488L189.674 75.3868V98.0243L190.787 99.0512V76.3917L192.86 74.2944H194.256ZM193.951 102.133H184.568L185.31 101.499H193.274L193.951 102.133ZM173.439 102.133L164.165 102.089C164.645 101.856 164.994 101.659 165.212 101.499H171.889C172.34 101.761 172.857 101.972 173.439 102.133ZM169.991 99.685L169.817 99.2483L169.751 99.1168C169.271 98.1554 169.031 96.5093 169.031 94.1786V80.0846L168.158 77.528L167.94 77.5719V93.3044C167.94 96.3202 168.347 98.2284 169.162 99.0295C169.336 99.2191 169.613 99.4374 169.991 99.685Z" fill="black"/>
<path d="M226.423 100.406H216.056L218.894 97.9809L217.823 95.1839L216.797 92.2996C215.313 93.6251 214.114 95.0745 213.197 96.6479L212.892 96.167L212.717 95.9048L212.608 95.7299C213.597 94.0984 214.862 92.6127 216.405 91.2726C216.274 90.952 216.063 90.4857 215.772 89.8741C214.012 91.3453 212.571 93.0135 211.451 94.8779C210.578 93.4647 209.48 91.9497 208.156 90.3329L207.742 91.4037C207.596 91.7678 207.487 92.0662 207.414 92.2996L206.672 94.5501C206.28 95.7445 206.083 96.7573 206.083 97.5876C206.083 98.5344 206.287 99.3573 206.694 100.057C206.956 100.508 207.494 101.142 208.309 101.958L208.505 102.154H198.358C198.519 102.067 198.686 101.972 198.86 101.87C199.035 101.768 199.217 101.652 199.406 101.521H208.243L207.72 101.083L207.589 100.909C206.658 100.006 206.069 99.2771 205.821 98.7235C205.545 98.112 205.407 97.4419 205.407 96.7135C205.407 95.9996 205.61 95.0165 206.018 93.7637L207.087 90.5296L207.502 89.5243L206.454 88.279L205.669 90.5296L204.926 92.7801C204.519 94.0183 204.315 95.0382 204.315 95.8393C204.315 96.6988 204.454 97.3906 204.73 97.9153C205.05 98.5269 205.661 99.2846 206.563 100.188L206.672 100.341L206.759 100.406H196.547C198.453 99.3572 199.988 97.9587 201.151 96.2108C202.432 94.288 203.61 91.5494 204.687 87.9947L203.377 87.7981L203.639 87.3393L204.774 87.7542L204.883 87.2738C204.054 86.5891 202.963 86.1737 201.61 86.028C202.396 84.7898 202.963 83.6393 203.312 82.5756L203.421 82.685C203.465 82.7288 203.501 82.7505 203.53 82.7505L204.556 83.7119C205.007 84.1344 205.451 84.4843 205.887 84.761C206.367 83.5955 207 81.9565 207.785 79.8445L209.618 74.8842L207.414 72.5681H216.95L214.79 74.9715L218.455 84.6078L218.761 84.4112C218.836 84.3673 218.956 84.3164 219.133 84.2584L215.946 75.9112L217.343 74.3378H218.716L216.557 76.7415L219.35 84.0835C219.976 83.6756 220.512 83.2748 220.964 82.8816L221.665 82.27C221.984 83.785 222.521 85.1689 223.279 86.4217L222.578 86.3779C221.257 86.2906 220.193 86.5306 219.395 87.0988L223.385 98.0243L224.498 98.8985L220.552 88.0824C221.279 87.6307 222.237 87.4265 223.43 87.4704L224.543 87.5142C223.904 86.3925 223.425 85.3292 223.102 84.3239L223.43 84.0396C223.749 85.5546 224.29 86.9385 225.044 88.1913L224.325 88.1479C223.731 88.1187 223.11 88.1696 222.472 88.3007C221.975 88.4172 221.541 88.6067 221.159 88.8689L224.937 99.2483L226.423 100.406ZM228.165 102.154H217.801L218.588 101.521H227.314L228.165 102.154ZM211.56 78.4894L210.862 76.5232L207.24 86.0502L208.309 87.1427L211.56 78.4894ZM214.92 87.4265L212.04 79.7569L209.007 87.9513L209.487 88.5629C209.633 88.767 209.851 89.0726 210.142 89.4809L211.451 91.2943L214.92 87.4265Z" fill="black"/>
<path d="M257.234 74.316C255.735 75.0879 254.773 75.8093 254.351 76.4794C253.611 77.6445 253.239 79.3127 253.239 81.4831V102.154H249.638L249.31 101.521H252.56V80.6094C252.56 78.4531 252.919 76.8288 253.633 75.7363C253.85 75.4015 254.387 74.9281 255.247 74.316H257.234ZM255.464 72.5681C253.979 73.3546 253.021 74.0756 252.582 74.731C251.842 75.8527 251.469 77.5209 251.469 79.7352V100.406H247.869L237.702 80.5217L237.507 80.5655V91.4037C237.507 95.1763 237.76 97.8276 238.27 99.3572L238.314 99.4883L238.398 99.6194C239.01 99.9693 239.533 100.202 239.972 100.319L239.773 100.406H230.346C231.818 99.7651 232.816 98.9569 233.339 97.9809C233.947 96.8299 234.253 94.9509 234.253 92.343V74.8187L231.548 72.5681H241.781L238.926 74.4688L249.483 95.2056L249.683 95.1622V94.7251L249.66 94.2663L240.079 75.4303L241.737 74.316H243.55L240.691 76.2172L249.483 93.5015L249.683 93.4577V79.9101C249.683 77.4771 249.47 75.7947 249.049 74.8625L248.069 74.316H248.352L248.636 74.5565L248.787 74.4033C248.335 73.821 247.514 73.2089 246.322 72.5681H255.464ZM241.715 102.067L241.52 102.154H232.115C232.55 101.994 232.967 101.783 233.361 101.521H240.429C240.766 101.725 241.192 101.907 241.715 102.067ZM238.03 99.1168C237.853 98.8985 237.715 98.658 237.613 98.3958C237.09 97.085 236.829 94.4629 236.829 90.5296V78.7954L236.35 77.8996L235.955 77.0037L235.738 77.0475V89.6337C235.738 93.6689 235.991 96.3202 236.501 97.5876C236.793 98.3011 237.25 98.8622 237.875 99.27L238.03 99.1168Z" fill="black"/>
<path d="M265.96 74.3378L264.541 82.991H263.038L262.971 82.3356H263.845L265.175 74.3378H265.96ZM264.213 72.5681L262.798 81.2209H261.269L260.612 72.5681H264.213Z" fill="black"/>
<path d="M289.375 74.5127C288.661 75.5033 288.081 76.5232 287.628 77.5719C287.149 78.7082 286.573 80.0191 285.903 81.5053C285.89 81.476 285.868 81.4105 285.841 81.3086L285.491 80.2157L286.972 76.7632C287.251 76.1224 287.513 75.5689 287.761 75.1026C288.329 74.9861 288.843 74.7824 289.309 74.491L289.375 74.5127ZM288.914 92.3652C288.914 94.8269 287.97 96.8517 286.081 98.4397C284.289 99.9401 282.143 100.69 279.643 100.69C278.073 100.69 276.215 100.443 274.078 99.9472L271.524 99.3573C270.447 99.1097 269.582 98.9857 268.926 98.9857C268.057 98.9857 267.152 99.27 266.221 99.8382L266.155 99.7071C267.857 97.0266 269.103 94.4554 269.888 91.9936L270.083 92.0592C270.363 94.2296 271.254 95.9487 272.77 97.2161L272.921 97.0629C272.309 96.3349 271.821 95.4022 271.458 94.2663L271.613 93.7637L271.83 93.8292C272.021 95.2419 272.491 96.4947 273.249 97.5877C274.717 98.6656 276.614 99.2045 278.942 99.2045C280.733 99.2045 282.219 98.8113 283.394 98.0243C284.746 97.1214 285.425 95.8176 285.425 94.1131C285.425 93.1224 285.163 92.212 284.64 91.3816C283.416 90.5659 281.053 89.8232 277.545 89.1528C274.752 88.6138 272.77 87.7255 271.591 86.4873L271.152 86.028L271.001 86.1813C272.238 87.2153 274.114 87.9801 276.632 88.4757C280.339 89.2041 282.698 89.9543 283.7 90.7262L284.161 91.0761L284.312 90.9228C283.163 89.4517 280.317 88.2715 275.781 87.3831C273.236 86.8876 271.365 86.1228 270.172 85.0888C268.718 83.836 267.99 82.015 267.99 79.6258C267.99 77.2079 268.886 75.2992 270.673 73.9007C272.305 72.6337 274.362 72 276.849 72C278.579 72 280.565 72.3202 282.804 72.9614C283.868 73.2674 284.666 73.4202 285.207 73.4202C285.921 73.4202 286.688 73.1797 287.522 72.6992L287.628 72.7427C286.857 73.7918 286.267 74.8112 285.859 75.8018C285.38 76.9528 284.808 78.2711 284.139 79.7569L284.094 79.5386C283.859 78.7955 283.514 77.8779 283.048 76.7854L282.871 76.5232C281.651 75.6783 280.326 75.2558 278.902 75.2558C277.404 75.2558 276.113 75.6491 275.036 76.4355C273.843 77.3097 273.249 78.4748 273.249 79.9318C273.249 80.6891 273.409 81.345 273.728 81.8985C274.703 82.4955 275.861 82.9547 277.2 83.2749L280.973 84.1707C286.267 85.4236 288.914 88.155 288.914 92.3652ZM290.683 94.1348C290.683 96.6258 289.743 98.658 287.868 100.231C286.094 101.703 283.939 102.439 281.412 102.439C279.709 102.439 277.851 102.198 275.847 101.717L273.293 101.106C272.318 100.872 271.453 100.756 270.695 100.756C269.764 100.756 268.864 101.033 267.99 101.586L267.902 101.455L268.252 100.887L268.642 100.275C269.024 100.144 269.414 100.079 269.822 100.079C270.478 100.079 271.32 100.202 272.353 100.45L274.907 101.062C276.974 101.557 278.84 101.805 280.516 101.805C283.106 101.805 285.309 101.04 287.127 99.5105C289.06 97.8786 290.027 95.7955 290.027 93.261C290.027 91.7607 289.708 90.4565 289.069 89.3494C290.147 90.646 290.683 92.2412 290.683 94.1348ZM282.565 76.064L281.824 75.2775C280.459 74.0831 278.893 73.4857 277.133 73.4857C275.634 73.4857 274.349 73.879 273.271 74.6655C272.079 75.5543 271.48 76.7199 271.48 78.1618C271.48 79.531 272.047 80.6528 273.183 81.5269L273.338 81.3742C272.828 80.7329 272.571 79.961 272.571 79.0576C272.571 77.6737 273.147 76.5666 274.295 75.7363C275.342 74.979 276.579 74.6 278.007 74.6C279.621 74.6 281.088 75.1393 282.414 76.2172L282.565 76.064Z" fill="black"/>
<path d="M98.6174 117.292C97.8379 118.375 97.2012 119.489 96.7082 120.636C96.1827 121.878 95.5544 123.311 94.8224 124.935C94.8064 124.903 94.7825 124.831 94.7506 124.72L94.3688 123.526L95.992 119.752C96.2944 119.051 96.5809 118.446 96.8514 117.937C97.4717 117.81 98.0365 117.586 98.546 117.268L98.6174 117.292ZM98.1163 136.806C98.1163 139.496 97.0819 141.71 95.0131 143.445C93.0559 145.085 90.7086 145.905 87.9715 145.905C86.253 145.905 84.224 145.635 81.8851 145.093L79.0922 144.448C77.9145 144.178 76.9679 144.042 76.2518 144.042C75.2968 144.042 74.3102 144.353 73.2918 144.974L73.2204 144.83C75.0822 141.9 76.4425 139.09 77.3018 136.399L77.5168 136.471C77.8192 138.844 78.7978 140.723 80.4525 142.108L80.6197 141.94C79.9515 141.144 79.4185 140.125 79.0204 138.883L79.1875 138.334L79.4265 138.406C79.6331 139.95 80.1506 141.319 80.9779 142.514C82.5852 143.692 84.6616 144.281 87.208 144.281C89.1652 144.281 90.7884 143.851 92.0774 142.991C93.5574 142.004 94.297 140.579 94.297 138.716C94.297 137.633 94.0105 136.638 93.4377 135.731C92.1013 134.839 89.5154 134.027 85.6801 133.294C82.6247 132.705 80.4525 131.734 79.1636 130.38L78.6865 129.879L78.5193 130.046C79.8717 131.177 81.9246 132.013 84.6776 132.554C88.7355 133.35 91.3134 134.17 92.4112 135.014L92.9127 135.396L93.0799 135.229C91.8228 133.621 88.7116 132.331 83.7469 131.36C80.962 130.818 78.917 129.983 77.6121 128.852C76.0208 127.483 75.2254 125.492 75.2254 122.881C75.2254 120.238 76.2039 118.152 78.1611 116.623C79.9435 115.238 82.195 114.545 84.9161 114.545C86.8099 114.545 88.982 114.896 91.4327 115.596C92.5944 115.931 93.4696 116.098 94.0584 116.098C94.8384 116.098 95.6817 115.835 96.5884 115.31L96.7082 115.358C95.8648 116.504 95.2201 117.618 94.7745 118.701C94.2495 119.959 93.6208 121.4 92.8888 123.024L92.8409 122.785C92.5864 121.973 92.2046 120.97 91.6952 119.776L91.5045 119.489C90.1677 118.566 88.7196 118.104 87.1602 118.104C85.5209 118.104 84.1127 118.534 82.9351 119.394C81.6302 120.349 80.9779 121.623 80.9779 123.215C80.9779 124.043 81.1531 124.76 81.5029 125.365C82.5693 126.018 83.8343 126.519 85.2983 126.869L89.4276 127.849C95.2201 129.218 98.1163 132.203 98.1163 136.806ZM100.05 138.74C100.05 141.463 99.0235 143.684 96.9706 145.403C95.029 147.012 92.6742 147.816 89.9052 147.816C88.0434 147.816 86.0144 147.553 83.8183 147.028L81.0254 146.359C79.9595 146.104 79.0124 145.977 78.185 145.977C77.1666 145.977 76.18 146.279 75.2254 146.884L75.1296 146.741L75.5118 146.12L75.9415 145.451C76.3552 145.308 76.7848 145.236 77.2304 145.236C77.9465 145.236 78.8692 145.372 79.9994 145.643L82.7918 146.311C85.0518 146.852 87.0963 147.123 88.9266 147.123C91.759 147.123 94.1697 146.287 96.1592 144.616C98.2755 142.832 99.3335 140.555 99.3335 137.785C99.3335 136.144 98.9836 134.719 98.2835 133.509C99.4612 134.927 100.05 136.67 100.05 138.74ZM91.1702 118.988L90.3588 118.128C88.8628 116.822 87.1522 116.169 85.2265 116.169C83.5877 116.169 82.1791 116.599 81.0019 117.459C79.697 118.431 79.0443 119.704 79.0443 121.281C79.0443 122.778 79.6651 124.003 80.9061 124.959L81.0733 124.792C80.5164 124.091 80.2379 123.247 80.2379 122.26C80.2379 120.747 80.8667 119.537 82.1237 118.629C83.2694 117.802 84.6222 117.388 86.1816 117.388C87.9476 117.388 89.5549 117.977 91.003 119.155L91.1702 118.988Z" fill="black"/>
<path d="M138.364 117.245L138.15 117.508C136.574 119.418 135.317 121.576 134.378 123.98L134.116 123.478L133.805 122.81C134.553 120.803 135.596 118.948 136.932 117.245H138.364ZM131.012 135.898L130.272 134.943V127.276L131.012 126.225V135.898ZM137.672 145.476H111.511L114.924 142.777V132.172C113.89 132.379 112.903 132.873 111.964 133.653C112.235 132.857 112.641 132.196 113.182 131.671C113.85 131.447 114.431 131.336 114.924 131.336V130.142H114.232C112.688 130.142 111.296 130.684 110.055 131.766C110.771 129.585 112.394 128.494 114.924 128.494V117.961L111.535 115.358H136.431L136.216 115.597C134.784 117.189 133.535 119.354 132.469 122.093L132.182 121.568C131.976 121.154 131.641 120.533 131.18 119.705C130.161 119.163 128.355 118.893 125.761 118.893C125.268 118.893 124.52 118.917 123.517 118.964C122.531 118.996 121.791 119.012 121.298 119.012V128.494H126.167L129.079 124.338V134.011L127.575 132.029H121.298V143.852L125.117 143.78C126.326 143.764 127.512 143.557 128.674 143.159C130.042 142.697 131.132 141.774 131.944 140.388L133.352 138C133.797 139.688 134.314 141.033 134.903 142.036C135.492 143.039 136.415 144.186 137.672 145.476ZM139.606 147.363H113.468L114.352 146.67H139.248C137.799 145.285 136.734 144.003 136.049 142.825C135.731 142.299 135.381 141.479 134.999 140.365L135.142 140.102L135.285 139.863C135.635 141.471 136.153 142.833 136.837 143.947C137.41 144.902 138.333 146.041 139.606 147.363ZM130.75 119.084C130.304 118.543 129.827 118.128 129.318 117.842C128.267 117.268 126.438 116.982 123.828 116.982C123.223 116.982 122.746 116.99 122.396 117.006C120.661 117.086 119.659 117.125 119.388 117.125V128.494H120.582V118.295L124.783 118.176C127.424 118.097 129.223 118.367 130.177 118.988L130.583 119.251L130.75 119.084ZM127.05 131.336L126.167 130.142H119.388V143.828H119.985C120.176 143.828 120.375 143.844 120.582 143.876V131.336H127.05Z" fill="black"/>
<path d="M177.515 124.362C177.515 126.4 176.639 128.144 174.889 129.593C173.441 130.771 171.611 131.631 169.399 132.172C170.449 135.197 171.953 138.223 173.91 141.248C175.215 143.27 176.266 144.679 177.062 145.476L177.348 145.762L177.467 145.834L177.348 145.882C174.372 147.076 172.041 148.199 170.354 149.249L170.163 149.369L170.068 148.796C169.097 142.936 167.689 137.721 165.842 133.152L163.79 133.462C163.233 133.542 162.397 133.677 161.283 133.868L160.925 133.94V144.807L163.432 147.506H153.573L154.361 146.813H163.002L160.209 143.78V133.175L160.352 133.152L163.265 132.674C163.742 132.626 164.482 132.499 165.485 132.292C165.341 131.973 165.23 131.679 165.15 131.408L165.079 131.288L164.959 130.978C164.466 131.137 163.631 131.288 162.453 131.432C161.61 131.543 160.575 131.718 159.35 131.957L158.992 132.029V142.872L161.522 145.595H151.664L154.552 142.896V134.895C153.804 135.038 153.224 135.19 152.81 135.349L153.12 134.25L154.552 134.011V132.793C153.359 132.793 152.141 133 150.9 133.414L150.829 133.438C150.876 133.167 151.027 132.722 151.282 132.101L151.378 131.79L151.616 131.002L151.64 130.882L153.239 130.811C153.239 130.811 153.391 130.811 153.693 130.811C153.836 130.811 154.123 130.843 154.552 130.906V119.896L154.29 119.872L154.123 119.752L154.552 119.585V119.012C153.661 118.487 152.881 118.097 152.213 117.842C155.809 115.851 159.772 114.856 164.1 114.856C166.901 114.856 169.375 115.413 171.524 116.528C174.229 117.913 175.582 119.88 175.582 122.428C175.582 124.481 174.706 126.225 172.956 127.658C171.54 128.836 169.71 129.696 167.466 130.238C168.5 133.263 170.004 136.288 171.977 139.313C173.521 141.686 175.072 143.604 176.631 145.069L176.799 144.902C175.558 143.581 174.34 141.997 173.147 140.149C171.237 137.188 169.773 134.266 168.755 131.384C170.999 130.779 172.821 129.879 174.221 128.685C175.923 127.204 176.775 125.437 176.775 123.383C176.775 122.3 176.528 121.313 176.035 120.421C177.022 121.552 177.515 122.866 177.515 124.362ZM179.4 147.745L179.257 147.792C177.046 148.525 174.722 149.656 172.288 151.184L172.096 151.303L172.001 150.73L171.929 150.372L171.905 150.109C173.783 148.915 175.947 147.912 178.398 147.1L178.565 147.028L179.4 147.745ZM170.808 122.571C170.808 121.52 170.545 120.565 170.02 119.704C168.699 118.845 167.123 118.415 165.294 118.415C163.575 118.415 162.119 118.646 160.925 119.108V130.046H161.14L161.283 130.022C164.434 129.497 166.821 128.605 168.444 127.348C170.02 126.137 170.808 124.545 170.808 122.571ZM169.686 119.203C169.431 118.869 169.097 118.535 168.683 118.2C167.267 117.054 165.501 116.48 163.384 116.48C161.745 116.48 160.281 116.711 158.992 117.173V130.19H159.589L160.209 130.166V118.319C161.355 117.905 162.732 117.698 164.339 117.698C166.439 117.698 168.166 118.256 169.519 119.37L169.59 119.275L169.686 119.203Z" fill="black"/>
<path d="M224.281 109.697C222.02 111.879 220.064 114.538 218.406 117.675C217.357 119.665 216.044 122.722 214.469 126.846L207.547 144.998L208.239 145.595H197.903L200.863 143.135L192.079 118.105L188.666 115.167H199.813L196.638 118.319L204.635 141.224L205.064 140.006L197.88 119.346L200.171 117.102H201.746L198.548 120.254L205.279 139.505L211.079 124.314C212.591 120.35 213.347 117.524 213.347 115.835C213.347 114.243 212.782 112.874 211.652 111.728L211.891 111.68C216.522 110.756 219.967 109.419 222.228 107.667L222.348 107.787C220.228 109.841 218.552 111.958 217.309 114.14C216.02 116.433 214.437 120.031 212.559 124.935L205.565 143.231L206.783 144.282L213.753 125.986C214.739 123.391 215.456 121.568 215.901 120.517C216.761 118.479 217.612 116.719 218.455 115.238C219.217 113.917 220.144 112.619 221.226 111.345C222.432 110.772 223.412 110.191 224.161 109.602L224.281 109.697ZM210.125 147.506H199.813L200.696 146.813H209.313L210.125 147.506Z" fill="black"/>
<path d="M248.415 117.077L245.408 120.11V144.854L246.269 145.595H235.933L239.032 142.991V117.961L235.906 115.166H246.481L243.475 118.2V143.206L244.668 144.257V119.298L246.863 117.077H248.415ZM248.202 147.505H237.866L238.726 146.812H247.342L248.202 147.505Z" fill="black"/>
<path d="M285.513 117.698L285.323 118.033C283.7 120.883 282.449 123.367 281.576 125.485L281.407 125.891L281.288 125.819C281.226 125.501 281.119 125.015 280.977 124.362C281.869 122.26 282.871 120.206 283.984 118.2C284.462 118.121 284.91 117.921 285.323 117.603L285.513 117.698ZM283.602 115.812L283.412 116.146C281.789 118.996 280.538 121.48 279.665 123.598L279.496 124.004L279.377 123.932C279.106 122.101 278.494 120.525 277.541 119.203C276.41 118.439 275.16 118.057 273.794 118.057C270.212 118.057 267.866 120.445 266.753 125.222C266.323 127.069 266.106 129.314 266.106 131.957C266.106 136.463 266.886 140.014 268.447 142.61L268.66 142.968L268.922 143.35C270.083 144.178 271.475 144.592 273.103 144.592C275.519 144.592 277.404 143.7 278.756 141.917C279.918 140.388 280.614 138.342 280.835 135.779C280.835 135.174 281.066 134.871 281.527 134.871C282.068 134.871 282.339 135.357 282.339 136.328C282.339 137.825 281.988 139.401 281.288 141.057C279.838 144.496 276.858 146.216 272.336 146.216C267.977 146.216 264.621 144.616 262.262 141.416C260.165 138.565 259.114 134.879 259.114 130.357C259.114 126.185 260.218 122.587 262.43 119.562C264.882 116.202 268.11 114.522 272.123 114.522C273.856 114.522 275.861 114.936 278.135 115.764C279.332 116.194 280.326 116.409 281.119 116.409C281.931 116.409 282.698 116.17 283.412 115.692L283.602 115.812ZM284.25 138.215C284.25 139.743 283.904 141.32 283.221 142.944C281.775 146.383 278.791 148.103 274.269 148.103C271.152 148.103 268.549 147.283 266.465 145.643C268.389 146.821 270.664 147.41 273.293 147.41C277.922 147.41 280.986 145.643 282.48 142.108C282.817 141.312 283.079 140.492 283.27 139.648C283.478 138.708 283.562 137.912 283.531 137.259L283.509 136.782H283.389C283.961 136.782 284.25 137.259 284.25 138.215ZM277.16 118.654L276.969 118.511L276.801 118.272C275.462 116.87 273.825 116.17 271.883 116.17C269.848 116.17 268.137 117.07 266.753 118.869C265.033 121.114 264.173 124.84 264.173 130.046C264.173 134.569 264.962 138.127 266.536 140.723C267.095 141.646 267.72 142.387 268.42 142.944L268.589 142.777C268.256 142.395 267.95 141.973 267.68 141.511C266.155 138.979 265.392 135.476 265.392 131.002C265.392 121.91 267.875 117.364 272.837 117.364C274.38 117.364 275.767 117.858 276.991 118.845L277.16 118.654Z" fill="black"/>
<path d="M323.946 117.245L323.733 117.508C322.155 119.418 320.9 121.576 319.96 123.98L319.699 123.478L319.388 122.81C320.138 120.803 321.18 118.948 322.514 117.245H323.946ZM316.595 135.898L315.854 134.943V127.276L316.595 126.225V135.898ZM323.255 145.476H297.095L300.509 142.777V132.172C299.471 132.379 298.487 132.873 297.547 133.653C297.817 132.857 298.225 132.196 298.766 131.671C299.431 131.447 300.012 131.336 300.509 131.336V130.142H299.812C298.269 130.142 296.877 130.684 295.636 131.766C296.354 129.585 297.977 128.494 300.509 128.494V117.961L297.117 115.358H322.013L321.8 115.597C320.368 117.189 319.118 119.354 318.049 122.093L317.765 121.568C317.557 121.154 317.224 120.533 316.763 119.705C315.744 119.163 313.939 118.893 311.345 118.893C310.849 118.893 310.104 118.917 309.102 118.964C308.113 118.996 307.372 119.012 306.88 119.012V128.494H311.749L314.662 124.338V134.011L313.159 132.029H306.88V143.852L310.698 143.78C311.908 143.764 313.092 143.557 314.254 143.159C315.624 142.697 316.715 141.774 317.526 140.388L318.936 138C319.379 139.688 319.898 141.033 320.488 142.036C321.073 143.039 321.995 144.186 323.255 145.476ZM325.188 147.363H299.05L299.932 146.67H324.829C323.383 145.285 322.315 144.003 321.632 142.825C321.313 142.299 320.962 141.479 320.581 140.365L320.723 140.102L320.869 139.863C321.219 141.471 321.734 142.833 322.421 143.947C322.993 144.902 323.915 146.041 325.188 147.363ZM316.333 119.084C315.885 118.543 315.411 118.128 314.901 117.842C313.85 117.268 312.019 116.982 309.412 116.982C308.804 116.982 308.33 116.99 307.98 117.006C306.242 117.086 305.24 117.125 304.969 117.125V128.494H306.162V118.295L310.365 118.176C313.008 118.097 314.804 118.367 315.761 118.988L316.165 119.251L316.333 119.084ZM312.631 131.336L311.749 130.142H304.969V143.828H305.568C305.758 143.828 305.958 143.844 306.162 143.876V131.336H312.631Z" fill="black"/>
<path d="M339.283 147.21H335.417L335.913 146.785V142.905L335.417 142.461H337.128L336.623 142.938V146.93H336.72C336.747 146.93 336.778 146.933 336.809 146.938V143.106L337.181 142.759H337.439L336.929 143.24V146.941L337.266 146.956C337.647 146.974 337.957 146.885 338.188 146.691C338.387 146.525 338.521 146.257 338.6 145.886C338.813 146.51 339.044 146.951 339.283 147.21ZM339.589 147.508H335.727L335.856 147.4H339.527C339.296 147.164 339.079 146.79 338.884 146.278L338.906 146.181C339.115 146.802 339.345 147.245 339.589 147.508Z" fill="black"/>
<path d="M343.943 147.21H340.077L340.578 146.785V142.905L340.077 142.461H341.793L341.283 142.938V146.93H341.38C341.411 146.93 341.442 146.933 341.473 146.938V143.106L341.841 142.759H342.099L341.593 143.24V146.941L341.926 146.956C342.311 146.974 342.617 146.885 342.848 146.691C343.047 146.525 343.185 146.257 343.26 145.886C343.478 146.51 343.704 146.951 343.943 147.21ZM344.249 147.508H340.392L340.52 147.4H344.187C343.956 147.164 343.744 146.79 343.544 146.278L343.571 146.181C343.779 146.802 344.005 147.245 344.249 147.508Z" fill="black"/>
<path d="M348.945 142.856L348.914 142.908C348.657 143.353 348.457 143.741 348.32 144.071L348.293 144.135L348.275 144.124C348.262 144.074 348.249 143.998 348.222 143.896C348.364 143.568 348.524 143.248 348.701 142.935C348.781 142.922 348.852 142.891 348.914 142.842L348.945 142.856ZM348.643 142.562L348.612 142.614C348.355 143.059 348.156 143.446 348.014 143.777L347.987 143.84L347.97 143.829C347.925 143.543 347.828 143.297 347.677 143.091C347.495 142.972 347.296 142.912 347.078 142.912C346.511 142.912 346.134 143.285 345.956 144.031C345.89 144.319 345.855 144.669 345.855 145.081C345.855 145.785 345.979 146.339 346.227 146.744L346.262 146.8L346.302 146.86C346.489 146.989 346.71 147.053 346.967 147.053C347.353 147.053 347.655 146.914 347.872 146.636C348.054 146.398 348.165 146.078 348.2 145.678C348.2 145.584 348.24 145.536 348.311 145.536C348.4 145.536 348.439 145.612 348.439 145.764C348.439 145.997 348.386 146.244 348.275 146.502C348.04 147.038 347.566 147.307 346.848 147.307C346.152 147.307 345.62 147.057 345.243 146.558C344.906 146.113 344.742 145.538 344.742 144.832C344.742 144.181 344.915 143.619 345.269 143.147C345.659 142.623 346.174 142.361 346.812 142.361C347.087 142.361 347.411 142.425 347.77 142.554C347.961 142.621 348.12 142.655 348.249 142.655C348.377 142.655 348.497 142.618 348.612 142.543L348.643 142.562ZM348.745 146.058C348.745 146.297 348.692 146.543 348.581 146.796C348.351 147.333 347.876 147.601 347.154 147.601C346.657 147.601 346.245 147.473 345.912 147.217C346.218 147.402 346.582 147.493 346.998 147.493C347.739 147.493 348.227 147.217 348.462 146.666C348.515 146.542 348.559 146.414 348.59 146.282C348.621 146.135 348.635 146.011 348.63 145.909L348.626 145.835H348.608C348.701 145.835 348.745 145.909 348.745 146.058ZM347.615 143.005L347.584 142.983L347.557 142.946C347.344 142.727 347.083 142.618 346.777 142.618C346.449 142.618 346.178 142.758 345.956 143.039C345.682 143.389 345.549 143.971 345.549 144.783C345.549 145.489 345.673 146.045 345.921 146.449C346.01 146.594 346.112 146.709 346.223 146.796L346.249 146.77C346.196 146.711 346.147 146.645 346.107 146.573C345.863 146.178 345.739 145.631 345.739 144.933C345.739 143.514 346.134 142.804 346.928 142.804C347.171 142.804 347.393 142.881 347.588 143.035L347.615 143.005Z" fill="black"/>
<path d="M72.4024 170.799L72.3133 170.955C71.5553 172.287 70.9719 173.447 70.5629 174.436L70.485 174.625L70.4291 174.592C70.3995 174.443 70.3513 174.216 70.2843 173.912C70.7005 172.93 71.1688 171.971 71.6891 171.033C71.912 170.996 72.12 170.903 72.3133 170.755L72.4024 170.799ZM71.5107 169.918L71.4213 170.074C70.6634 171.405 70.0799 172.565 69.6712 173.555L69.5931 173.744L69.5374 173.711C69.4109 172.855 69.1248 172.119 68.679 171.502C68.1512 171.145 67.5677 170.966 66.9286 170.966C65.2563 170.966 64.16 172.082 63.6396 174.313C63.4389 175.176 63.3386 176.224 63.3386 177.459C63.3386 179.564 63.7028 181.222 64.4313 182.434L64.5316 182.602L64.6543 182.78C65.1968 183.167 65.8472 183.36 66.6052 183.36C67.735 183.36 68.6156 182.944 69.2475 182.111C69.79 181.397 70.1134 180.441 70.2173 179.244C70.2173 178.961 70.3253 178.82 70.5407 178.82C70.7933 178.82 70.9198 179.047 70.9198 179.5C70.9198 180.199 70.7562 180.936 70.4291 181.709C69.7529 183.315 68.3592 184.119 66.2485 184.119C64.212 184.119 62.6438 183.371 61.5437 181.877C60.5625 180.545 60.0721 178.824 60.0721 176.712C60.0721 174.763 60.5886 173.082 61.6217 171.669C62.7663 170.1 64.2752 169.316 66.1482 169.316C66.9582 169.316 67.8948 169.509 68.9576 169.896C69.515 170.096 69.9797 170.197 70.3513 170.197C70.7301 170.197 71.0871 170.085 71.4213 169.862L71.5107 169.918ZM71.8117 180.382C71.8117 181.096 71.652 181.832 71.3321 182.59C70.6559 184.197 69.2622 185 67.1515 185C65.6947 185 64.4795 184.617 63.5059 183.851C64.4053 184.401 65.4681 184.676 66.6943 184.676C68.8573 184.676 70.2879 183.851 70.9866 182.2C71.1427 181.828 71.2654 181.445 71.3546 181.051C71.4512 180.612 71.4919 180.24 71.4772 179.935L71.4662 179.712H71.4102C71.6777 179.712 71.8117 179.935 71.8117 180.382ZM68.5004 171.245L68.4112 171.179L68.3334 171.067C67.7089 170.413 66.9433 170.085 66.0366 170.085C65.0852 170.085 64.2863 170.505 63.6396 171.346C62.8369 172.394 62.4356 174.135 62.4356 176.566C62.4356 178.679 62.8036 180.341 63.5394 181.553C63.7994 181.984 64.093 182.33 64.42 182.59L64.4981 182.512C64.3419 182.334 64.2009 182.137 64.0744 181.921C63.3611 180.739 63.0041 179.103 63.0041 177.013C63.0041 172.766 64.1636 170.643 66.4825 170.643C67.2036 170.643 67.8502 170.874 68.4226 171.335L68.5004 171.245Z" fill="#20458D"/>
<path d="M91.7183 177.827C91.7183 179.813 91.2501 181.441 90.3135 182.713C89.2729 184.141 87.7939 184.855 85.8762 184.855C84.4717 184.855 83.2192 184.409 82.1193 183.516C81.8664 183.315 81.651 183.111 81.4727 182.903L81.3946 182.981L81.6064 183.159C82.6916 184.074 83.9624 184.531 85.4193 184.531C87.3591 184.531 88.8677 183.806 89.9455 182.356C90.9045 181.055 91.3838 179.396 91.3838 177.381C91.3838 175.083 90.8375 173.246 89.745 171.87L89.4886 171.547L89.4105 171.636C89.5739 171.799 89.8043 172.045 90.1017 172.372C91.1794 173.74 91.7183 175.559 91.7183 177.827ZM90.815 176.946C90.815 178.931 90.347 180.56 89.4105 181.832C88.3698 183.26 86.8908 183.973 84.9732 183.973C83.5612 183.973 82.3087 183.527 81.2162 182.635C79.6035 181.311 78.7968 179.348 78.7968 176.745C78.7968 174.67 79.2875 172.974 80.2686 171.658C81.3611 170.2 82.9107 169.472 84.9175 169.472C86.8797 169.472 88.3884 170.256 89.444 171.825C90.3581 173.179 90.815 174.886 90.815 176.946ZM88.4515 176.734C88.4515 174.354 88.1544 172.684 87.5599 171.725C87.53 171.688 87.4965 171.662 87.4593 171.647C87.4297 171.654 87.4037 171.662 87.3813 171.669L87.4593 171.58C86.9764 171.268 86.419 171.111 85.787 171.111C83.2156 171.111 81.9296 173.361 81.9296 177.861C81.9296 180.069 82.2826 181.687 82.9888 182.713C83.5313 183.048 84.1446 183.215 84.8283 183.215C87.2439 183.215 88.4515 181.055 88.4515 176.734ZM87.2699 171.312C86.6604 170.591 85.8651 170.23 84.884 170.23C82.3125 170.23 81.0265 172.48 81.0265 176.979C81.0265 179.776 81.6025 181.631 82.7548 182.546L82.8326 182.468C82.0002 181.471 81.584 179.79 81.584 177.425C81.584 173 82.8326 170.788 85.3301 170.788C86.0435 170.788 86.664 170.989 87.1918 171.39L87.2699 171.312Z" fill="#20458D"/>
<path d="M111.034 177.827C111.034 179.813 110.566 181.441 109.629 182.713C108.589 184.141 107.11 184.855 105.192 184.855C103.788 184.855 102.535 184.409 101.435 183.516C101.182 183.315 100.967 183.111 100.789 182.903L100.711 182.981L100.922 183.159C102.008 184.074 103.278 184.531 104.735 184.531C106.675 184.531 108.184 183.806 109.261 182.356C110.22 181.055 110.7 179.396 110.7 177.381C110.7 175.083 110.153 173.246 109.061 171.87L108.805 171.547L108.726 171.636C108.89 171.799 109.12 172.045 109.418 172.372C110.495 173.74 111.034 175.559 111.034 177.827ZM110.131 176.946C110.131 178.931 109.663 180.56 108.726 181.832C107.686 183.26 106.207 183.973 104.289 183.973C102.877 183.973 101.625 183.527 100.532 182.635C98.9194 181.311 98.113 179.348 98.113 176.745C98.113 174.67 98.6034 172.974 99.5846 171.658C100.677 170.2 102.227 169.472 104.233 169.472C106.196 169.472 107.704 170.256 108.76 171.825C109.674 173.179 110.131 174.886 110.131 176.946ZM107.768 176.734C107.768 174.354 107.47 172.684 106.876 171.725C106.846 171.688 106.813 171.662 106.775 171.647C106.746 171.654 106.72 171.662 106.697 171.669L106.775 171.58C106.292 171.268 105.735 171.111 105.103 171.111C102.532 171.111 101.246 173.361 101.246 177.861C101.246 180.069 101.599 181.687 102.305 182.713C102.847 183.048 103.461 183.215 104.144 183.215C106.56 183.215 107.768 181.055 107.768 176.734ZM106.586 171.312C105.976 170.591 105.181 170.23 104.2 170.23C101.628 170.23 100.343 172.48 100.343 176.979C100.343 179.776 100.919 181.631 102.071 182.546L102.149 182.468C101.316 181.471 100.9 179.79 100.9 177.425C100.9 173 102.149 170.788 104.646 170.788C105.359 170.788 105.98 170.989 106.508 171.39L106.586 171.312Z" fill="#20458D"/>
<path d="M128.777 183.828H117.439L118.9 182.557V170.944L117.439 169.617H122.467L120.973 171.044V182.992H121.263C121.345 182.992 121.434 182.999 121.531 183.014V171.547L122.612 170.509H123.37L121.876 171.948V183.025L122.858 183.07C123.987 183.122 124.89 182.858 125.567 182.278C126.146 181.78 126.548 180.977 126.771 179.868C127.403 181.735 128.071 183.055 128.777 183.828ZM129.669 184.721H118.353L118.733 184.397H129.491C128.815 183.691 128.187 182.572 127.607 181.04L127.674 180.75C128.291 182.609 128.956 183.933 129.669 184.721Z" fill="#20458D"/>
<path d="M141.973 170.509L140.568 171.926V183.483L140.969 183.828H136.142L137.591 182.613V170.922L136.131 169.617H141.07L139.665 171.033V182.713L140.222 183.204V171.547L141.248 170.509H141.973ZM141.872 184.721H137.045L137.446 184.397H141.471L141.872 184.721Z" fill="#20458D"/>
<path d="M161.311 170.509C160.545 170.903 160.055 171.271 159.839 171.613C159.46 172.208 159.27 173.06 159.27 174.168V184.721H157.431L157.264 184.397H158.925V173.722C158.925 172.621 159.107 171.792 159.471 171.234C159.583 171.063 159.858 170.821 160.296 170.509H161.311ZM160.408 169.617C159.65 170.018 159.159 170.386 158.936 170.721C158.557 171.294 158.367 172.145 158.367 173.275V183.828H156.528L151.333 173.677L151.232 173.699V179.232C151.232 181.159 151.362 182.512 151.623 183.293L151.645 183.36L151.689 183.427C152.002 183.605 152.269 183.724 152.492 183.784L152.392 183.828H147.575C148.326 183.501 148.835 183.088 149.103 182.59C149.415 182.003 149.571 181.043 149.571 179.712V170.766L148.189 169.617H153.418L151.957 170.587L157.353 181.173L157.453 181.151V180.928L157.442 180.694L152.548 171.078L153.395 170.509H154.321L152.86 171.48L157.353 180.303L157.453 180.281V173.365C157.453 172.123 157.345 171.264 157.13 170.788L156.628 170.509H156.773L156.918 170.632L156.996 170.554C156.766 170.256 156.346 169.944 155.736 169.617H160.408ZM153.384 184.676L153.284 184.721H148.479C148.702 184.639 148.913 184.531 149.114 184.397H152.726C152.897 184.502 153.117 184.595 153.384 184.676ZM151.5 183.17C151.411 183.059 151.34 182.936 151.288 182.802C151.021 182.133 150.887 180.794 150.887 178.786V172.796L150.641 172.339L150.441 171.881L150.329 171.904V178.329C150.329 180.389 150.459 181.743 150.72 182.389C150.868 182.754 151.102 183.04 151.422 183.248L151.5 183.17Z" fill="#20458D"/>
<path d="M181.128 170.955L179.21 174.726C179.18 174.465 179.125 174.205 179.043 173.945L180.459 171.178C180.697 171.134 180.92 171.059 181.128 170.955ZM181.964 176.656L180.515 178.039V183.416L180.949 183.828H174.272C173.335 183.828 172.558 183.713 171.941 183.483C171.332 183.252 170.719 182.851 170.102 182.278C168.63 180.924 167.894 179.113 167.894 176.845C167.894 174.495 168.589 172.662 169.979 171.346C171.198 170.193 172.651 169.617 174.338 169.617C174.866 169.617 175.635 169.739 176.646 169.985C177.657 170.223 178.415 170.342 178.92 170.342C179.352 170.342 179.79 170.249 180.236 170.063L178.318 173.822C178.207 173.041 177.973 172.372 177.616 171.814C177.066 171.457 176.423 171.279 175.687 171.279C174.097 171.279 172.908 171.948 172.12 173.287C171.48 174.372 171.161 175.774 171.161 177.492C171.161 179.508 171.551 181.047 172.331 182.111C173.171 182.75 174.279 183.07 175.654 183.07H177.538V177.425H174.706C174.022 177.425 173.539 177.258 173.257 176.923C173.51 177.028 173.844 177.08 174.26 177.08H177.538V176.522H173.814C172.692 176.522 172.131 176.09 172.131 175.228C172.131 174.923 172.209 174.651 172.365 174.413C172.543 174.138 172.778 174.001 173.067 174.001C173.26 174.001 173.424 174.075 173.558 174.224C173.699 174.365 173.77 174.532 173.77 174.726C173.77 175.053 173.647 175.243 173.402 175.295L173.09 175.362C172.971 175.362 172.904 175.417 172.889 175.529C172.889 175.678 173.049 175.752 173.368 175.752H173.814L174.104 175.741C174.268 175.6 174.342 175.414 174.327 175.183L174.316 175.005L174.45 175.127C174.599 175.261 174.673 175.429 174.673 175.629L174.662 175.663V175.752H181.072L179.612 177.135V182.579L180.169 183.092V177.626L181.195 176.656H181.964ZM182.142 184.833H175.163C174.197 184.833 173.417 184.725 172.822 184.509C172.101 184.249 171.466 183.836 170.916 183.271L170.559 182.903L170.525 182.713C171.187 183.315 171.815 183.725 172.41 183.94C173.049 184.171 173.818 184.286 174.717 184.286H181.518L182.142 184.833ZM177.438 171.569L177.215 171.312C176.672 170.688 175.862 170.375 174.784 170.375C173.194 170.375 172.004 171.044 171.217 172.383C170.577 173.476 170.258 174.878 170.258 176.589C170.258 179.08 170.867 180.857 172.086 181.921L172.164 181.843C171.273 180.779 170.826 179.18 170.826 177.046C170.826 175.358 171.131 173.982 171.741 172.918C172.506 171.602 173.669 170.944 175.23 170.944C176.078 170.944 176.787 171.178 177.36 171.647L177.438 171.569Z" fill="#20458D"/>
<path d="M208.853 182.457C208.853 182.754 208.619 183.059 208.15 183.371C207.69 183.677 207.221 183.829 206.746 183.829C205.72 183.829 204.702 183.36 203.691 182.423C202.583 183.264 201.353 183.684 200.001 183.684C198.529 183.684 197.292 183.305 196.288 182.546C195.188 181.706 194.638 180.572 194.638 179.144C194.638 178.013 194.999 177.076 195.72 176.332C196.47 175.559 197.622 174.946 199.176 174.492L199.443 174.414C199.257 173.663 199.165 172.979 199.165 172.361C199.165 171.469 199.38 170.733 199.811 170.152C200.287 169.506 200.952 169.182 201.807 169.182C202.55 169.182 203.178 169.416 203.691 169.885C204.204 170.353 204.46 170.933 204.46 171.625C204.46 173.008 203.438 174.008 201.394 174.626C202.212 176.723 203.07 178.415 203.97 179.702L204.07 179.423C203.364 178.307 202.673 176.883 201.996 175.15C204.018 174.51 205.029 173.484 205.029 172.071C205.029 171.521 204.858 171.026 204.516 170.588L204.438 170.666L204.594 170.799C205.107 171.238 205.363 171.811 205.363 172.517C205.363 173.901 204.345 174.901 202.309 175.518C202.829 176.924 203.427 178.21 204.103 179.378C204.319 178.731 204.427 178.043 204.427 177.314C204.427 176.756 204.393 176.336 204.326 176.054C204.966 176.44 205.452 176.749 205.787 176.98C206.218 177.277 206.642 177.504 207.058 177.66C206.196 178.56 205.412 179.635 204.705 180.884C205.07 181.427 205.43 181.847 205.787 182.144L205.865 182.066C205.702 181.873 205.504 181.624 205.274 181.319C205.906 180.203 206.631 179.207 207.448 178.329C207.589 178.411 207.76 178.489 207.961 178.564C207.114 179.449 206.329 180.52 205.609 181.776C205.727 181.977 205.85 182.148 205.977 182.289C206.4 182.609 206.824 182.769 207.247 182.769C207.611 182.769 207.89 182.676 208.084 182.49L208.284 182.301C208.336 182.241 208.418 182.204 208.529 182.189C208.745 182.189 208.853 182.278 208.853 182.457ZM209.856 183.36C209.856 183.755 209.578 184.108 209.02 184.42C208.537 184.695 208.08 184.833 207.649 184.833C206.608 184.833 205.582 184.379 204.572 183.472C203.486 184.29 202.264 184.699 200.904 184.699C199.306 184.699 197.994 184.264 196.968 183.394C196.731 183.193 196.545 183.007 196.411 182.836L196.522 182.825L196.578 182.859C197.589 183.714 198.882 184.141 200.458 184.141C201.773 184.141 203 183.721 204.137 182.881C204.59 183.297 205.066 183.632 205.564 183.885C206.099 184.152 206.642 184.286 207.192 184.286C207.637 184.286 208.106 184.13 208.596 183.818C208.983 183.572 209.217 183.297 209.299 182.992L209.421 182.981C209.711 182.981 209.856 183.107 209.856 183.36ZM203.256 171.591C203.256 171.376 203.223 171.149 203.156 170.911C203 170.866 202.844 170.844 202.688 170.844C201.84 170.844 201.417 171.335 201.417 172.317C201.417 172.733 201.484 173.183 201.617 173.666C202.204 173.399 202.606 173.149 202.821 172.919C203.111 172.599 203.256 172.157 203.256 171.591ZM202.989 170.599L202.844 170.42C202.583 170.1 202.23 169.941 201.785 169.941C200.937 169.941 200.514 170.435 200.514 171.424C200.514 172.168 200.722 172.99 201.138 173.89C201.294 173.823 201.402 173.767 201.461 173.722C201.209 173.06 201.082 172.443 201.082 171.87C201.082 170.963 201.465 170.509 202.23 170.509C202.491 170.509 202.717 170.569 202.911 170.688L202.989 170.599ZM202.922 181.542C201.747 179.958 200.803 178.247 200.09 176.411C198.544 177.221 197.771 178.523 197.771 180.315C197.771 181.148 197.972 181.851 198.373 182.423C198.893 182.758 199.466 182.925 200.09 182.925C201.116 182.925 202.06 182.464 202.922 181.542ZM199.9 175.931L199.778 175.63L199.666 175.273C197.801 176.054 196.868 177.433 196.868 179.411C196.868 180.408 197.169 181.241 197.771 181.91C197.905 182.059 198.027 182.174 198.139 182.256L198.217 182.178C197.689 181.561 197.425 180.791 197.425 179.869C197.425 178.069 198.251 176.756 199.9 175.931Z" fill="black"/>
<path d="M236.447 170.498L234.987 171.881V183.505L235.344 183.828H230.605L232.01 182.59V178.061C231.832 178.061 231.56 178.076 231.196 178.106C230.832 178.128 230.561 178.139 230.382 178.139H229.468C229.082 178.139 228.836 178.121 228.732 178.083L227.272 177.916V183.393L227.818 183.828H222.89L224.295 182.59V177.916C223.819 178.08 223.437 178.347 223.147 178.719L223.069 178.664C223.217 178.277 223.422 177.942 223.682 177.66C223.883 177.578 224.087 177.518 224.295 177.481V176.901C223.426 176.901 222.745 177.213 222.255 177.838L222.166 177.782C222.589 176.763 223.299 176.146 224.295 175.931V170.877L222.89 169.617H227.919L226.369 171V175.853C226.555 175.89 226.744 175.908 226.937 175.908V171.491L228.041 170.498H228.822L227.272 171.881V175.942L228.621 176.031L229.992 176.042C230.668 176.049 231.341 176.016 232.01 175.942V170.777L230.761 169.617H235.544L234.084 171V182.702L234.652 183.204V171.491L235.689 170.498H236.447ZM236.247 184.71H231.497L231.876 184.386H235.879L236.247 184.71ZM228.71 184.71H223.782L224.161 184.386H228.286L228.71 184.71ZM232.01 177.66V177.024C231.23 177.172 230.386 177.247 229.479 177.247H228.543C228.171 177.247 227.937 177.232 227.84 177.202L226.692 177.068L226.681 177.18C226.689 177.165 226.7 177.15 226.715 177.135C226.677 177.068 226.562 177.035 226.369 177.035V182.702L226.937 183.137V177.593L227.105 177.615L228.264 177.76C228.45 177.76 228.729 177.767 229.1 177.782C229.472 177.797 229.751 177.805 229.936 177.805C230.687 177.805 231.378 177.756 232.01 177.66Z" fill="#C30000"/>
<path d="M255.071 170.587L254.971 170.709C254.235 171.602 253.648 172.61 253.21 173.733L253.087 173.498L252.942 173.186C253.291 172.249 253.778 171.383 254.403 170.587H255.071ZM251.638 179.299L251.292 178.853V175.272L251.638 174.781V179.299ZM254.748 183.772H242.529L244.124 182.512V177.559C243.641 177.656 243.18 177.886 242.741 178.251C242.867 177.879 243.057 177.57 243.31 177.325C243.622 177.221 243.893 177.169 244.124 177.169V176.611H243.8C243.079 176.611 242.429 176.864 241.849 177.369C242.184 176.35 242.942 175.841 244.124 175.841V170.922L242.54 169.706H254.168L254.068 169.817C253.399 170.561 252.816 171.572 252.318 172.851L252.184 172.606C252.087 172.413 251.931 172.123 251.716 171.736C251.24 171.483 250.397 171.357 249.185 171.357C248.955 171.357 248.605 171.368 248.137 171.39C247.676 171.405 247.331 171.412 247.1 171.412V175.841H249.375L250.735 173.9V178.418L250.032 177.492H247.1V183.014L248.884 182.98C249.449 182.973 250.003 182.876 250.545 182.69C251.184 182.475 251.694 182.043 252.073 181.396L252.73 180.281C252.938 181.069 253.18 181.697 253.455 182.166C253.73 182.635 254.161 183.17 254.748 183.772ZM255.651 184.654H243.443L243.856 184.33H255.484C254.808 183.683 254.31 183.085 253.99 182.534C253.841 182.289 253.678 181.906 253.5 181.385L253.566 181.262L253.633 181.151C253.797 181.902 254.039 182.538 254.358 183.059C254.626 183.505 255.057 184.036 255.651 184.654ZM251.515 171.446C251.307 171.193 251.084 171 250.846 170.866C250.356 170.598 249.501 170.464 248.282 170.464C248 170.464 247.777 170.468 247.613 170.475C246.803 170.513 246.335 170.531 246.208 170.531V175.841H246.766V171.078L248.728 171.022C249.962 170.985 250.802 171.111 251.247 171.401L251.437 171.524L251.515 171.446ZM249.787 177.169L249.375 176.611H246.208V183.003H246.487C246.576 183.003 246.669 183.01 246.766 183.025V177.169H249.787Z" fill="#C30000"/>
<path d="M276.995 183.828H271.701L273.15 182.59L272.604 181.162L272.08 179.69C271.322 180.366 270.708 181.107 270.24 181.91L270.084 181.664L269.995 181.53L269.939 181.441C270.445 180.608 271.091 179.85 271.879 179.165C271.812 179.002 271.704 178.764 271.556 178.452C270.656 179.203 269.921 180.054 269.348 181.006C268.902 180.285 268.341 179.511 267.665 178.686L267.453 179.232C267.379 179.419 267.323 179.571 267.286 179.69L266.907 180.839C266.706 181.449 266.606 181.965 266.606 182.389C266.606 182.873 266.71 183.293 266.918 183.65C267.052 183.88 267.327 184.204 267.743 184.62L267.843 184.721H262.659C262.741 184.676 262.826 184.628 262.915 184.576C263.005 184.524 263.098 184.464 263.194 184.397H267.709L267.442 184.174L267.375 184.085C266.899 183.624 266.598 183.252 266.472 182.97C266.331 182.657 266.26 182.315 266.26 181.943C266.26 181.579 266.364 181.077 266.572 180.437L267.118 178.786L267.33 178.273L266.795 177.637L266.394 178.786L266.015 179.935C265.807 180.568 265.703 181.088 265.703 181.497C265.703 181.936 265.773 182.289 265.914 182.557C266.078 182.869 266.39 183.256 266.851 183.717L266.907 183.795L266.951 183.828H261.734C262.707 183.293 263.491 182.579 264.086 181.687C264.74 180.705 265.342 179.307 265.892 177.492L265.223 177.392L265.357 177.158L265.937 177.37L265.993 177.124C265.569 176.775 265.011 176.563 264.32 176.488C264.721 175.856 265.011 175.268 265.19 174.726L265.246 174.782C265.268 174.804 265.286 174.815 265.301 174.815L265.825 175.306C266.056 175.522 266.282 175.7 266.505 175.841C266.751 175.246 267.074 174.41 267.475 173.331L268.412 170.799L267.286 169.617H272.158L271.054 170.844L272.926 175.763L273.083 175.663C273.119 175.64 273.184 175.614 273.274 175.585L271.645 171.323L272.359 170.52H273.06L271.957 171.747L273.385 175.496C273.704 175.287 273.98 175.083 274.209 174.882L274.565 174.57C274.73 175.343 275.006 176.049 275.39 176.689L275.034 176.667C274.359 176.622 273.815 176.745 273.405 177.035L275.446 182.613L276.016 183.059L273.998 177.537C274.369 177.306 274.859 177.202 275.469 177.224L276.036 177.247C275.712 176.674 275.464 176.131 275.302 175.618L275.469 175.473C275.632 176.247 275.908 176.953 276.294 177.593L275.926 177.57C275.621 177.555 275.305 177.581 274.977 177.648C274.725 177.708 274.503 177.805 274.31 177.938L276.237 183.237L276.995 183.828ZM277.889 184.721H272.593L272.993 184.397H277.454L277.889 184.721ZM269.404 172.64L269.047 171.636L267.197 176.499L267.743 177.057L269.404 172.64ZM271.121 177.202L269.649 173.287L268.1 177.47L268.345 177.782C268.419 177.886 268.531 178.043 268.679 178.251L269.348 179.177L271.121 177.202Z" fill="#C30000"/>
<path d="M297.537 170.743L297.45 170.676L296.692 172.004C296.55 172.249 296.427 172.528 296.324 172.84C296.218 173.145 296.097 173.462 295.955 173.789L295.932 173.744L295.898 173.621L295.754 173.064L296.045 172.294C296.074 172.205 296.117 172.089 296.179 171.948C296.192 171.896 296.246 171.784 296.334 171.613L296.957 170.498H297.537C297.501 170.58 297.486 170.647 297.494 170.699L297.537 170.743ZM296.635 169.617L296.545 169.795L295.787 171.123C295.7 171.279 295.509 171.743 295.22 172.517C295.166 172.658 295.115 172.788 295.063 172.907L295.03 172.863L295.007 172.74C294.927 172.294 294.777 171.892 294.561 171.535C294.161 171.357 293.677 171.268 293.112 171.268H291.919V183.516L292.241 183.828H287.481L288.943 182.59V171.268H288.698C287.724 171.268 287.025 171.472 286.603 171.881C286.118 172.35 285.876 173.038 285.876 173.945L285.708 173.566L285.564 173.142C285.654 172.398 285.868 171.863 286.211 171.535C286.628 171.134 287.309 170.933 288.252 170.933H288.641C288.775 170.955 288.876 170.97 288.943 170.977V170.464L288.285 170.398C288.128 170.383 287.968 170.375 287.806 170.375C286.832 170.375 286.128 170.583 285.698 171C285.216 171.468 284.974 172.156 284.974 173.064C284.915 172.892 284.842 172.699 284.762 172.483C284.368 171.383 283.938 170.435 283.469 169.639L296.635 169.617ZM293.136 184.71H288.386L288.775 184.386H292.788L293.136 184.71ZM294.383 171.245C294.339 171.178 294.308 171.138 294.293 171.123C294.249 171.063 294.172 170.989 294.061 170.899C293.62 170.55 293.004 170.375 292.21 170.375H291.017V182.679L291.584 183.204V170.933H292.656C293.347 170.933 293.896 171.063 294.306 171.323L294.383 171.245Z" fill="#C30000"/>
<path d="M309.83 170.509L308.426 171.926V183.483L308.828 183.828H303.998L305.449 182.613V170.922L303.988 169.617H308.928L307.521 171.033V182.713L308.08 183.204V171.547L309.106 170.509H309.83ZM309.73 184.721H304.903L305.305 184.397H309.328L309.73 184.721Z" fill="#C30000"/>
<path d="M329.169 170.509C328.404 170.903 327.911 171.271 327.697 171.613C327.319 172.208 327.128 173.06 327.128 174.168V184.721H325.288L325.12 184.397H326.783V173.722C326.783 172.621 326.966 171.792 327.329 171.234C327.44 171.063 327.715 170.821 328.154 170.509H329.169ZM328.264 169.617C327.507 170.018 327.017 170.386 326.793 170.721C326.414 171.294 326.226 172.145 326.226 173.275V183.828H324.386L319.19 173.677L319.09 173.699V179.232C319.09 181.159 319.219 182.512 319.479 183.293L319.502 183.36L319.546 183.427C319.858 183.605 320.126 183.724 320.35 183.784L320.25 183.828H315.433C316.183 183.501 316.693 183.088 316.961 182.59C317.273 182.003 317.428 181.043 317.428 179.712V170.766L316.046 169.617H321.275L319.814 170.587L325.211 181.173L325.311 181.151V180.928L325.301 180.694L320.404 171.078L321.252 170.509H322.177L320.719 171.48L325.211 180.303L325.311 180.281V173.365C325.311 172.123 325.203 171.264 324.986 170.788L324.486 170.509H324.631L324.775 170.632L324.852 170.554C324.623 170.256 324.203 169.944 323.595 169.617H328.264ZM321.242 184.676L321.141 184.721H316.335C316.559 184.639 316.77 184.531 316.971 184.397H320.585C320.755 184.502 320.974 184.595 321.242 184.676ZM319.358 183.17C319.268 183.059 319.198 182.936 319.147 182.802C318.878 182.133 318.744 180.794 318.744 178.786V172.796L318.5 172.339L318.299 171.881L318.188 171.904V178.329C318.188 180.389 318.317 181.743 318.577 182.389C318.726 182.754 318.958 183.04 319.281 183.248L319.358 183.17Z" fill="#C30000"/>
<path d="M348.985 170.955L347.067 174.726C347.039 174.465 346.982 174.205 346.9 173.945L348.317 171.178C348.554 171.134 348.778 171.059 348.985 170.955ZM349.822 176.656L348.371 178.039V183.416L348.807 183.828H342.129C341.191 183.828 340.416 183.713 339.8 183.483C339.189 183.252 338.576 182.851 337.96 182.278C336.488 180.924 335.751 179.113 335.751 176.845C335.751 174.495 336.447 172.662 337.836 171.346C339.055 170.193 340.508 169.617 342.196 169.617C342.725 169.617 343.493 169.739 344.503 169.985C345.516 170.223 346.273 170.342 346.779 170.342C347.209 170.342 347.647 170.249 348.093 170.063L346.176 173.822C346.065 173.041 345.83 172.372 345.475 171.814C344.923 171.457 344.281 171.279 343.544 171.279C341.954 171.279 340.766 171.948 339.978 173.287C339.338 174.372 339.019 175.774 339.019 177.492C339.019 179.508 339.408 181.047 340.189 182.111C341.029 182.75 342.137 183.07 343.511 183.07H345.395V177.425H342.565C341.879 177.425 341.398 177.258 341.114 176.923C341.367 177.028 341.702 177.08 342.119 177.08H345.395V176.522H341.671C340.55 176.522 339.988 176.09 339.988 175.228C339.988 174.923 340.068 174.651 340.222 174.413C340.4 174.138 340.635 174.001 340.926 174.001C341.119 174.001 341.282 174.075 341.416 174.224C341.557 174.365 341.627 174.532 341.627 174.726C341.627 175.053 341.506 175.243 341.258 175.295L340.946 175.362C340.828 175.362 340.761 175.417 340.745 175.529C340.745 175.678 340.905 175.752 341.225 175.752H341.671L341.962 175.741C342.124 175.6 342.199 175.414 342.184 175.183L342.173 175.005L342.307 175.127C342.457 175.261 342.531 175.429 342.531 175.629L342.519 175.663V175.752H348.93L347.469 177.135V182.579L348.026 183.092V177.626L349.052 176.656H349.822ZM350 184.833H343.021C342.055 184.833 341.274 184.725 340.678 184.509C339.959 184.249 339.323 183.836 338.774 183.271L338.416 182.903L338.382 182.713C339.045 183.315 339.673 183.725 340.266 183.94C340.905 184.171 341.676 184.286 342.575 184.286H349.376L350 184.833ZM345.294 171.569L345.073 171.312C344.529 170.688 343.719 170.375 342.642 170.375C341.052 170.375 339.862 171.044 339.075 172.383C338.436 173.476 338.117 174.878 338.117 176.589C338.117 179.08 338.725 180.857 339.944 181.921L340.021 181.843C339.13 180.779 338.684 179.18 338.684 177.046C338.684 175.358 338.988 173.982 339.599 172.918C340.364 171.602 341.526 170.944 343.088 170.944C343.936 170.944 344.645 171.178 345.217 171.647L345.294 171.569Z" fill="#C30000"/>
<path d="M60 153.279H348.945V155.899H60V153.279Z" fill="black"/>
</svg>
