<svg width="894" height="510" viewBox="0 0 894 510" fill="none" xmlns="http://www.w3.org/2000/svg">
<mask id="mask0_685_909" style="mask-type:alpha" maskUnits="userSpaceOnUse" x="0" y="0" width="894" height="510">
<rect y="0.84375" width="894" height="508.314" fill="#1B3345"/>
</mask>
<g mask="url(#mask0_685_909)">
<path d="M113.777 383.77V417.446L127.173 419.235V422.75H90.5472V419.235L101.04 417.446V339.09L89.6893 337.365V333.853H127.899C138.986 333.853 147.169 335.731 152.449 339.487C157.728 343.245 160.368 349.275 160.368 357.585C160.368 363.507 158.762 368.633 155.55 372.965C152.339 377.25 147.895 380.233 142.22 381.914L166.175 417.446L175.744 419.235V422.75H154.56L129.681 383.77H113.777ZM147.235 358.513C147.235 351.751 145.585 346.957 142.286 344.129C139.03 341.256 133.289 339.819 125.062 339.819H113.777V377.804H125.457C133.333 377.804 138.92 376.345 142.22 373.428C145.563 370.467 147.235 365.495 147.235 358.513Z" fill="#253D4F"/>
<path d="M-65.8979 383.77V417.446L-52.5013 419.235V422.75H-89.1275V419.235L-78.6346 417.446V339.09L-89.9854 337.365V333.853H-51.7755C-40.6887 333.853 -32.5055 335.731 -27.226 339.487C-21.9467 343.245 -19.3068 349.275 -19.3068 357.585C-19.3068 363.507 -20.9127 368.633 -24.1245 372.965C-27.336 377.25 -31.7797 380.233 -37.4549 381.914L-13.4995 417.446L-3.93067 419.235V422.75H-25.1144L-49.9937 383.77H-65.8979ZM-32.4396 358.513C-32.4396 351.751 -34.0893 346.957 -37.389 344.129C-40.6447 341.256 -46.386 339.819 -54.6132 339.819H-65.8979V377.804H-54.2172C-46.3422 377.804 -40.7547 376.345 -37.4549 373.428C-34.1114 370.467 -32.4396 365.495 -32.4396 358.513Z" fill="#253D4F"/>
<path d="M282.104 1000.37V1034.05L295.5 1035.84V1039.35H258.874V1035.84L269.367 1034.05V955.693L258.016 953.968V950.456H296.226C307.313 950.456 315.496 952.334 320.776 956.09C326.055 959.848 328.695 965.878 328.695 974.188C328.695 980.109 327.089 985.236 323.877 989.568C320.666 993.853 316.222 996.836 310.547 998.517L334.502 1034.05L344.071 1035.84V1039.35H322.887L298.008 1000.37H282.104ZM315.562 975.115C315.562 968.354 313.912 963.56 310.612 960.732C307.357 957.859 301.616 956.422 293.388 956.422H282.104V994.407H293.784C301.659 994.407 307.247 992.948 310.547 990.031C313.89 987.07 315.562 982.098 315.562 975.115Z" fill="#253D4F"/>
<path d="M200.777 537.921V571.596L214.174 573.386V576.9H177.548V573.386L188.04 571.596V493.241L176.69 491.516V488.004H214.9C225.986 488.004 234.17 489.882 239.449 493.638C244.728 497.396 247.368 503.426 247.368 511.735C247.368 517.657 245.762 522.784 242.551 527.116C239.339 531.401 234.895 534.384 229.22 536.065L253.176 571.596L262.744 573.386V576.9H241.561L216.681 537.921H200.777ZM234.236 512.663C234.236 505.902 232.586 501.107 229.286 498.279C226.03 495.407 220.289 493.97 212.062 493.97H200.777V531.955H212.458C220.333 531.955 225.92 530.495 229.22 527.579C232.564 524.618 234.236 519.646 234.236 512.663Z" fill="#253D4F"/>
<path d="M21.1024 537.921V571.596L34.4991 573.386V576.9H-2.12711V573.386L8.36578 571.596V493.241L-2.98501 491.516V488.004H35.2248C46.3116 488.004 54.4949 489.882 59.7744 493.638C65.0537 497.396 67.6935 503.426 67.6935 511.735C67.6935 517.657 66.0877 522.784 62.8759 527.116C59.6644 531.401 55.2207 534.384 49.5454 536.065L73.5008 571.596L83.0697 573.386V576.9H61.886L37.0066 537.921H21.1024ZM54.5608 512.663C54.5608 505.902 52.9111 501.107 49.6114 498.279C46.3557 495.407 40.6143 493.97 32.3872 493.97H21.1024V531.955H32.7832C40.6582 531.955 46.2457 530.495 49.5454 527.579C52.889 524.618 54.5608 519.646 54.5608 512.663Z" fill="#253D4F"/>
<path d="M369.104 1154.52V1188.2L382.501 1189.99V1193.5H345.874V1189.99L356.367 1188.2V1109.84L345.017 1108.12V1104.61H383.226C394.313 1104.61 402.496 1106.48 407.776 1110.24C413.055 1114 415.695 1120.03 415.695 1128.34C415.695 1134.26 414.089 1139.39 410.877 1143.72C407.666 1148 403.222 1150.99 397.547 1152.67L421.502 1188.2L431.071 1189.99V1193.5H409.888L385.008 1154.52H369.104ZM402.562 1129.27C402.562 1122.5 400.913 1117.71 397.613 1114.88C394.357 1112.01 388.616 1110.57 380.389 1110.57H369.104V1148.56H380.785C388.66 1148.56 394.247 1147.1 397.547 1144.18C400.891 1141.22 402.562 1136.25 402.562 1129.27Z" fill="#253D4F"/>
<path d="M26.7764 229.619V263.295L40.173 265.084V268.599H3.54682V265.084L14.0397 263.295V184.94L2.68893 183.214V179.702H40.8988C51.9856 179.702 60.1688 181.58 65.4483 185.336C70.7276 189.094 73.3675 195.125 73.3675 203.434C73.3675 209.356 71.7616 214.483 68.5498 218.814C65.3383 223.1 60.8946 226.083 55.2194 227.764L79.1748 263.295L88.7437 265.084V268.599H67.5599L42.6806 229.619H26.7764ZM60.2347 204.362C60.2347 197.601 58.585 192.806 55.2853 189.978C52.0297 187.106 46.2883 185.668 38.0611 185.668H26.7764V223.653H38.4571C46.3322 223.653 51.9197 222.194 55.2194 219.277C58.563 216.316 60.2347 211.344 60.2347 204.362Z" fill="#253D4F"/>
<path d="M-152.898 229.619V263.295L-139.502 265.084V268.599H-176.128V265.084L-165.635 263.295V184.94L-176.986 183.214V179.702H-138.776C-127.689 179.702 -119.506 181.58 -114.226 185.336C-108.947 189.094 -106.307 195.125 -106.307 203.434C-106.307 209.356 -107.913 214.483 -111.125 218.814C-114.336 223.1 -118.78 226.083 -124.455 227.764L-100.5 263.295L-90.931 265.084V268.599H-112.115L-136.994 229.619H-152.898ZM-119.44 204.362C-119.44 197.601 -121.09 192.806 -124.389 189.978C-127.645 187.106 -133.386 185.668 -141.614 185.668H-152.898V223.653H-141.218C-133.343 223.653 -127.755 222.194 -124.455 219.277C-121.112 216.316 -119.44 211.344 -119.44 204.362Z" fill="#253D4F"/>
<path d="M195.103 846.222V879.898L208.5 881.687V885.202H171.874V881.687L182.367 879.898V801.543L171.016 799.817V796.305H209.226C220.312 796.305 228.496 798.183 233.775 801.939C239.054 805.697 241.694 811.728 241.694 820.037C241.694 825.959 240.088 831.085 236.877 835.417C233.665 839.703 229.221 842.686 223.546 844.367L247.502 879.898L257.07 881.687V885.202H235.887L211.007 846.222H195.103ZM228.562 820.965C228.562 814.203 226.912 809.409 223.612 806.581C220.356 803.708 214.615 802.271 206.388 802.271H195.103V840.256H206.784C214.659 840.256 220.246 838.797 223.546 835.88C226.89 832.919 228.562 827.947 228.562 820.965Z" fill="#253D4F"/>
<path d="M119.451 75.4687V109.144L132.847 110.933V114.448H96.2211V110.933L106.714 109.144V30.7889L95.3632 29.0637V25.5514H133.573C144.66 25.5514 152.843 27.4293 158.123 31.1853C163.402 34.9435 166.042 40.9739 166.042 49.2832C166.042 55.205 164.436 60.3318 161.224 64.6636C158.013 68.9489 153.569 71.932 147.894 73.6129L171.849 109.144L181.418 110.933V114.448H160.234L135.355 75.4687H119.451ZM152.909 50.211C152.909 43.4498 151.259 38.6552 147.96 35.8271C144.704 32.9548 138.963 31.5175 130.735 31.5175H119.451V69.5025H131.131C139.006 69.5025 144.594 68.0431 147.894 65.1265C151.237 62.1655 152.909 57.1937 152.909 50.211Z" fill="#253D4F"/>
<path d="M287.778 692.072V725.747L301.174 727.536V731.051H264.548V727.536L275.041 725.747V647.392L263.69 645.667V642.154H301.9C312.987 642.154 321.17 644.032 326.449 647.788C331.729 651.546 334.369 657.577 334.369 665.886C334.369 671.808 332.763 676.935 329.551 681.267C326.339 685.552 321.896 688.535 316.221 690.216L340.176 725.747L349.745 727.536V731.051H328.561L303.682 692.072H287.778ZM321.236 666.814C321.236 660.053 319.586 655.258 316.286 652.43C313.031 649.558 307.289 648.12 299.062 648.12H287.778V686.105H299.458C307.333 686.105 312.921 684.646 316.221 681.729C319.564 678.768 321.236 673.797 321.236 666.814Z" fill="#253D4F"/>
<path d="M-60.224 75.4687V109.144L-46.8274 110.933V114.448H-83.4536V110.933L-72.9607 109.144V30.7889L-84.3115 29.0637V25.5514H-46.1016C-35.0148 25.5514 -26.8316 27.4293 -21.5521 31.1853C-16.2728 34.9435 -13.6329 40.9739 -13.6329 49.2832C-13.6329 55.205 -15.2388 60.3318 -18.4505 64.6636C-21.6621 68.9489 -26.1058 71.932 -31.781 73.6129L-7.82561 109.144L1.74327 110.933V114.448H-19.4404L-44.3198 75.4687H-60.224ZM-26.7656 50.211C-26.7656 43.4498 -28.4154 38.6552 -31.7151 35.8271C-34.9707 32.9548 -40.7121 31.5175 -48.9392 31.5175H-60.224V69.5025H-48.5433C-40.6682 69.5025 -35.0807 68.0431 -31.781 65.1265C-28.4374 62.1655 -26.7656 57.1937 -26.7656 50.211Z" fill="#253D4F"/>
<path d="M-238.953 75.4687V109.144L-225.556 110.933V114.448H-262.183V110.933L-251.69 109.144V30.7889L-263.04 29.0637V25.5514H-224.831C-213.744 25.5514 -205.561 27.4293 -200.281 31.1853C-195.002 34.9435 -192.362 40.9739 -192.362 49.2832C-192.362 55.205 -193.968 60.3318 -197.18 64.6636C-200.391 68.9489 -204.835 71.932 -210.51 73.6129L-186.555 109.144L-176.986 110.933V114.448H-198.169L-223.049 75.4687H-238.953ZM-205.495 50.211C-205.495 43.4498 -207.144 38.6552 -210.444 35.8271C-213.7 32.9548 -219.441 31.5175 -227.668 31.5175H-238.953V69.5025H-227.272C-219.397 69.5025 -213.81 68.0431 -210.51 65.1265C-207.166 62.1655 -205.495 57.1937 -205.495 50.211Z" fill="#253D4F"/>
<path d="M108.103 692.072V725.747L121.499 727.536V731.051H84.8733V727.536L95.3662 725.747V647.392L84.0154 645.667V642.154H122.225C133.312 642.154 141.495 644.032 146.775 647.788C152.054 651.546 154.694 657.577 154.694 665.886C154.694 671.808 153.088 676.935 149.876 681.267C146.665 685.552 142.221 688.535 136.546 690.216L160.501 725.747L170.07 727.536V731.051H148.886L124.007 692.072H108.103ZM141.561 666.814C141.561 660.053 139.911 655.258 136.612 652.43C133.356 649.558 127.615 648.12 119.388 648.12H108.103V686.105H119.784C127.659 686.105 133.246 684.646 136.546 681.729C139.889 678.768 141.561 673.797 141.561 666.814Z" fill="#253D4F"/>
<path d="M745.475 229.619V263.295L758.872 265.084V268.599H722.246V265.084L732.738 263.295V184.94L721.388 183.214V179.702H759.598C770.684 179.702 778.868 181.58 784.147 185.336C789.426 189.094 792.066 195.125 792.066 203.434C792.066 209.356 790.46 214.483 787.249 218.814C784.037 223.1 779.593 226.083 773.918 227.764L797.874 263.295L807.442 265.084V268.599H786.259L761.379 229.619H745.475ZM778.934 204.362C778.934 197.601 777.284 192.806 773.984 189.978C770.728 187.106 764.987 185.668 756.76 185.668H745.475V223.653H757.156C765.031 223.653 770.618 222.194 773.918 219.277C777.262 216.316 778.934 211.344 778.934 204.362Z" fill="#253D4F"/>
<path d="M913.802 846.222V879.898L927.199 881.687V885.202H890.572V881.687L901.065 879.898V801.543L889.715 799.817V796.305H927.924C939.011 796.305 947.194 798.183 952.474 801.939C957.753 805.697 960.393 811.728 960.393 820.037C960.393 825.959 958.787 831.085 955.575 835.417C952.364 839.703 947.92 842.686 942.245 844.367L966.2 879.898L975.769 881.687V885.202H954.586L929.706 846.222H913.802ZM947.26 820.965C947.26 814.203 945.611 809.409 942.311 806.581C939.055 803.708 933.314 802.271 925.087 802.271H913.802V840.256H925.483C933.358 840.256 938.945 838.797 942.245 835.88C945.589 832.919 947.26 827.947 947.26 820.965Z" fill="#253D4F"/>
<path d="M925.15 229.619V263.295L938.547 265.084V268.599H901.92V265.084L912.413 263.295V184.94L901.062 183.214V179.702H939.272C950.359 179.702 958.542 181.58 963.822 185.336C969.101 189.094 971.741 195.125 971.741 203.434C971.741 209.356 970.135 214.483 966.923 218.814C963.712 223.1 959.268 226.083 953.593 227.764L977.548 263.295L987.117 265.084V268.599H965.933L941.054 229.619H925.15ZM958.608 204.362C958.608 197.601 956.958 192.806 953.659 189.978C950.403 187.106 944.662 185.668 936.435 185.668H925.15V223.653H936.831C944.706 223.653 950.293 222.194 953.593 219.277C956.936 216.316 958.608 211.344 958.608 204.362Z" fill="#253D4F"/>
<path d="M1093.48 846.222V879.898L1106.87 881.687V885.202H1070.25V881.687L1080.74 879.898V801.543L1069.39 799.817V796.305H1107.6C1118.69 796.305 1126.87 798.183 1132.15 801.939C1137.43 805.697 1140.07 811.728 1140.07 820.037C1140.07 825.959 1138.46 831.085 1135.25 835.417C1132.04 839.703 1127.59 842.686 1121.92 844.367L1145.88 879.898L1155.44 881.687V885.202H1134.26L1109.38 846.222H1093.48ZM1126.94 820.965C1126.94 814.203 1125.29 809.409 1121.99 806.581C1118.73 803.708 1112.99 802.271 1104.76 802.271H1093.48V840.256H1105.16C1113.03 840.256 1118.62 838.797 1121.92 835.88C1125.26 832.919 1126.94 827.947 1126.94 820.965Z" fill="#253D4F"/>
<path d="M1273.15 846.222V879.898L1286.55 881.687V885.202H1249.92V881.687L1260.41 879.898V801.543L1249.06 799.817V796.305H1287.27C1298.36 796.305 1306.54 798.183 1311.82 801.939C1317.1 805.697 1319.74 811.728 1319.74 820.037C1319.74 825.959 1318.14 831.085 1314.92 835.417C1311.71 839.703 1307.27 842.686 1301.59 844.367L1325.55 879.898L1335.12 881.687V885.202H1313.94L1289.06 846.222H1273.15ZM1306.61 820.965C1306.61 814.203 1304.96 809.409 1301.66 806.581C1298.4 803.708 1292.66 802.271 1284.44 802.271H1273.15V840.256H1284.83C1292.71 840.256 1298.29 838.797 1301.59 835.88C1304.94 832.919 1306.61 827.947 1306.61 820.965Z" fill="#253D4F"/>
<path d="M838.149 75.4687V109.144L851.546 110.933V114.448H814.92V110.933L825.413 109.144V30.7889L814.062 29.0637V25.5514H852.272C863.359 25.5514 871.542 27.4293 876.821 31.1853C882.101 34.9435 884.741 40.9739 884.741 49.2832C884.741 55.205 883.135 60.3318 879.923 64.6636C876.711 68.9489 872.268 71.932 866.592 73.6129L890.548 109.144L900.117 110.933V114.448H878.933L854.054 75.4687H838.149ZM871.608 50.211C871.608 43.4498 869.958 38.6552 866.658 35.8271C863.403 32.9548 857.661 31.5175 849.434 31.5175H838.149V69.5025H849.83C857.705 69.5025 863.293 68.0431 866.592 65.1265C869.936 62.1655 871.608 57.1937 871.608 50.211Z" fill="#253D4F"/>
<path d="M1006.48 692.072V725.747L1019.87 727.536V731.051H983.247V727.536L993.74 725.747V647.392L982.389 645.667V642.154H1020.6C1031.69 642.154 1039.87 644.032 1045.15 647.788C1050.43 651.546 1053.07 657.577 1053.07 665.886C1053.07 671.808 1051.46 676.935 1048.25 681.267C1045.04 685.552 1040.59 688.535 1034.92 690.216L1058.87 725.747L1068.44 727.536V731.051H1047.26L1022.38 692.072H1006.48ZM1039.93 666.814C1039.93 660.053 1038.28 655.258 1034.99 652.43C1031.73 649.558 1025.99 648.12 1017.76 648.12H1006.48V686.105H1018.16C1026.03 686.105 1031.62 684.646 1034.92 681.729C1038.26 678.768 1039.93 673.797 1039.93 666.814Z" fill="#253D4F"/>
<path d="M1186.15 692.072V725.747L1199.55 727.536V731.051H1162.92V727.536L1173.41 725.747V647.392L1162.06 645.667V642.154H1200.27C1211.36 642.154 1219.54 644.032 1224.82 647.788C1230.1 651.546 1232.74 657.577 1232.74 665.886C1232.74 671.808 1231.14 676.935 1227.92 681.267C1224.71 685.552 1220.27 688.535 1214.59 690.216L1238.55 725.747L1248.12 727.536V731.051H1226.93L1202.06 692.072H1186.15ZM1219.61 666.814C1219.61 660.053 1217.96 655.258 1214.66 652.43C1211.4 649.558 1205.66 648.12 1197.44 648.12H1186.15V686.105H1197.83C1205.71 686.105 1211.29 684.646 1214.59 681.729C1217.94 678.768 1219.61 673.797 1219.61 666.814Z" fill="#253D4F"/>
<path d="M641.453 1000.37V1034.05L654.85 1035.84V1039.35H618.223V1035.84L628.716 1034.05V955.693L617.366 953.968V950.456H655.575C666.662 950.456 674.845 952.334 680.125 956.09C685.404 959.848 688.044 965.878 688.044 974.188C688.044 980.109 686.438 985.236 683.226 989.568C680.015 993.853 675.571 996.836 669.896 998.517L693.851 1034.05L703.42 1035.84V1039.35H682.237L657.357 1000.37H641.453ZM674.911 975.115C674.911 968.354 673.262 963.56 669.962 960.732C666.706 957.859 660.965 956.422 652.738 956.422H641.453V994.407H653.134C661.009 994.407 666.596 992.948 669.896 990.031C673.24 987.07 674.911 982.098 674.911 975.115Z" fill="#253D4F"/>
<path d="M473.126 383.77V417.446L486.523 419.235V422.75H449.897V419.235L460.389 417.446V339.09L449.039 337.365V333.853H487.249C498.335 333.853 506.519 335.731 511.798 339.487C517.077 343.245 519.717 349.275 519.717 357.585C519.717 363.507 518.111 368.633 514.9 372.965C511.688 377.25 507.244 380.233 501.569 381.914L525.525 417.446L535.093 419.235V422.75H513.91L489.03 383.77H473.126ZM506.585 358.513C506.585 351.751 504.935 346.957 501.635 344.129C498.379 341.256 492.638 339.819 484.411 339.819H473.126V377.804H484.807C492.682 377.804 498.269 376.345 501.569 373.428C504.913 370.467 506.585 365.495 506.585 358.513Z" fill="#253D4F"/>
<path d="M728.453 1154.52V1188.2L741.85 1189.99V1193.5H705.224V1189.99L715.717 1188.2V1109.84L704.366 1108.12V1104.61H742.576C753.663 1104.61 761.846 1106.48 767.125 1110.24C772.405 1114 775.044 1120.03 775.044 1128.34C775.044 1134.26 773.439 1139.39 770.227 1143.72C767.015 1148 762.572 1150.99 756.896 1152.67L780.852 1188.2L790.421 1189.99V1193.5H769.237L744.358 1154.52H728.453ZM761.912 1129.27C761.912 1122.5 760.262 1117.71 756.962 1114.88C753.707 1112.01 747.965 1110.57 739.738 1110.57H728.453V1148.56H740.134C748.009 1148.56 753.597 1147.1 756.896 1144.18C760.24 1141.22 761.912 1136.25 761.912 1129.27Z" fill="#253D4F"/>
<path d="M560.127 537.921V571.596L573.523 573.386V576.9H536.897V573.386L547.39 571.596V493.241L536.039 491.516V488.004H574.249C585.336 488.004 593.519 489.882 598.798 493.638C604.078 497.396 606.718 503.426 606.718 511.735C606.718 517.657 605.112 522.784 601.9 527.116C598.688 531.401 594.245 534.384 588.57 536.065L612.525 571.596L622.094 573.386V576.9H600.91L576.031 537.921H560.127ZM593.585 512.663C593.585 505.902 591.935 501.107 588.635 498.279C585.38 495.407 579.638 493.97 571.411 493.97H560.127V531.955H571.807C579.682 531.955 585.27 530.495 588.57 527.579C591.913 524.618 593.585 519.646 593.585 512.663Z" fill="#253D4F"/>
<path d="M386.126 229.619V263.295L399.522 265.084V268.599H362.896V265.084L373.389 263.295V184.94L362.038 183.214V179.702H400.248C411.335 179.702 419.518 181.58 424.798 185.336C430.077 189.094 432.717 195.125 432.717 203.434C432.717 209.356 431.111 214.483 427.899 218.814C424.688 223.1 420.244 226.083 414.569 227.764L438.524 263.295L448.093 265.084V268.599H426.909L402.03 229.619H386.126ZM419.584 204.362C419.584 197.601 417.934 192.806 414.635 189.978C411.379 187.106 405.638 185.668 397.411 185.668H386.126V223.653H397.807C405.682 223.653 411.269 222.194 414.569 219.277C417.912 216.316 419.584 211.344 419.584 204.362Z" fill="#253D4F"/>
<path d="M554.453 846.222V879.898L567.849 881.687V885.202H531.223V881.687L541.716 879.898V801.543L530.365 799.817V796.305H568.575C579.662 796.305 587.845 798.183 593.125 801.939C598.404 805.697 601.044 811.728 601.044 820.037C601.044 825.959 599.438 831.085 596.226 835.417C593.015 839.703 588.571 842.686 582.896 844.367L606.851 879.898L616.42 881.687V885.202H595.236L570.357 846.222H554.453ZM587.911 820.965C587.911 814.203 586.261 809.409 582.962 806.581C579.706 803.708 573.965 802.271 565.737 802.271H554.453V840.256H566.133C574.008 840.256 579.596 838.797 582.896 835.88C586.239 832.919 587.911 827.947 587.911 820.965Z" fill="#253D4F"/>
<path d="M461.778 1000.37V1034.05L475.175 1035.84V1039.35H438.549V1035.84L449.042 1034.05V955.693L437.691 953.968V950.456H475.901C486.987 950.456 495.171 952.334 500.45 956.09C505.73 959.848 508.369 965.878 508.369 974.188C508.369 980.109 506.764 985.236 503.552 989.568C500.34 993.853 495.897 996.836 490.221 998.517L514.177 1034.05L523.746 1035.84V1039.35H502.562L477.682 1000.37H461.778ZM495.237 975.115C495.237 968.354 493.587 963.56 490.287 960.732C487.032 957.859 481.29 956.422 473.063 956.422H461.778V994.407H473.459C481.334 994.407 486.922 992.948 490.221 990.031C493.565 987.07 495.237 982.098 495.237 975.115Z" fill="#253D4F"/>
<path d="M478.8 75.4687V109.144L492.197 110.933V114.448H455.571V110.933L466.063 109.144V30.7889L454.713 29.0637V25.5514H492.922C504.009 25.5514 512.193 27.4293 517.472 31.1853C522.751 34.9435 525.391 40.9739 525.391 49.2832C525.391 55.205 523.785 60.3318 520.574 64.6636C517.362 68.9489 512.918 71.932 507.243 73.6129L531.198 109.144L540.767 110.933V114.448H519.584L494.704 75.4687H478.8ZM512.258 50.211C512.258 43.4498 510.609 38.6552 507.309 35.8271C504.053 32.9548 498.312 31.5175 490.085 31.5175H478.8V69.5025H490.481C498.356 69.5025 503.943 68.0431 507.243 65.1265C510.587 62.1655 512.258 57.1937 512.258 50.211Z" fill="#253D4F"/>
<path d="M548.779 1154.52V1188.2L562.175 1189.99V1193.5H525.549V1189.99L536.042 1188.2V1109.84L524.691 1108.12V1104.61H562.901C573.988 1104.61 582.171 1106.48 587.451 1110.24C592.73 1114 595.37 1120.03 595.37 1128.34C595.37 1134.26 593.764 1139.39 590.552 1143.72C587.341 1148 582.897 1150.99 577.222 1152.67L601.177 1188.2L610.746 1189.99V1193.5H589.562L564.683 1154.52H548.779ZM582.237 1129.27C582.237 1122.5 580.587 1117.71 577.288 1114.88C574.032 1112.01 568.291 1110.57 560.063 1110.57H548.779V1148.56H560.459C568.334 1148.56 573.922 1147.1 577.222 1144.18C580.565 1141.22 582.237 1136.25 582.237 1129.27Z" fill="#253D4F"/>
<path d="M647.127 692.072V725.747L660.524 727.536V731.051H623.897V727.536L634.39 725.747V647.392L623.039 645.667V642.154H661.249C672.336 642.154 680.519 644.032 685.799 647.788C691.078 651.546 693.718 657.577 693.718 665.886C693.718 671.808 692.112 676.935 688.9 681.267C685.689 685.552 681.245 688.535 675.57 690.216L699.525 725.747L709.094 727.536V731.051H687.911L663.031 692.072H647.127ZM680.585 666.814C680.585 660.053 678.936 655.258 675.636 652.43C672.38 649.558 666.639 648.12 658.412 648.12H647.127V686.105H658.808C666.683 686.105 672.27 684.646 675.57 681.729C678.913 678.768 680.585 673.797 680.585 666.814Z" fill="#253D4F"/>
<path d="M293.451 383.77V417.446L306.848 419.235V422.75H270.222V419.235L280.715 417.446V339.09L269.364 337.365V333.853H307.574C318.661 333.853 326.844 335.731 332.123 339.487C337.403 343.245 340.043 349.275 340.043 357.585C340.043 363.507 338.437 368.633 335.225 372.965C332.013 377.25 327.57 380.233 321.894 381.914L345.85 417.446L355.419 419.235V422.75H334.235L309.356 383.77H293.451ZM326.91 358.513C326.91 351.751 325.26 346.957 321.96 344.129C318.705 341.256 312.963 339.819 304.736 339.819H293.451V377.804H305.132C313.007 377.804 318.595 376.345 321.894 373.428C325.238 370.467 326.91 365.495 326.91 358.513Z" fill="#253D4F"/>
<path d="M380.452 537.921V571.596L393.848 573.386V576.9H357.222V573.386L367.715 571.596V493.241L356.364 491.516V488.004H394.574C405.661 488.004 413.844 489.882 419.124 493.638C424.403 497.396 427.043 503.426 427.043 511.735C427.043 517.657 425.437 522.784 422.225 527.116C419.014 531.401 414.57 534.384 408.895 536.065L432.85 571.596L442.419 573.386V576.9H421.235L396.356 537.921H380.452ZM413.91 512.663C413.91 505.902 412.26 501.107 408.961 498.279C405.705 495.407 399.964 493.97 391.737 493.97H380.452V531.955H392.133C400.008 531.955 405.595 530.495 408.895 527.579C412.238 524.618 413.91 519.646 413.91 512.663Z" fill="#253D4F"/>
<path d="M821.128 1000.37V1034.05L834.524 1035.84V1039.35H797.898V1035.84L808.391 1034.05V955.693L797.04 953.968V950.456H835.25C846.337 950.456 854.52 952.334 859.8 956.09C865.079 959.848 867.719 965.878 867.719 974.188C867.719 980.109 866.113 985.236 862.901 989.568C859.69 993.853 855.246 996.836 849.571 998.517L873.526 1034.05L883.095 1035.84V1039.35H861.911L837.032 1000.37H821.128ZM854.586 975.115C854.586 968.354 852.936 963.56 849.637 960.732C846.381 957.859 840.64 956.422 832.412 956.422H821.128V994.407H832.808C840.683 994.407 846.271 992.948 849.571 990.031C852.914 987.07 854.586 982.098 854.586 975.115Z" fill="#253D4F"/>
<path d="M206.451 229.619V263.295L219.848 265.084V268.599H183.222V265.084L193.714 263.295V184.94L182.364 183.214V179.702H220.573C231.66 179.702 239.844 181.58 245.123 185.336C250.402 189.094 253.042 195.125 253.042 203.434C253.042 209.356 251.436 214.483 248.225 218.814C245.013 223.1 240.569 226.083 234.894 227.764L258.849 263.295L268.418 265.084V268.599H247.235L222.355 229.619H206.451ZM239.909 204.362C239.909 197.601 238.26 192.806 234.96 189.978C231.704 187.106 225.963 185.668 217.736 185.668H206.451V223.653H218.132C226.007 223.653 231.594 222.194 234.894 219.277C238.238 216.316 239.909 211.344 239.909 204.362Z" fill="#253D4F"/>
<path d="M908.128 1154.52V1188.2L921.525 1189.99V1193.5H884.899V1189.99L895.391 1188.2V1109.84L884.041 1108.12V1104.61H922.25C933.337 1104.61 941.52 1106.48 946.8 1110.24C952.079 1114 954.719 1120.03 954.719 1128.34C954.719 1134.26 953.113 1139.39 949.902 1143.72C946.69 1148 942.246 1150.99 936.571 1152.67L960.526 1188.2L970.095 1189.99V1193.5H948.912L924.032 1154.52H908.128ZM941.586 1129.27C941.586 1122.5 939.937 1117.71 936.637 1114.88C933.381 1112.01 927.64 1110.57 919.413 1110.57H908.128V1148.56H919.809C927.684 1148.56 933.271 1147.1 936.571 1144.18C939.915 1141.22 941.586 1136.25 941.586 1129.27Z" fill="#253D4F"/>
<path d="M374.778 846.222V879.898L388.175 881.687V885.202H351.548V881.687L362.041 879.898V801.543L350.69 799.817V796.305H388.9C399.987 796.305 408.17 798.183 413.45 801.939C418.729 805.697 421.369 811.728 421.369 820.037C421.369 825.959 419.763 831.085 416.551 835.417C413.34 839.703 408.896 842.686 403.221 844.367L427.176 879.898L436.745 881.687V885.202H415.561L390.682 846.222H374.778ZM408.236 820.965C408.236 814.203 406.587 809.409 403.287 806.581C400.031 803.708 394.29 802.271 386.063 802.271H374.778V840.256H386.459C394.334 840.256 399.921 838.797 403.221 835.88C406.564 832.919 408.236 827.947 408.236 820.965Z" fill="#253D4F"/>
<path d="M999.857 1000.37V1034.05L1013.25 1035.84V1039.35H976.627V1035.84L987.12 1034.05V955.693L975.769 953.968V950.456H1013.98C1025.07 950.456 1033.25 952.334 1038.53 956.09C1043.81 959.848 1046.45 965.878 1046.45 974.188C1046.45 980.109 1044.84 985.236 1041.63 989.568C1038.42 993.853 1033.97 996.836 1028.3 998.517L1052.26 1034.05L1061.82 1035.84V1039.35H1040.64L1015.76 1000.37H999.857ZM1033.32 975.115C1033.32 968.354 1031.67 963.56 1028.37 960.732C1025.11 957.859 1019.37 956.422 1011.14 956.422H999.857V994.407H1011.54C1019.41 994.407 1025 992.948 1028.3 990.031C1031.64 987.07 1033.32 982.098 1033.32 975.115Z" fill="#253D4F"/>
<path d="M299.125 75.4687V109.144L312.522 110.933V114.448H275.896V110.933L286.389 109.144V30.7889L275.038 29.0637V25.5514H313.248C324.335 25.5514 332.518 27.4293 337.797 31.1853C343.077 34.9435 345.716 40.9739 345.716 49.2832C345.716 55.205 344.111 60.3318 340.899 64.6636C337.687 68.9489 333.244 71.932 327.568 73.6129L351.524 109.144L361.093 110.933V114.448H339.909L315.03 75.4687H299.125ZM332.584 50.211C332.584 43.4498 330.934 38.6552 327.634 35.8271C324.379 32.9548 318.637 31.5175 310.41 31.5175H299.125V69.5025H310.806C318.681 69.5025 324.269 68.0431 327.568 65.1265C330.912 62.1655 332.584 57.1937 332.584 50.211Z" fill="#253D4F"/>
<path d="M1180.48 1000.37V1034.05L1193.87 1035.84V1039.35H1157.25V1035.84L1167.74 1034.05V955.693L1156.39 953.968V950.456H1194.6C1205.69 950.456 1213.87 952.334 1219.15 956.09C1224.43 959.848 1227.07 965.878 1227.07 974.188C1227.07 980.109 1225.46 985.236 1222.25 989.568C1219.04 993.853 1214.6 996.836 1208.92 998.517L1232.88 1034.05L1242.44 1035.84V1039.35H1221.26L1196.38 1000.37H1180.48ZM1213.94 975.115C1213.94 968.354 1212.29 963.56 1208.99 960.732C1205.73 957.859 1199.99 956.422 1191.76 956.422H1180.48V994.407H1192.16C1200.03 994.407 1205.62 992.948 1208.92 990.031C1212.26 987.07 1213.94 982.098 1213.94 975.115Z" fill="#253D4F"/>
<path d="M1360.15 1000.37V1034.05L1373.55 1035.84V1039.35H1336.92V1035.84L1347.42 1034.05V955.693L1336.06 953.968V950.456H1374.27C1385.36 950.456 1393.54 952.334 1398.82 956.09C1404.1 959.848 1406.74 965.878 1406.74 974.188C1406.74 980.109 1405.14 985.236 1401.93 989.568C1398.71 993.853 1394.27 996.836 1388.59 998.517L1412.55 1034.05L1422.12 1035.84V1039.35H1400.94L1376.06 1000.37H1360.15ZM1393.61 975.115C1393.61 968.354 1391.96 963.56 1388.66 960.732C1385.41 957.859 1379.66 956.422 1371.44 956.422H1360.15V994.407H1371.83C1379.71 994.407 1385.3 992.948 1388.59 990.031C1391.94 987.07 1393.61 982.098 1393.61 975.115Z" fill="#253D4F"/>
<path d="M467.452 692.072V725.747L480.849 727.536V731.051H444.223V727.536L454.716 725.747V647.392L443.365 645.667V642.154H481.575C492.661 642.154 500.845 644.032 506.124 647.788C511.403 651.546 514.043 657.577 514.043 665.886C514.043 671.808 512.437 676.935 509.226 681.267C506.014 685.552 501.57 688.535 495.895 690.216L519.851 725.747L529.419 727.536V731.051H508.236L483.356 692.072H467.452ZM500.911 666.814C500.911 660.053 499.261 655.258 495.961 652.43C492.706 649.558 486.964 648.12 478.737 648.12H467.452V686.105H479.133C487.008 686.105 492.595 684.646 495.895 681.729C499.239 678.768 500.911 673.797 500.911 666.814Z" fill="#253D4F"/>
<path d="M1086.86 1154.52V1188.2L1100.25 1189.99V1193.5H1063.63V1189.99L1074.12 1188.2V1109.84L1062.77 1108.12V1104.61H1100.98C1112.07 1104.61 1120.25 1106.48 1125.53 1110.24C1130.81 1114 1133.45 1120.03 1133.45 1128.34C1133.45 1134.26 1131.84 1139.39 1128.63 1143.72C1125.42 1148 1120.98 1150.99 1115.3 1152.67L1139.26 1188.2L1148.82 1189.99V1193.5H1127.64L1102.76 1154.52H1086.86ZM1120.32 1129.27C1120.32 1122.5 1118.67 1117.71 1115.37 1114.88C1112.11 1112.01 1106.37 1110.57 1098.14 1110.57H1086.86V1148.56H1098.54C1106.41 1148.56 1112 1147.1 1115.3 1144.18C1118.64 1141.22 1120.32 1136.25 1120.32 1129.27Z" fill="#253D4F"/>
<path d="M652.801 383.77V417.446L666.197 419.235V422.75H629.571V419.235L640.064 417.446V339.09L628.713 337.365V333.853H666.923C678.01 333.853 686.193 335.731 691.473 339.487C696.752 343.245 699.392 349.275 699.392 357.585C699.392 363.507 697.786 368.633 694.574 372.965C691.363 377.25 686.919 380.233 681.244 381.914L705.199 417.446L714.768 419.235V422.75H693.584L668.705 383.77H652.801ZM686.259 358.513C686.259 351.751 684.609 346.957 681.31 344.129C678.054 341.256 672.313 339.819 664.086 339.819H652.801V377.804H664.482C672.357 377.804 677.944 376.345 681.244 373.428C684.587 370.467 686.259 365.495 686.259 358.513Z" fill="#253D4F"/>
<path d="M1267.48 1154.52V1188.2L1280.87 1189.99V1193.5H1244.25V1189.99L1254.74 1188.2V1109.84L1243.39 1108.12V1104.61H1281.6C1292.69 1104.61 1300.87 1106.48 1306.15 1110.24C1311.43 1114 1314.07 1120.03 1314.07 1128.34C1314.07 1134.26 1312.46 1139.39 1309.25 1143.72C1306.04 1148 1301.6 1150.99 1295.92 1152.67L1319.88 1188.2L1329.44 1189.99V1193.5H1308.26L1283.38 1154.52H1267.48ZM1300.94 1129.27C1300.94 1122.5 1299.29 1117.71 1295.99 1114.88C1292.73 1112.01 1286.99 1110.57 1278.76 1110.57H1267.48V1148.56H1279.16C1287.03 1148.56 1292.62 1147.1 1295.92 1144.18C1299.26 1141.22 1300.94 1136.25 1300.94 1129.27Z" fill="#253D4F"/>
<path d="M1447.15 1154.52V1188.2L1460.55 1189.99V1193.5H1423.92V1189.99L1434.42 1188.2V1109.84L1423.06 1108.12V1104.61H1461.27C1472.36 1104.61 1480.54 1106.48 1485.82 1110.24C1491.1 1114 1493.74 1120.03 1493.74 1128.34C1493.74 1134.26 1492.14 1139.39 1488.93 1143.72C1485.71 1148 1481.27 1150.99 1475.6 1152.67L1499.55 1188.2L1509.12 1189.99V1193.5H1487.94L1463.06 1154.52H1447.15ZM1480.61 1129.27C1480.61 1122.5 1478.96 1117.71 1475.66 1114.88C1472.41 1112.01 1466.66 1110.57 1458.44 1110.57H1447.15V1148.56H1458.83C1466.71 1148.56 1472.3 1147.1 1475.6 1144.18C1478.94 1141.22 1480.61 1136.25 1480.61 1129.27Z" fill="#253D4F"/>
<path d="M739.801 537.921V571.596L753.198 573.386V576.9H716.572V573.386L727.065 571.596V493.241L715.714 491.516V488.004H753.924C765.01 488.004 773.194 489.882 778.473 493.638C783.752 497.396 786.392 503.426 786.392 511.735C786.392 517.657 784.786 522.784 781.575 527.116C778.363 531.401 773.919 534.384 768.244 536.065L792.2 571.596L801.769 573.386V576.9H780.585L755.705 537.921H739.801ZM773.26 512.663C773.26 505.902 771.61 501.107 768.31 498.279C765.055 495.407 759.313 493.97 751.086 493.97H739.801V531.955H751.482C759.357 531.955 764.945 530.495 768.244 527.579C771.588 524.618 773.26 519.646 773.26 512.663Z" fill="#253D4F"/>
<path d="M831.53 383.77V417.446L844.927 419.235V422.75H808.3V419.235L818.793 417.446V339.09L807.442 337.365V333.853H845.652C856.739 333.853 864.922 335.731 870.202 339.487C875.481 343.245 878.121 349.275 878.121 357.585C878.121 363.507 876.515 368.633 873.303 372.965C870.092 377.25 865.648 380.233 859.973 381.914L883.928 417.446L893.497 419.235V422.75H872.314L847.434 383.77H831.53ZM864.988 358.513C864.988 351.751 863.339 346.957 860.039 344.129C856.783 341.256 851.042 339.819 842.815 339.819H831.53V377.804H843.211C851.086 377.804 856.673 376.345 859.973 373.428C863.316 370.467 864.988 365.495 864.988 358.513Z" fill="#253D4F"/>
<path d="M1012.15 383.77V417.446L1025.55 419.235V422.75H988.921V419.235L999.414 417.446V339.09L988.063 337.365V333.853H1026.27C1037.36 333.853 1045.54 335.731 1050.82 339.487C1056.1 343.245 1058.74 349.275 1058.74 357.585C1058.74 363.507 1057.14 368.633 1053.92 372.965C1050.71 377.25 1046.27 380.233 1040.59 381.914L1064.55 417.446L1074.12 419.235V422.75H1052.93L1028.05 383.77H1012.15ZM1045.61 358.513C1045.61 351.751 1043.96 346.957 1040.66 344.129C1037.4 341.256 1031.66 339.819 1023.43 339.819H1012.15V377.804H1023.83C1031.71 377.804 1037.29 376.345 1040.59 373.428C1043.94 370.467 1045.61 365.495 1045.61 358.513Z" fill="#253D4F"/>
<path d="M500.604 1078.33V1044.66L487.207 1042.87V1039.35H523.833V1042.87L513.34 1044.66V1123.01L524.691 1124.74V1128.25H486.481C475.395 1128.25 467.211 1126.37 461.932 1122.62C456.653 1118.86 454.013 1112.83 454.013 1104.52C454.013 1098.6 455.619 1093.47 458.83 1089.14C462.042 1084.85 466.486 1081.87 472.161 1080.19L448.205 1044.66L438.636 1042.87V1039.35H459.82L484.7 1078.33H500.604ZM467.145 1103.59C467.145 1110.35 468.795 1115.15 472.095 1117.97C475.35 1120.85 481.092 1122.28 489.319 1122.28H500.604V1084.3H488.923C481.048 1084.3 475.46 1085.76 472.161 1088.67C468.817 1091.63 467.145 1096.61 467.145 1103.59Z" fill="#253D4F"/>
<path d="M918.53 537.921V571.596L931.927 573.386V576.9H895.301V573.386L905.794 571.596V493.241L894.443 491.516V488.004H932.653C943.739 488.004 951.923 489.882 957.202 493.638C962.481 497.396 965.121 503.426 965.121 511.735C965.121 517.657 963.516 522.784 960.304 527.116C957.092 531.401 952.649 534.384 946.973 536.065L970.929 571.596L980.498 573.386V576.9H959.314L934.434 537.921H918.53ZM951.989 512.663C951.989 505.902 950.339 501.107 947.039 498.279C943.784 495.407 938.042 493.97 929.815 493.97H918.53V531.955H930.211C938.086 531.955 943.674 530.495 946.973 527.579C950.317 524.618 951.989 519.646 951.989 512.663Z" fill="#253D4F"/>
<path d="M1099.15 537.921V571.596L1112.55 573.386V576.9H1075.92V573.386L1086.41 571.596V493.241L1075.06 491.516V488.004H1113.27C1124.36 488.004 1132.54 489.882 1137.82 493.638C1143.1 497.396 1145.74 503.426 1145.74 511.735C1145.74 517.657 1144.14 522.784 1140.92 527.116C1137.71 531.401 1133.27 534.384 1127.59 536.065L1151.55 571.596L1161.12 573.386V576.9H1139.93L1115.05 537.921H1099.15ZM1132.61 512.663C1132.61 505.902 1130.96 501.107 1127.66 498.279C1124.4 495.407 1118.66 493.97 1110.44 493.97H1099.15V531.955H1110.83C1118.71 531.955 1124.29 530.495 1127.59 527.579C1130.94 524.618 1132.61 519.646 1132.61 512.663Z" fill="#253D4F"/>
<path d="M565.8 229.619V263.295L579.197 265.084V268.599H542.571V265.084L553.064 263.295V184.94L541.713 183.214V179.702H579.923C591.01 179.702 599.193 181.58 604.472 185.336C609.752 189.094 612.392 195.125 612.392 203.434C612.392 209.356 610.786 214.483 607.574 218.814C604.362 223.1 599.919 226.083 594.243 227.764L618.199 263.295L627.768 265.084V268.599H606.584L581.705 229.619H565.8ZM599.259 204.362C599.259 197.601 597.609 192.806 594.309 189.978C591.054 187.106 585.312 185.668 577.085 185.668H565.8V223.653H577.481C585.356 223.653 590.944 222.194 594.243 219.277C597.587 216.316 599.259 211.344 599.259 204.362Z" fill="#253D4F"/>
<path d="M734.127 846.222V879.898L747.524 881.687V885.202H710.898V881.687L721.391 879.898V801.543L710.04 799.817V796.305H748.25C759.336 796.305 767.52 798.183 772.799 801.939C778.079 805.697 780.718 811.728 780.718 820.037C780.718 825.959 779.113 831.085 775.901 835.417C772.689 839.703 768.246 842.686 762.57 844.367L786.526 879.898L796.095 881.687V885.202H774.911L750.031 846.222H734.127ZM767.586 820.965C767.586 814.203 765.936 809.409 762.636 806.581C759.381 803.708 753.639 802.271 745.412 802.271H734.127V840.256H745.808C753.683 840.256 759.271 838.797 762.57 835.88C765.914 832.919 767.586 827.947 767.586 820.965Z" fill="#253D4F"/>
<path d="M658.475 75.4687V109.144L671.871 110.933V114.448H635.245V110.933L645.738 109.144V30.7889L634.387 29.0637V25.5514H672.597C683.684 25.5514 691.867 27.4293 697.147 31.1853C702.426 34.9435 705.066 40.9739 705.066 49.2832C705.066 55.205 703.46 60.3318 700.248 64.6636C697.037 68.9489 692.593 71.932 686.918 73.6129L710.873 109.144L720.442 110.933V114.448H699.258L674.379 75.4687H658.475ZM691.933 50.211C691.933 43.4498 690.283 38.6552 686.984 35.8271C683.728 32.9548 677.987 31.5175 669.76 31.5175H658.475V69.5025H670.155C678.031 69.5025 683.618 68.0431 686.918 65.1265C690.261 62.1655 691.933 57.1937 691.933 50.211Z" fill="#253D4F"/>
<path d="M826.802 692.072V725.747L840.198 727.536V731.051H803.572V727.536L814.065 725.747V647.392L802.714 645.667V642.154H840.924C852.011 642.154 860.194 644.032 865.474 647.788C870.753 651.546 873.393 657.577 873.393 665.886C873.393 671.808 871.787 676.935 868.575 681.267C865.364 685.552 860.92 688.535 855.245 690.216L879.2 725.747L888.769 727.536V731.051H867.585L842.706 692.072H826.802ZM860.26 666.814C860.26 660.053 858.61 655.258 855.311 652.43C852.055 649.558 846.313 648.12 838.086 648.12H826.802V686.105H838.482C846.357 686.105 851.945 684.646 855.245 681.729C858.588 678.768 860.26 673.797 860.26 666.814Z" fill="#253D4F"/>
<path d="M245.277 307.578V273.903L231.88 272.113V268.599H268.506V272.113L258.013 273.903V352.258L269.364 353.983V357.496H231.154C220.067 357.496 211.884 355.618 206.605 351.862C201.325 348.103 198.685 342.073 198.685 333.764C198.685 327.842 200.291 322.715 203.503 318.383C206.715 314.098 211.158 311.115 216.834 309.434L192.878 273.903L183.309 272.113V268.599H204.493L229.372 307.578H245.277ZM211.818 332.836C211.818 339.597 213.468 344.392 216.768 347.22C220.023 350.092 225.765 351.529 233.992 351.529H245.277V313.544H233.596C225.721 313.544 220.133 315.004 216.834 317.92C213.49 320.881 211.818 325.853 211.818 332.836Z" fill="#253D4F"/>
<path d="M413.603 924.181V890.506L400.207 888.716V885.202H436.833V888.716L426.34 890.506V968.861L437.691 970.586V974.098H399.481C388.394 974.098 380.211 972.22 374.931 968.465C369.652 964.706 367.012 958.676 367.012 950.367C367.012 944.445 368.618 939.318 371.83 934.986C375.041 930.701 379.485 927.718 385.16 926.037L361.205 890.506L351.636 888.716V885.202H372.82L397.699 924.181H413.603ZM380.145 949.439C380.145 956.2 381.795 960.995 385.094 963.823C388.35 966.695 394.091 968.132 402.319 968.132H413.603V930.147H401.923C394.048 930.147 388.46 931.607 385.16 934.523C381.817 937.484 380.145 942.456 380.145 949.439Z" fill="#253D4F"/>
<path d="M332.277 461.729V428.054L318.88 426.264V422.75H355.506V426.264L345.014 428.054V506.409L356.364 508.134V511.646H318.155C307.068 511.646 298.884 509.768 293.605 506.012C288.326 502.254 285.686 496.224 285.686 487.914C285.686 481.993 287.292 476.866 290.503 472.534C293.715 468.249 298.159 465.266 303.834 463.585L279.879 428.054L270.31 426.264V422.75H291.493L316.373 461.729H332.277ZM298.819 486.987C298.819 493.748 300.468 498.542 303.768 501.37C307.024 504.243 312.765 505.68 320.992 505.68H332.277V467.695H320.596C312.721 467.695 307.134 469.155 303.834 472.071C300.49 475.032 298.819 480.004 298.819 486.987Z" fill="#253D4F"/>
<path d="M65.6019 307.578V273.903L52.2052 272.113V268.599H88.8314V272.113L78.3385 273.903V352.258L89.6893 353.983V357.496H51.4795C40.3927 357.496 32.2094 355.618 26.9299 351.862C21.6506 348.103 19.0108 342.073 19.0108 333.764C19.0108 327.842 20.6166 322.715 23.8284 318.383C27.0399 314.098 31.4836 311.115 37.1589 309.434L13.2035 273.903L3.63458 272.113V268.599H24.8183L49.6976 307.578H65.6019ZM32.1435 332.836C32.1435 339.597 33.7932 344.392 37.0929 347.22C40.3486 350.092 46.0899 351.529 54.3171 351.529H65.6019V313.544H53.9211C46.0461 313.544 40.4586 315.004 37.1589 317.92C33.8153 320.881 32.1435 325.853 32.1435 332.836Z" fill="#253D4F"/>
<path d="M-114.073 307.578V273.903L-127.469 272.113V268.599H-90.8433V272.113L-101.336 273.903V352.258L-89.9854 353.983V357.496H-128.195C-139.282 357.496 -147.465 355.618 -152.745 351.862C-158.024 348.103 -160.664 342.073 -160.664 333.764C-160.664 327.842 -159.058 322.715 -155.846 318.383C-152.635 314.098 -148.191 311.115 -142.516 309.434L-166.471 273.903L-176.04 272.113V268.599H-154.856L-129.977 307.578H-114.073ZM-147.531 332.836C-147.531 339.597 -145.881 344.392 -142.582 347.22C-139.326 350.092 -133.585 351.529 -125.358 351.529H-114.073V313.544H-125.754C-133.629 313.544 -139.216 315.004 -142.516 317.92C-145.859 320.881 -147.531 325.853 -147.531 332.836Z" fill="#253D4F"/>
<path d="M233.929 924.181V890.506L220.532 888.716V885.202H257.158V888.716L246.665 890.506V968.861L258.016 970.586V974.098H219.806C208.719 974.098 200.536 972.22 195.257 968.465C189.977 964.706 187.338 958.676 187.338 950.367C187.338 944.445 188.943 939.318 192.155 934.986C195.367 930.701 199.81 927.718 205.486 926.037L181.53 890.506L171.961 888.716V885.202H193.145L218.024 924.181H233.929ZM200.47 949.439C200.47 956.2 202.12 960.995 205.42 963.823C208.675 966.695 214.417 968.132 222.644 968.132H233.929V930.147H222.248C214.373 930.147 208.785 931.607 205.486 934.523C202.142 937.484 200.47 942.456 200.47 949.439Z" fill="#253D4F"/>
<path d="M152.602 461.729V428.054L139.206 426.264V422.75H175.832V426.264L165.339 428.054V506.409L176.69 508.134V511.646H138.48C127.393 511.646 119.21 509.768 113.93 506.012C108.651 502.254 106.011 496.224 106.011 487.914C106.011 481.993 107.617 476.866 110.829 472.534C114.04 468.249 118.484 465.266 124.159 463.585L100.204 428.054L90.635 426.264V422.75H111.819L136.698 461.729H152.602ZM119.144 486.987C119.144 493.748 120.794 498.542 124.093 501.37C127.349 504.243 133.09 505.68 141.317 505.68H152.602V467.695H140.921C133.046 467.695 127.459 469.155 124.159 472.071C120.816 475.032 119.144 480.004 119.144 486.987Z" fill="#253D4F"/>
<path d="M-27.0725 461.729V428.054L-40.4691 426.264V422.75H-3.8429V426.264L-14.3358 428.054V506.409L-2.98501 508.134V511.646H-41.1949C-52.2817 511.646 -60.4649 509.768 -65.7444 506.012C-71.0237 502.254 -73.6636 496.224 -73.6636 487.914C-73.6636 481.993 -72.0577 476.866 -68.8459 472.534C-65.6344 468.249 -61.1907 465.266 -55.5155 463.585L-79.4708 428.054L-89.0397 426.264V422.75H-67.856L-42.9767 461.729H-27.0725ZM-60.5308 486.987C-60.5308 493.748 -58.8811 498.542 -55.5814 501.37C-52.3257 504.243 -46.5844 505.68 -38.3573 505.68H-27.0725V467.695H-38.7532C-46.6282 467.695 -52.2157 469.155 -55.5155 472.071C-58.859 475.032 -60.5308 480.004 -60.5308 486.987Z" fill="#253D4F"/>
<path d="M320.929 1078.33V1044.66L307.532 1042.87V1039.35H344.159V1042.87L333.666 1044.66V1123.01L345.017 1124.74V1128.25H306.807C295.72 1128.25 287.537 1126.37 282.257 1122.62C276.978 1118.86 274.338 1112.83 274.338 1104.52C274.338 1098.6 275.944 1093.47 279.156 1089.14C282.367 1084.85 286.811 1081.87 292.486 1080.19L268.531 1044.66L258.962 1042.87V1039.35H280.145L305.025 1078.33H320.929ZM287.471 1103.59C287.471 1110.35 289.12 1115.15 292.42 1117.97C295.676 1120.85 301.417 1122.28 309.644 1122.28H320.929V1084.3H309.248C301.373 1084.3 295.786 1085.76 292.486 1088.67C289.142 1091.63 287.471 1096.61 287.471 1103.59Z" fill="#253D4F"/>
<path d="M158.276 153.428V119.752L144.88 117.963V114.448H181.506V117.963L171.013 119.752V198.107L182.364 199.832V203.345H144.154C133.067 203.345 124.884 201.467 119.604 197.711C114.325 193.953 111.685 187.922 111.685 179.613C111.685 173.691 113.291 168.564 116.503 164.233C119.714 159.947 124.158 156.964 129.833 155.283L105.878 119.752L96.3089 117.963V114.448H117.493L142.372 153.428H158.276ZM124.818 178.685C124.818 185.446 126.468 190.241 129.767 193.069C133.023 195.941 138.764 197.379 146.991 197.379H158.276V159.394H146.595C138.72 159.394 133.133 160.853 129.833 163.77C126.49 166.731 124.818 171.702 124.818 178.685Z" fill="#253D4F"/>
<path d="M859.953 1078.33V1044.66L846.557 1042.87V1039.35H883.183V1042.87L872.69 1044.66V1123.01L884.041 1124.74V1128.25H845.831C834.744 1128.25 826.561 1126.37 821.281 1122.62C816.002 1118.86 813.362 1112.83 813.362 1104.52C813.362 1098.6 814.968 1093.47 818.18 1089.14C821.391 1084.85 825.835 1081.87 831.51 1080.19L807.555 1044.66L797.986 1042.87V1039.35H819.17L844.049 1078.33H859.953ZM826.495 1103.59C826.495 1110.35 828.145 1115.15 831.444 1117.97C834.7 1120.85 840.441 1122.28 848.668 1122.28H859.953V1084.3H848.272C840.397 1084.3 834.81 1085.76 831.51 1088.67C828.167 1091.63 826.495 1096.61 826.495 1103.59Z" fill="#253D4F"/>
<path d="M326.603 770.03V736.355L313.206 734.566V731.051H349.833V734.566L339.34 736.355V814.71L350.69 816.435V819.948H312.481C301.394 819.948 293.211 818.07 287.931 814.314C282.652 810.556 280.012 804.525 280.012 796.216C280.012 790.294 281.618 785.167 284.83 780.836C288.041 776.55 292.485 773.567 298.16 771.886L274.205 736.355L264.636 734.566V731.051H285.819L310.699 770.03H326.603ZM293.145 795.288C293.145 802.049 294.794 806.844 298.094 809.672C301.35 812.544 307.091 813.982 315.318 813.982H326.603V775.997H314.922C307.047 775.997 301.46 777.456 298.16 780.373C294.816 783.334 293.145 788.305 293.145 795.288Z" fill="#253D4F"/>
<path d="M-21.3985 153.428V119.752L-34.7951 117.963V114.448H1.83103V117.963L-8.66186 119.752V198.107L2.68893 199.832V203.345H-35.5209C-46.6077 203.345 -54.791 201.467 -60.0705 197.711C-65.3497 193.953 -67.9896 187.922 -67.9896 179.613C-67.9896 173.691 -66.3837 168.564 -63.172 164.233C-59.9605 159.947 -55.5168 156.964 -49.8415 155.283L-73.7969 119.752L-83.3658 117.963V114.448H-62.1821L-37.3027 153.428H-21.3985ZM-54.8569 178.685C-54.8569 185.446 -53.2071 190.241 -49.9074 193.069C-46.6518 195.941 -40.9104 197.379 -32.6833 197.379H-21.3985V159.394H-33.0793C-40.9543 159.394 -46.5418 160.853 -49.8415 163.77C-53.1851 166.731 -54.8569 171.702 -54.8569 178.685Z" fill="#253D4F"/>
<path d="M-200.128 153.428V119.752L-213.524 117.963V114.448H-176.898V117.963L-187.391 119.752V198.107L-176.04 199.832V203.345H-214.25C-225.337 203.345 -233.52 201.467 -238.8 197.711C-244.079 193.953 -246.719 187.922 -246.719 179.613C-246.719 173.691 -245.113 168.564 -241.901 164.233C-238.69 159.947 -234.246 156.964 -228.571 155.283L-252.526 119.752L-262.095 117.963V114.448H-240.911L-216.032 153.428H-200.128ZM-233.586 178.685C-233.586 185.446 -231.936 190.241 -228.636 193.069C-225.381 195.941 -219.639 197.379 -211.412 197.379H-200.128V159.394H-211.808C-219.683 159.394 -225.271 160.853 -228.571 163.77C-231.914 166.731 -233.586 171.702 -233.586 178.685Z" fill="#253D4F"/>
<path d="M146.928 770.03V736.355L133.532 734.566V731.051H170.158V734.566L159.665 736.355V814.71L171.016 816.435V819.948H132.806C121.719 819.948 113.536 818.07 108.256 814.314C102.977 810.556 100.337 804.525 100.337 796.216C100.337 790.294 101.943 785.167 105.155 780.836C108.366 776.55 112.81 773.567 118.485 771.886L94.5299 736.355L84.961 734.566V731.051H106.145L131.024 770.03H146.928ZM113.47 795.288C113.47 802.049 115.12 806.844 118.419 809.672C121.675 812.544 127.416 813.982 135.644 813.982H146.928V775.997H135.248C127.373 775.997 121.785 777.456 118.485 780.373C115.142 783.334 113.47 788.305 113.47 795.288Z" fill="#253D4F"/>
<path d="M250.95 -0.723229V-34.3987L237.554 -36.188V-39.7026H274.18V-36.188L263.687 -34.3987V43.9565L275.038 45.6817V49.1941H236.828C225.741 49.1941 217.558 47.3161 212.279 43.5601C206.999 39.802 204.359 33.7715 204.359 25.4623C204.359 19.5404 205.965 14.4136 209.177 10.0819C212.389 5.79658 216.832 2.81347 222.507 1.13258L198.552 -34.3987L188.983 -36.188V-39.7026H210.167L235.046 -0.723229H250.95ZM217.492 24.5344C217.492 31.2956 219.142 36.0902 222.442 38.9183C225.697 41.7907 231.439 43.2279 239.666 43.2279H250.95V5.24294H239.27C231.395 5.24294 225.807 6.70233 222.507 9.61897C219.164 12.5799 217.492 17.5517 217.492 24.5344Z" fill="#253D4F"/>
<path d="M419.277 615.88V582.204L405.881 580.415V576.9H442.507V580.415L432.014 582.204V660.559L443.365 662.285V665.797H405.155C394.068 665.797 385.885 663.919 380.605 660.163C375.326 656.405 372.686 650.374 372.686 642.065C372.686 636.143 374.292 631.017 377.504 626.685C380.715 622.4 385.159 619.416 390.834 617.736L366.879 582.204L357.31 580.415V576.9H378.494L403.373 615.88H419.277ZM385.819 641.137C385.819 647.899 387.469 652.693 390.768 655.521C394.024 658.394 399.765 659.831 407.993 659.831H419.277V621.846H407.597C399.722 621.846 394.134 623.305 390.834 626.222C387.491 629.183 385.819 634.155 385.819 641.137Z" fill="#253D4F"/>
<path d="M71.2758 -0.723229V-34.3987L57.8792 -36.188V-39.7026H94.5054V-36.188L84.0125 -34.3987V43.9565L95.3632 45.6817V49.1941H57.1534C46.0666 49.1941 37.8834 47.3161 32.6039 43.5601C27.3246 39.802 24.6847 33.7715 24.6847 25.4623C24.6847 19.5404 26.2906 14.4136 29.5023 10.0819C32.7139 5.79658 37.1576 2.81347 42.8328 1.13258L18.8774 -34.3987L9.30852 -36.188V-39.7026H30.4922L55.3716 -0.723229H71.2758ZM37.8174 24.5344C37.8174 31.2956 39.4672 36.0902 42.7669 38.9183C46.0225 41.7907 51.7639 43.2279 59.991 43.2279H71.2758V5.24294H59.5951C51.72 5.24294 46.1325 6.70233 42.8328 9.61897C39.4892 12.5799 37.8174 17.5517 37.8174 24.5344Z" fill="#253D4F"/>
<path d="M680.278 1078.33V1044.66L666.882 1042.87V1039.35H703.508V1042.87L693.015 1044.66V1123.01L704.366 1124.74V1128.25H666.156C655.069 1128.25 646.886 1126.37 641.607 1122.62C636.327 1118.86 633.687 1112.83 633.687 1104.52C633.687 1098.6 635.293 1093.47 638.505 1089.14C641.716 1084.85 646.16 1081.87 651.835 1080.19L627.88 1044.66L618.311 1042.87V1039.35H639.495L664.374 1078.33H680.278ZM646.82 1103.59C646.82 1110.35 648.47 1115.15 651.77 1117.97C655.025 1120.85 660.767 1122.28 668.994 1122.28H680.278V1084.3H668.598C660.723 1084.3 655.135 1085.76 651.835 1088.67C648.492 1091.63 646.82 1096.61 646.82 1103.59Z" fill="#253D4F"/>
<path d="M239.603 615.88V582.204L226.206 580.415V576.9H262.832V580.415L252.339 582.204V660.559L263.69 662.285V665.797H225.48C214.393 665.797 206.21 663.919 200.931 660.163C195.651 656.405 193.012 650.374 193.012 642.065C193.012 636.143 194.617 631.017 197.829 626.685C201.041 622.4 205.484 619.416 211.16 617.736L187.204 582.204L177.635 580.415V576.9H198.819L223.698 615.88H239.603ZM206.144 641.137C206.144 647.899 207.794 652.693 211.094 655.521C214.349 658.394 220.091 659.831 228.318 659.831H239.603V621.846H227.922C220.047 621.846 214.459 623.305 211.16 626.222C207.816 629.183 206.144 634.155 206.144 641.137Z" fill="#253D4F"/>
<path d="M-108.399 -0.723229V-34.3987L-121.796 -36.188V-39.7026H-85.1693V-36.188L-95.6622 -34.3987V43.9565L-84.3115 45.6817V49.1941H-122.521C-133.608 49.1941 -141.791 47.3161 -147.071 43.5601C-152.35 39.802 -154.99 33.7715 -154.99 25.4623C-154.99 19.5404 -153.384 14.4136 -150.172 10.0819C-146.961 5.79658 -142.517 2.81347 -136.842 1.13258L-160.797 -34.3987L-170.366 -36.188V-39.7026H-149.182L-124.303 -0.723229H-108.399ZM-141.857 24.5344C-141.857 31.2956 -140.208 36.0902 -136.908 38.9183C-133.652 41.7907 -127.911 43.2279 -119.684 43.2279H-108.399V5.24294H-120.08C-127.955 5.24294 -133.542 6.70233 -136.842 9.61897C-140.185 12.5799 -141.857 17.5517 -141.857 24.5344Z" fill="#253D4F"/>
<path d="M-287.128 -0.723229V-34.3987L-300.525 -36.188V-39.7026H-263.898V-36.188L-274.391 -34.3987V43.9565L-263.04 45.6817V49.1941H-301.25C-312.337 49.1941 -320.52 47.3161 -325.8 43.5601C-331.079 39.802 -333.719 33.7715 -333.719 25.4623C-333.719 19.5404 -332.113 14.4136 -328.901 10.0819C-325.69 5.79658 -321.246 2.81347 -315.571 1.13258L-339.526 -34.3987L-349.095 -36.188V-39.7026H-327.912L-303.032 -0.723229H-287.128ZM-320.586 24.5344C-320.586 31.2956 -318.937 36.0902 -315.637 38.9183C-312.381 41.7907 -306.64 43.2279 -298.413 43.2279H-287.128V5.24294H-298.809C-306.684 5.24294 -312.271 6.70233 -315.571 9.61897C-318.915 12.5799 -320.586 17.5517 -320.586 24.5344Z" fill="#253D4F"/>
<path d="M59.9279 615.88V582.204L46.5313 580.415V576.9H83.1575V580.415L72.6646 582.204V660.559L84.0154 662.285V665.797H45.8055C34.7187 665.797 26.5355 663.919 21.256 660.163C15.9767 656.405 13.3368 650.374 13.3368 642.065C13.3368 636.143 14.9427 631.017 18.1545 626.685C21.366 622.4 25.8097 619.416 31.4849 617.736L7.52953 582.204L-2.03935 580.415V576.9H19.1444L44.0237 615.88H59.9279ZM26.4696 641.137C26.4696 647.899 28.1193 652.693 31.419 655.521C34.6746 658.394 40.416 659.831 48.6431 659.831H59.9279V621.846H48.2472C40.3721 621.846 34.7846 623.305 31.4849 626.222C28.1413 629.183 26.4696 634.155 26.4696 641.137Z" fill="#253D4F"/>
<path d="M604.626 307.578V273.903L591.229 272.113V268.599H627.855V272.113L617.363 273.903V352.258L628.713 353.983V357.496H590.504C579.417 357.496 571.234 355.618 565.954 351.862C560.675 348.103 558.035 342.073 558.035 333.764C558.035 327.842 559.641 322.715 562.852 318.383C566.064 314.098 570.508 311.115 576.183 309.434L552.228 273.903L542.659 272.113V268.599H563.842L588.722 307.578H604.626ZM571.168 332.836C571.168 339.597 572.817 344.392 576.117 347.22C579.373 350.092 585.114 351.529 593.341 351.529H604.626V313.544H592.945C585.07 313.544 579.483 315.004 576.183 317.92C572.839 320.881 571.168 325.853 571.168 332.836Z" fill="#253D4F"/>
<path d="M772.953 924.181V890.506L759.556 888.716V885.202H796.182V888.716L785.689 890.506V968.861L797.04 970.586V974.098H758.83C747.744 974.098 739.56 972.22 734.281 968.465C729.002 964.706 726.362 958.676 726.362 950.367C726.362 944.445 727.968 939.318 731.179 934.986C734.391 930.701 738.835 927.718 744.51 926.037L720.554 890.506L710.985 888.716V885.202H732.169L757.049 924.181H772.953ZM739.494 949.439C739.494 956.2 741.144 960.995 744.444 963.823C747.699 966.695 753.441 968.132 761.668 968.132H772.953V930.147H761.272C753.397 930.147 747.809 931.607 744.51 934.523C741.166 937.484 739.494 942.456 739.494 949.439Z" fill="#253D4F"/>
<path d="M691.626 461.729V428.054L678.23 426.264V422.75H714.856V426.264L704.363 428.054V506.409L715.714 508.134V511.646H677.504C666.417 511.646 658.234 509.768 652.954 506.012C647.675 502.254 645.035 496.224 645.035 487.914C645.035 481.993 646.641 476.866 649.853 472.534C653.064 468.249 657.508 465.266 663.183 463.585L639.228 428.054L629.659 426.264V422.75H650.843L675.722 461.729H691.626ZM658.168 486.987C658.168 493.748 659.818 498.542 663.117 501.37C666.373 504.243 672.114 505.68 680.342 505.68H691.626V467.695H679.946C672.071 467.695 666.483 469.155 663.183 472.071C659.84 475.032 658.168 480.004 658.168 486.987Z" fill="#253D4F"/>
<path d="M517.626 153.428V119.752L504.229 117.963V114.448H540.855V117.963L530.362 119.752V198.107L541.713 199.832V203.345H503.503C492.416 203.345 484.233 201.467 478.954 197.711C473.674 193.953 471.035 187.922 471.035 179.613C471.035 173.691 472.64 168.564 475.852 164.233C479.064 159.947 483.507 156.964 489.183 155.283L465.227 119.752L455.658 117.963V114.448H476.842L501.721 153.428H517.626ZM484.167 178.685C484.167 185.446 485.817 190.241 489.117 193.069C492.372 195.941 498.114 197.379 506.341 197.379H517.626V159.394H505.945C498.07 159.394 492.482 160.853 489.183 163.77C485.839 166.731 484.167 171.702 484.167 178.685Z" fill="#253D4F"/>
<path d="M685.952 770.03V736.355L672.556 734.566V731.051H709.182V734.566L698.689 736.355V814.71L710.04 816.435V819.948H671.83C660.743 819.948 652.56 818.07 647.28 814.314C642.001 810.556 639.361 804.525 639.361 796.216C639.361 790.294 640.967 785.167 644.179 780.836C647.39 776.55 651.834 773.567 657.509 771.886L633.554 736.355L623.985 734.566V731.051H645.169L670.048 770.03H685.952ZM652.494 795.288C652.494 802.049 654.144 806.844 657.443 809.672C660.699 812.544 666.441 813.982 674.668 813.982H685.952V775.997H674.272C666.397 775.997 660.809 777.456 657.509 780.373C654.166 783.334 652.494 788.305 652.494 795.288Z" fill="#253D4F"/>
<path d="M1039.63 1078.33V1044.66L1026.23 1042.87V1039.35H1062.86V1042.87L1052.36 1044.66V1123.01L1063.72 1124.74V1128.25H1025.51C1014.42 1128.25 1006.24 1126.37 1000.96 1122.62C995.677 1118.86 993.037 1112.83 993.037 1104.52C993.037 1098.6 994.643 1093.47 997.854 1089.14C1001.07 1084.85 1005.51 1081.87 1011.18 1080.19L987.229 1044.66L977.661 1042.87V1039.35H998.844L1023.72 1078.33H1039.63ZM1006.17 1103.59C1006.17 1110.35 1007.82 1115.15 1011.12 1117.97C1014.37 1120.85 1020.12 1122.28 1028.34 1122.28H1039.63V1084.3H1027.95C1020.07 1084.3 1014.48 1085.76 1011.18 1088.67C1007.84 1091.63 1006.17 1096.61 1006.17 1103.59Z" fill="#253D4F"/>
<path d="M610.3 -0.723229V-34.3987L596.903 -36.188V-39.7026H633.529V-36.188L623.037 -34.3987V43.9565L634.387 45.6817V49.1941H596.177C585.091 49.1941 576.907 47.3161 571.628 43.5601C566.349 39.802 563.709 33.7715 563.709 25.4623C563.709 19.5404 565.315 14.4136 568.526 10.0819C571.738 5.79658 576.182 2.81347 581.857 1.13258L557.901 -34.3987L548.333 -36.188V-39.7026H569.516L594.396 -0.723229H610.3ZM576.842 24.5344C576.842 31.2956 578.491 36.0902 581.791 38.9183C585.047 41.7907 590.788 43.2279 599.015 43.2279H610.3V5.24294H598.619C590.744 5.24294 585.157 6.70233 581.857 9.61897C578.513 12.5799 576.842 17.5517 576.842 24.5344Z" fill="#253D4F"/>
<path d="M1220.25 1078.33V1044.66L1206.85 1042.87V1039.35H1243.48V1042.87L1232.98 1044.66V1123.01L1244.34 1124.74V1128.25H1206.13C1195.04 1128.25 1186.86 1126.37 1181.58 1122.62C1176.3 1118.86 1173.66 1112.83 1173.66 1104.52C1173.66 1098.6 1175.26 1093.47 1178.47 1089.14C1181.69 1084.85 1186.13 1081.87 1191.81 1080.19L1167.85 1044.66L1158.28 1042.87V1039.35H1179.46L1204.34 1078.33H1220.25ZM1186.79 1103.59C1186.79 1110.35 1188.44 1115.15 1191.74 1117.97C1194.99 1120.85 1200.74 1122.28 1208.96 1122.28H1220.25V1084.3H1208.57C1200.69 1084.3 1195.1 1085.76 1191.81 1088.67C1188.46 1091.63 1186.79 1096.61 1186.79 1103.59Z" fill="#253D4F"/>
<path d="M1399.92 1078.33V1044.66L1386.53 1042.87V1039.35H1423.15V1042.87L1412.66 1044.66V1123.01L1424.01 1124.74V1128.25H1385.8C1374.71 1128.25 1366.53 1126.37 1361.25 1122.62C1355.97 1118.86 1353.33 1112.83 1353.33 1104.52C1353.33 1098.6 1354.94 1093.47 1358.15 1089.14C1361.36 1084.85 1365.8 1081.87 1371.48 1080.19L1347.52 1044.66L1337.96 1042.87V1039.35H1359.14L1384.02 1078.33H1399.92ZM1366.46 1103.59C1366.46 1110.35 1368.11 1115.15 1371.41 1117.97C1374.67 1120.85 1380.41 1122.28 1388.64 1122.28H1399.92V1084.3H1388.24C1380.37 1084.3 1374.78 1085.76 1371.48 1088.67C1368.14 1091.63 1366.46 1096.61 1366.46 1103.59Z" fill="#253D4F"/>
<path d="M778.627 615.88V582.204L765.23 580.415V576.9H801.856V580.415L791.363 582.204V660.559L802.714 662.285V665.797H764.504C753.418 665.797 745.234 663.919 739.955 660.163C734.675 656.405 732.036 650.374 732.036 642.065C732.036 636.143 733.641 631.017 736.853 626.685C740.065 622.4 744.508 619.416 750.184 617.736L726.228 582.204L716.659 580.415V576.9H737.843L762.723 615.88H778.627ZM745.168 641.137C745.168 647.899 746.818 652.693 750.118 655.521C753.373 658.394 759.115 659.831 767.342 659.831H778.627V621.846H766.946C759.071 621.846 753.483 623.305 750.184 626.222C746.84 629.183 745.168 634.155 745.168 641.137Z" fill="#253D4F"/>
<path d="M424.951 307.578V273.903L411.555 272.113V268.599H448.181V272.113L437.688 273.903V352.258L449.039 353.983V357.496H410.829C399.742 357.496 391.559 355.618 386.279 351.862C381 348.103 378.36 342.073 378.36 333.764C378.36 327.842 379.966 322.715 383.178 318.383C386.389 314.098 390.833 311.115 396.508 309.434L372.553 273.903L362.984 272.113V268.599H384.168L409.047 307.578H424.951ZM391.493 332.836C391.493 339.597 393.143 344.392 396.442 347.22C399.698 350.092 405.439 351.529 413.666 351.529H424.951V313.544H413.271C405.395 313.544 399.808 315.004 396.508 317.92C393.165 320.881 391.493 325.853 391.493 332.836Z" fill="#253D4F"/>
<path d="M593.278 924.181V890.506L579.881 888.716V885.202H616.508V888.716L606.015 890.506V968.861L617.366 970.586V974.098H579.156C568.069 974.098 559.886 972.22 554.606 968.465C549.327 964.706 546.687 958.676 546.687 950.367C546.687 944.445 548.293 939.318 551.505 934.986C554.716 930.701 559.16 927.718 564.835 926.037L540.88 890.506L531.311 888.716V885.202H552.495L577.374 924.181H593.278ZM559.82 949.439C559.82 956.2 561.469 960.995 564.769 963.823C568.025 966.695 573.766 968.132 581.993 968.132H593.278V930.147H581.597C573.722 930.147 568.135 931.607 564.835 934.523C561.491 937.484 559.82 942.456 559.82 949.439Z" fill="#253D4F"/>
<path d="M511.952 461.729V428.054L498.555 426.264V422.75H535.181V426.264L524.688 428.054V506.409L536.039 508.134V511.646H497.829C486.742 511.646 478.559 509.768 473.28 506.012C468 502.254 465.361 496.224 465.361 487.914C465.361 481.993 466.966 476.866 470.178 472.534C473.39 468.249 477.833 465.266 483.509 463.585L459.553 428.054L449.984 426.264V422.75H471.168L496.047 461.729H511.952ZM478.493 486.987C478.493 493.748 480.143 498.542 483.443 501.37C486.698 504.243 492.44 505.68 500.667 505.68H511.952V467.695H500.271C492.396 467.695 486.808 469.155 483.509 472.071C480.165 475.032 478.493 480.004 478.493 486.987Z" fill="#253D4F"/>
<path d="M337.951 153.428V119.752L324.554 117.963V114.448H361.18V117.963L350.688 119.752V198.107L362.038 199.832V203.345H323.828C312.742 203.345 304.558 201.467 299.279 197.711C294 193.953 291.36 187.922 291.36 179.613C291.36 173.691 292.966 168.564 296.177 164.233C299.389 159.947 303.833 156.964 309.508 155.283L285.552 119.752L275.984 117.963V114.448H297.167L322.047 153.428H337.951ZM304.493 178.685C304.493 185.446 306.142 190.241 309.442 193.069C312.698 195.941 318.439 197.379 326.666 197.379H337.951V159.394H326.27C318.395 159.394 312.808 160.853 309.508 163.77C306.164 166.731 304.493 171.702 304.493 178.685Z" fill="#253D4F"/>
<path d="M506.278 770.03V736.355L492.881 734.566V731.051H529.507V734.566L519.014 736.355V814.71L530.365 816.435V819.948H492.155C481.069 819.948 472.885 818.07 467.606 814.314C462.326 810.556 459.687 804.525 459.687 796.216C459.687 790.294 461.292 785.167 464.504 780.836C467.716 776.55 472.159 773.567 477.835 771.886L453.879 736.355L444.31 734.566V731.051H465.494L490.373 770.03H506.278ZM472.819 795.288C472.819 802.049 474.469 806.844 477.769 809.672C481.024 812.544 486.766 813.982 494.993 813.982H506.278V775.997H494.597C486.722 775.997 481.134 777.456 477.835 780.373C474.491 783.334 472.819 788.305 472.819 795.288Z" fill="#253D4F"/>
<path d="M430.625 -0.723229V-34.3987L417.229 -36.188V-39.7026H453.855V-36.188L443.362 -34.3987V43.9565L454.713 45.6817V49.1941H416.503C405.416 49.1941 397.233 47.3161 391.953 43.5601C386.674 39.802 384.034 33.7715 384.034 25.4623C384.034 19.5404 385.64 14.4136 388.852 10.0819C392.063 5.79658 396.507 2.81347 402.182 1.13258L378.227 -34.3987L368.658 -36.188V-39.7026H389.842L414.721 -0.723229H430.625ZM397.167 24.5344C397.167 31.2956 398.817 36.0902 402.116 38.9183C405.372 41.7907 411.113 43.2279 419.34 43.2279H430.625V5.24294H418.944C411.069 5.24294 405.482 6.70233 402.182 9.61897C398.839 12.5799 397.167 17.5517 397.167 24.5344Z" fill="#253D4F"/>
<path d="M598.952 615.88V582.204L585.555 580.415V576.9H622.182V580.415L611.689 582.204V660.559L623.039 662.285V665.797H584.83C573.743 665.797 565.56 663.919 560.28 660.163C555.001 656.405 552.361 650.374 552.361 642.065C552.361 636.143 553.967 631.017 557.179 626.685C560.39 622.4 564.834 619.416 570.509 617.736L546.554 582.204L536.985 580.415V576.9H558.168L583.048 615.88H598.952ZM565.494 641.137C565.494 647.899 567.143 652.693 570.443 655.521C573.699 658.394 579.44 659.831 587.667 659.831H598.952V621.846H587.271C579.396 621.846 573.809 623.305 570.509 626.222C567.165 629.183 565.494 634.155 565.494 641.137Z" fill="#253D4F"/>
<path d="M784.301 307.578V273.903L770.904 272.113V268.599H807.53V272.113L797.037 273.903V352.258L808.388 353.983V357.496H770.178C759.091 357.496 750.908 355.618 745.629 351.862C740.349 348.103 737.71 342.073 737.71 333.764C737.71 327.842 739.315 322.715 742.527 318.383C745.739 314.098 750.182 311.115 755.858 309.434L731.902 273.903L722.333 272.113V268.599H743.517L768.396 307.578H784.301ZM750.842 332.836C750.842 339.597 752.492 344.392 755.792 347.22C759.047 350.092 764.789 351.529 773.016 351.529H784.301V313.544H772.62C764.745 313.544 759.157 315.004 755.858 317.92C752.514 320.881 750.842 325.853 750.842 332.836Z" fill="#253D4F"/>
<path d="M952.627 924.181V890.506L939.231 888.716V885.202H975.857V888.716L965.364 890.506V968.861L976.715 970.586V974.098H938.505C927.418 974.098 919.235 972.22 913.956 968.465C908.676 964.706 906.036 958.676 906.036 950.367C906.036 944.445 907.642 939.318 910.854 934.986C914.066 930.701 918.509 927.718 924.184 926.037L900.229 890.506L890.66 888.716V885.202H911.844L936.723 924.181H952.627ZM919.169 949.439C919.169 956.2 920.819 960.995 924.119 963.823C927.374 966.695 933.116 968.132 941.343 968.132H952.627V930.147H940.947C933.072 930.147 927.484 931.607 924.184 934.523C920.841 937.484 919.169 942.456 919.169 949.439Z" fill="#253D4F"/>
<path d="M963.975 307.578V273.903L950.579 272.113V268.599H987.205V272.113L976.712 273.903V352.258L988.063 353.983V357.496H949.853C938.766 357.496 930.583 355.618 925.303 351.862C920.024 348.103 917.384 342.073 917.384 333.764C917.384 327.842 918.99 322.715 922.202 318.383C925.413 314.098 929.857 311.115 935.532 309.434L911.577 273.903L902.008 272.113V268.599H923.192L948.071 307.578H963.975ZM930.517 332.836C930.517 339.597 932.167 344.392 935.466 347.22C938.722 350.092 944.463 351.529 952.691 351.529H963.975V313.544H952.295C944.42 313.544 938.832 315.004 935.532 317.92C932.189 320.881 930.517 325.853 930.517 332.836Z" fill="#253D4F"/>
<path d="M1132.3 924.181V890.506L1118.91 888.716V885.202H1155.53V888.716L1145.04 890.506V968.861L1156.39 970.586V974.098H1118.18C1107.09 974.098 1098.91 972.22 1093.63 968.465C1088.35 964.706 1085.71 958.676 1085.71 950.367C1085.71 944.445 1087.32 939.318 1090.53 934.986C1093.74 930.701 1098.18 927.718 1103.86 926.037L1079.9 890.506L1070.33 888.716V885.202H1091.52L1116.4 924.181H1132.3ZM1098.84 949.439C1098.84 956.2 1100.49 960.995 1103.79 963.823C1107.05 966.695 1112.79 968.132 1121.02 968.132H1132.3V930.147H1120.62C1112.75 930.147 1107.16 931.607 1103.86 934.523C1100.52 937.484 1098.84 942.456 1098.84 949.439Z" fill="#253D4F"/>
<path d="M1311.98 924.181V890.506L1298.58 888.716V885.202H1335.21V888.716L1324.71 890.506V968.861L1336.06 970.586V974.098H1297.85C1286.77 974.098 1278.58 972.22 1273.3 968.465C1268.03 964.706 1265.39 958.676 1265.39 950.367C1265.39 944.445 1266.99 939.318 1270.2 934.986C1273.41 930.701 1277.86 927.718 1283.53 926.037L1259.58 890.506L1250.01 888.716V885.202H1271.19L1296.07 924.181H1311.98ZM1278.52 949.439C1278.52 956.2 1280.17 960.995 1283.47 963.823C1286.72 966.695 1292.46 968.132 1300.69 968.132H1311.98V930.147H1300.3C1292.42 930.147 1286.83 931.607 1283.53 934.523C1280.19 937.484 1278.52 942.456 1278.52 949.439Z" fill="#253D4F"/>
<path d="M871.301 461.729V428.054L857.904 426.264V422.75H894.531V426.264L884.038 428.054V506.409L895.388 508.134V511.646H857.179C846.092 511.646 837.909 509.768 832.629 506.012C827.35 502.254 824.71 496.224 824.71 487.914C824.71 481.993 826.316 476.866 829.528 472.534C832.739 468.249 837.183 465.266 842.858 463.585L818.903 428.054L809.334 426.264V422.75H830.517L855.397 461.729H871.301ZM837.843 486.987C837.843 493.748 839.492 498.542 842.792 501.37C846.048 504.243 851.789 505.68 860.016 505.68H871.301V467.695H859.62C851.745 467.695 846.158 469.155 842.858 472.071C839.514 475.032 837.843 480.004 837.843 486.987Z" fill="#253D4F"/>
<path d="M1051.92 461.729V428.054L1038.52 426.264V422.75H1075.15V426.264L1064.66 428.054V506.409L1076.01 508.134V511.646H1037.8C1026.71 511.646 1018.53 509.768 1013.25 506.012C1007.97 502.254 1005.33 496.224 1005.33 487.914C1005.33 481.993 1006.94 476.866 1010.15 472.534C1013.36 468.249 1017.8 465.266 1023.48 463.585L999.523 428.054L989.954 426.264V422.75H1011.14L1036.02 461.729H1051.92ZM1018.46 486.987C1018.46 493.748 1020.11 498.542 1023.41 501.37C1026.67 504.243 1032.41 505.68 1040.64 505.68H1051.92V467.695H1040.24C1032.37 467.695 1026.78 469.155 1023.48 472.071C1020.13 475.032 1018.46 480.004 1018.46 486.987Z" fill="#253D4F"/>
<path d="M697.3 153.428V119.752L683.904 117.963V114.448H720.53V117.963L710.037 119.752V198.107L721.388 199.832V203.345H683.178C672.091 203.345 663.908 201.467 658.628 197.711C653.349 193.953 650.709 187.922 650.709 179.613C650.709 173.691 652.315 168.564 655.527 164.233C658.738 159.947 663.182 156.964 668.857 155.283L644.902 119.752L635.333 117.963V114.448H656.517L681.396 153.428H697.3ZM663.842 178.685C663.842 185.446 665.492 190.241 668.791 193.069C672.047 195.941 677.788 197.379 686.016 197.379H697.3V159.394H685.62C677.745 159.394 672.157 160.853 668.857 163.77C665.514 166.731 663.842 171.702 663.842 178.685Z" fill="#253D4F"/>
<path d="M865.627 770.03V736.355L852.23 734.566V731.051H888.857V734.566L878.364 736.355V814.71L889.715 816.435V819.948H851.505C840.418 819.948 832.235 818.07 826.955 814.314C821.676 810.556 819.036 804.525 819.036 796.216C819.036 790.294 820.642 785.167 823.854 780.836C827.065 776.55 831.509 773.567 837.184 771.886L813.229 736.355L803.66 734.566V731.051H824.843L849.723 770.03H865.627ZM832.169 795.288C832.169 802.049 833.818 806.844 837.118 809.672C840.374 812.544 846.115 813.982 854.342 813.982H865.627V775.997H853.946C846.071 775.997 840.484 777.456 837.184 780.373C833.841 783.334 832.169 788.305 832.169 795.288Z" fill="#253D4F"/>
<path d="M876.975 153.428V119.752L863.578 117.963V114.448H900.204V117.963L889.712 119.752V198.107L901.062 199.832V203.345H862.853C851.766 203.345 843.583 201.467 838.303 197.711C833.024 193.953 830.384 187.922 830.384 179.613C830.384 173.691 831.99 168.564 835.201 164.233C838.413 159.947 842.857 156.964 848.532 155.283L824.577 119.752L815.008 117.963V114.448H836.191L861.071 153.428H876.975ZM843.517 178.685C843.517 185.446 845.166 190.241 848.466 193.069C851.722 195.941 857.463 197.379 865.69 197.379H876.975V159.394H865.294C857.419 159.394 851.832 160.853 848.532 163.77C845.188 166.731 843.517 171.702 843.517 178.685Z" fill="#253D4F"/>
<path d="M1045.3 770.03V736.355L1031.91 734.566V731.051H1068.53V734.566L1058.04 736.355V814.71L1069.39 816.435V819.948H1031.18C1020.09 819.948 1011.91 818.07 1006.63 814.314C1001.35 810.556 998.711 804.525 998.711 796.216C998.711 790.294 1000.32 785.167 1003.53 780.836C1006.74 776.55 1011.18 773.567 1016.86 771.886L992.903 736.355L983.335 734.566V731.051H1004.52L1029.4 770.03H1045.3ZM1011.84 795.288C1011.84 802.049 1013.49 806.844 1016.79 809.672C1020.05 812.544 1025.79 813.982 1034.02 813.982H1045.3V775.997H1033.62C1025.75 775.997 1020.16 777.456 1016.86 780.373C1013.52 783.334 1011.84 788.305 1011.84 795.288Z" fill="#253D4F"/>
<path d="M1224.98 770.03V736.355L1211.58 734.566V731.051H1248.21V734.566L1237.71 736.355V814.71L1249.06 816.435V819.948H1210.85C1199.77 819.948 1191.58 818.07 1186.3 814.314C1181.03 810.556 1178.39 804.525 1178.39 796.216C1178.39 790.294 1179.99 785.167 1183.2 780.836C1186.41 776.55 1190.86 773.567 1196.53 771.886L1172.58 736.355L1163.01 734.566V731.051H1184.19L1209.07 770.03H1224.98ZM1191.52 795.288C1191.52 802.049 1193.17 806.844 1196.47 809.672C1199.72 812.544 1205.46 813.982 1213.69 813.982H1224.98V775.997H1213.3C1205.42 775.997 1199.83 777.456 1196.53 780.373C1193.19 783.334 1191.52 788.305 1191.52 795.288Z" fill="#253D4F"/>
<path d="M789.975 -0.723229V-34.3987L776.578 -36.188V-39.7026H813.204V-36.188L802.711 -34.3987V43.9565L814.062 45.6817V49.1941H775.852C764.765 49.1941 756.582 47.3161 751.303 43.5601C746.023 39.802 743.383 33.7715 743.383 25.4623C743.383 19.5404 744.989 14.4136 748.201 10.0819C751.413 5.79658 755.856 2.81347 761.532 1.13258L737.576 -34.3987L728.007 -36.188V-39.7026H749.191L774.07 -0.723229H789.975ZM756.516 24.5344C756.516 31.2956 758.166 36.0902 761.466 38.9183C764.721 41.7907 770.463 43.2279 778.69 43.2279H789.975V5.24294H778.294C770.419 5.24294 764.831 6.70233 761.532 9.61897C758.188 12.5799 756.516 17.5517 756.516 24.5344Z" fill="#253D4F"/>
<path d="M958.301 615.88V582.204L944.905 580.415V576.9H981.531V580.415L971.038 582.204V660.559L982.389 662.285V665.797H944.179C933.092 665.797 924.909 663.919 919.629 660.163C914.35 656.405 911.71 650.374 911.71 642.065C911.71 636.143 913.316 631.017 916.528 626.685C919.739 622.4 924.183 619.416 929.858 617.736L905.903 582.204L896.334 580.415V576.9H917.518L942.397 615.88H958.301ZM924.843 641.137C924.843 647.899 926.493 652.693 929.792 655.521C933.048 658.394 938.79 659.831 947.017 659.831H958.301V621.846H946.621C938.746 621.846 933.158 623.305 929.858 626.222C926.515 629.183 924.843 634.155 924.843 641.137Z" fill="#253D4F"/>
<path d="M1137.98 615.88V582.204L1124.58 580.415V576.9H1161.21V580.415L1150.71 582.204V660.559L1162.06 662.285V665.797H1123.85C1112.77 665.797 1104.58 663.919 1099.3 660.163C1094.02 656.405 1091.38 650.374 1091.38 642.065C1091.38 636.143 1092.99 631.017 1096.2 626.685C1099.41 622.4 1103.86 619.416 1109.53 617.736L1085.58 582.204L1076.01 580.415V576.9H1097.19L1122.07 615.88H1137.98ZM1104.52 641.137C1104.52 647.899 1106.17 652.693 1109.47 655.521C1112.72 658.394 1118.46 659.831 1126.69 659.831H1137.98V621.846H1126.3C1118.42 621.846 1112.83 623.305 1109.53 626.222C1106.19 629.183 1104.52 634.155 1104.52 641.137Z" fill="#253D4F"/>
</g>
</svg>
