<svg width="793" height="816" viewBox="0 0 793 816" fill="none" xmlns="http://www.w3.org/2000/svg">
<path d="M221.968 458.201V767.314L345.418 783.739V816H7.90568V783.739L104.598 767.314V48.0766L0 32.2407V0H352.106C454.272 0 529.681 17.2383 578.332 51.7151C626.981 86.2123 651.307 141.567 651.307 217.839C651.307 272.197 636.509 319.256 606.913 359.019C577.318 398.354 536.369 425.737 484.072 441.166L704.822 767.314L793 783.739V816H597.791L368.526 458.201H221.968ZM530.289 226.356C530.289 164.294 515.086 120.283 484.679 94.3235C454.678 67.9576 401.771 54.7649 325.957 54.7649H221.968V403.436H329.606C402.175 403.436 453.664 390.04 484.072 363.268C514.883 336.089 530.289 290.451 530.289 226.356Z" fill="#223D51"/>
</svg>
